<?xml version="1.0" encoding="UTF-8" standalone="no"?>
<!-- Created with Inkscape (http://www.inkscape.org/) -->

<svg
   xmlns:dc="http://purl.org/dc/elements/1.1/"
   xmlns:cc="http://creativecommons.org/ns#"
   xmlns:rdf="http://www.w3.org/1999/02/22-rdf-syntax-ns#"
   xmlns:svg="http://www.w3.org/2000/svg"
   xmlns="http://www.w3.org/2000/svg"
   xmlns:sodipodi="http://sodipodi.sourceforge.net/DTD/sodipodi-0.dtd"
   xmlns:inkscape="http://www.inkscape.org/namespaces/inkscape"
   id="svg2"
   version="1.1"
   inkscape:version="0.91 r13725"
   xml:space="preserve"
   width="1097.4445"
   height="478.46506"
   viewBox="0 0 1097.4445 478.46506"
   sodipodi:docname="OPE_S3-BioFerVeh_e-30_timeSerie2013.svg"
   inkscape:export-filename="/home/samuel/Documents/LGGE/rapport/figures/OPE_S3-BioFerVeh_e-30_timeSerie2013.png"
   inkscape:export-xdpi="74"
   inkscape:export-ydpi="74"><metadata
     id="metadata8"><rdf:RDF><cc:Work
         rdf:about=""><dc:format>image/svg+xml</dc:format><dc:type
           rdf:resource="http://purl.org/dc/dcmitype/StillImage" /><dc:title></dc:title></cc:Work></rdf:RDF></metadata><defs
     id="defs6" /><sodipodi:namedview
     pagecolor="#ffffff"
     bordercolor="#666666"
     borderopacity="1"
     objecttolerance="10"
     gridtolerance="10"
     guidetolerance="10"
     inkscape:pageopacity="0"
     inkscape:pageshadow="2"
     inkscape:window-width="1366"
     inkscape:window-height="742"
     id="namedview4"
     showgrid="false"
     fit-margin-top="0"
     fit-margin-left="0"
     fit-margin-right="0"
     fit-margin-bottom="0"
     inkscape:zoom="0.93459535"
     inkscape:cx="324.35529"
     inkscape:cy="242.30454"
     inkscape:window-x="0"
     inkscape:window-y="0"
     inkscape:window-maximized="1"
     inkscape:current-layer="g10" /><g
     id="g10"
     inkscape:groupmode="layer"
     inkscape:label="OPE_S3-BioFerVeh_e-30_timeSerie2013"
     transform="matrix(1.25,0,0,-1.25,-15.174346,528.43731)"><path
       inkscape:connector-curvature="0"
       id="path26"
       style="fill:none;stroke:#000000;stroke-width:0.5;stroke-linecap:butt;stroke-linejoin:miter;stroke-miterlimit:10;stroke-dasharray:16, 0;stroke-dashoffset:0;stroke-opacity:1"
       d="m 63.0438,318.768 827.0512,0" /><path
       inkscape:connector-curvature="0"
       id="path28"
       style="fill:none;stroke:#000000;stroke-width:0.5;stroke-linecap:butt;stroke-linejoin:miter;stroke-miterlimit:10;stroke-dasharray:16, 0;stroke-dashoffset:0;stroke-opacity:1"
       d="m 63.0438,318.768 0,90.472" /><path
       inkscape:connector-curvature="0"
       id="path30"
       style="fill:none;stroke:#000000;stroke-width:0.5;stroke-linecap:butt;stroke-linejoin:miter;stroke-miterlimit:10;stroke-dasharray:16, 0;stroke-dashoffset:0;stroke-opacity:1"
       d="m 65.3512,318.768 0,8.315" /><path
       inkscape:connector-curvature="0"
       id="path32"
       style="fill:none;stroke:#000000;stroke-width:0.5;stroke-linecap:butt;stroke-linejoin:miter;stroke-miterlimit:10;stroke-dasharray:16, 0;stroke-dashoffset:0;stroke-opacity:1"
       d="m 135.883,318.768 0,8.315" /><path
       inkscape:connector-curvature="0"
       id="path34"
       style="fill:none;stroke:#000000;stroke-width:0.5;stroke-linecap:butt;stroke-linejoin:miter;stroke-miterlimit:10;stroke-dasharray:16, 0;stroke-dashoffset:0;stroke-opacity:1"
       d="m 199.714,318.768 0,8.315" /><path
       inkscape:connector-curvature="0"
       id="path36"
       style="fill:none;stroke:#000000;stroke-width:0.5;stroke-linecap:butt;stroke-linejoin:miter;stroke-miterlimit:10;stroke-dasharray:16, 0;stroke-dashoffset:0;stroke-opacity:1"
       d="m 270.356,318.768 0,8.315" /><path
       inkscape:connector-curvature="0"
       id="path38"
       style="fill:none;stroke:#000000;stroke-width:0.5;stroke-linecap:butt;stroke-linejoin:miter;stroke-miterlimit:10;stroke-dasharray:16, 0;stroke-dashoffset:0;stroke-opacity:1"
       d="m 338.691,318.768 0,8.315" /><path
       inkscape:connector-curvature="0"
       id="path40"
       style="fill:none;stroke:#000000;stroke-width:0.5;stroke-linecap:butt;stroke-linejoin:miter;stroke-miterlimit:10;stroke-dasharray:16, 0;stroke-dashoffset:0;stroke-opacity:1"
       d="m 409.333,318.768 0,8.315" /><path
       inkscape:connector-curvature="0"
       id="path42"
       style="fill:none;stroke:#000000;stroke-width:0.5;stroke-linecap:butt;stroke-linejoin:miter;stroke-miterlimit:10;stroke-dasharray:16, 0;stroke-dashoffset:0;stroke-opacity:1"
       d="m 477.668,318.768 0,8.315" /><path
       inkscape:connector-curvature="0"
       id="path44"
       style="fill:none;stroke:#000000;stroke-width:0.5;stroke-linecap:butt;stroke-linejoin:miter;stroke-miterlimit:10;stroke-dasharray:16, 0;stroke-dashoffset:0;stroke-opacity:1"
       d="m 548.31,318.768 0,8.315" /><path
       inkscape:connector-curvature="0"
       id="path46"
       style="fill:none;stroke:#000000;stroke-width:0.5;stroke-linecap:butt;stroke-linejoin:miter;stroke-miterlimit:10;stroke-dasharray:16, 0;stroke-dashoffset:0;stroke-opacity:1"
       d="m 618.952,318.768 0,8.315" /><path
       inkscape:connector-curvature="0"
       id="path48"
       style="fill:none;stroke:#000000;stroke-width:0.5;stroke-linecap:butt;stroke-linejoin:miter;stroke-miterlimit:10;stroke-dasharray:16, 0;stroke-dashoffset:0;stroke-opacity:1"
       d="m 687.287,318.768 0,8.315" /><path
       inkscape:connector-curvature="0"
       id="path50"
       style="fill:none;stroke:#000000;stroke-width:0.5;stroke-linecap:butt;stroke-linejoin:miter;stroke-miterlimit:10;stroke-dasharray:16, 0;stroke-dashoffset:0;stroke-opacity:1"
       d="m 757.929,318.768 0,8.315" /><path
       inkscape:connector-curvature="0"
       id="path52"
       style="fill:none;stroke:#000000;stroke-width:0.5;stroke-linecap:butt;stroke-linejoin:miter;stroke-miterlimit:10;stroke-dasharray:16, 0;stroke-dashoffset:0;stroke-opacity:1"
       d="m 826.374,318.768 0,8.315" /><g
       id="g54"><text
         id="text56"
         style="font-variant:normal;font-weight:normal;font-size:10px;font-family:Helvetica;-inkscape-font-specification:Helvetica;writing-mode:lr-tb;fill:#000000;fill-opacity:1;fill-rule:nonzero;stroke:none"
         transform="matrix(1,0,0,-1,37.2535,303.742)"><tspan
           id="tspan58"
           sodipodi:role="line"
           y="0"
           x="0 5.5599999 11.12 14.45 19.450001 25.01 30.57 33.900002 39.459999 45.02 50.580002 70.119904 75.679901 81.239899 84.569901 90.679901 96.239899 101.7999 105.1299 110.6899 116.2499 121.8099 133.93474 139.49474 145.05473 148.38474 156.71474 162.27473 165.60474 168.93474 174.49474 180.05473 185.61475 205.33864 210.89864 216.45863 219.78864 226.45863 232.01865 235.34863 238.67863 244.23865 249.79865 255.35864 272.02695 277.58694 283.14694 286.47693 294.80695 300.36694 305.36694 308.69693 314.25693 319.81693 325.37695 344.08673 349.64673 355.20673 358.53674 363.53674 369.09674 374.65674 377.98672 383.54675 389.10675 394.66675 414.10983 419.66983 425.22983 428.55984 433.55984 439.11984 441.33984 444.66983 450.22983 455.78983 461.34985 482.17896 487.73895 493.29895 496.62894 503.29895 508.85895 514.41895 517.74896 523.30896 528.86896 534.42896 552.85394 558.41394 563.97394 567.30396 573.97394 579.53394 585.09393 588.42395 593.98395 599.54395 605.10394 622.32196 627.88196 633.44196 636.77191 644.55194 649.55194 652.33197 655.66193 661.22192 666.78192 672.34192 691.88684 697.44684 703.00684 706.33685 713.55682 719.11682 724.11682 727.44684 733.00684 738.56683 744.12683 760.23883 765.79883 771.35883 774.68884 781.90881 787.46881 792.46881 795.79883 801.35883 806.91882 812.47882">01-Jan-201301-Feb-201301-Mar-201301-Apr-201301-May-201301-Jun-201301-Jul-201301-Aug-201301-Sep-201301-Oct-201301-Nov-201301-Dec-2013</tspan></text>
</g><path
       inkscape:connector-curvature="0"
       id="path60"
       style="fill:none;stroke:#000000;stroke-width:0.5;stroke-linecap:butt;stroke-linejoin:miter;stroke-miterlimit:10;stroke-dasharray:16, 0;stroke-dashoffset:0;stroke-opacity:1"
       d="m 63.0438,318.768 8.2398,0" /><path
       inkscape:connector-curvature="0"
       id="path62"
       style="fill:none;stroke:#000000;stroke-width:0.5;stroke-linecap:butt;stroke-linejoin:miter;stroke-miterlimit:10;stroke-dasharray:16, 0;stroke-dashoffset:0;stroke-opacity:1"
       d="m 63.0438,336.863 8.2398,0" /><path
       inkscape:connector-curvature="0"
       id="path64"
       style="fill:none;stroke:#000000;stroke-width:0.5;stroke-linecap:butt;stroke-linejoin:miter;stroke-miterlimit:10;stroke-dasharray:16, 0;stroke-dashoffset:0;stroke-opacity:1"
       d="m 63.0438,354.957 8.2398,0" /><path
       inkscape:connector-curvature="0"
       id="path66"
       style="fill:none;stroke:#000000;stroke-width:0.5;stroke-linecap:butt;stroke-linejoin:miter;stroke-miterlimit:10;stroke-dasharray:16, 0;stroke-dashoffset:0;stroke-opacity:1"
       d="m 63.0438,373.051 8.2398,0" /><path
       inkscape:connector-curvature="0"
       id="path68"
       style="fill:none;stroke:#000000;stroke-width:0.5;stroke-linecap:butt;stroke-linejoin:miter;stroke-miterlimit:10;stroke-dasharray:16, 0;stroke-dashoffset:0;stroke-opacity:1"
       d="m 63.0438,391.146 8.2398,0" /><path
       inkscape:connector-curvature="0"
       id="path70"
       style="fill:none;stroke:#000000;stroke-width:0.5;stroke-linecap:butt;stroke-linejoin:miter;stroke-miterlimit:10;stroke-dasharray:16, 0;stroke-dashoffset:0;stroke-opacity:1"
       d="m 63.0438,409.24 8.2398,0" /><g
       id="g72"
       transform="translate(0,1.6)"><text
         id="text74"
         style="font-variant:normal;font-weight:normal;font-size:10px;font-family:Helvetica;-inkscape-font-specification:Helvetica;writing-mode:lr-tb;fill:#000000;fill-opacity:1;fill-rule:nonzero;stroke:none"
         transform="matrix(1,0,0,-1,52.493,313.768)"><tspan
           id="tspan76"
           y="0"
           x="0">0</tspan><tspan
           id="tspan78"
           sodipodi:role="line"
           y="-18.0949"
           x="-8.3394499 -2.7794499 0.00055">0.2</tspan><tspan
           id="tspan80"
           sodipodi:role="line"
           y="-36.188999"
           x="-8.3394499 -2.7794499 0.00055">0.4</tspan><tspan
           id="tspan82"
           sodipodi:role="line"
           y="-54.2831"
           x="-8.3394499 -2.7794499 0.00055">0.6</tspan><tspan
           id="tspan84"
           sodipodi:role="line"
           y="-72.377998"
           x="-8.3394499 -2.7794499 0.00055">0.8</tspan><tspan
           id="tspan86"
           y="-90.471802"
           x="0">1</tspan></text>
<text
         id="text88"
         style="font-variant:normal;font-weight:normal;font-size:10px;font-family:Helvetica;-inkscape-font-specification:Helvetica;writing-mode:lr-tb;fill:#000000;fill-opacity:1;fill-rule:nonzero;stroke:none"
         transform="matrix(0,1,1,0,0,0)"
         x="359.55899"
         y="34.170303"><tspan
           id="tspan90"
           y="34.170303"
           x="359.55899">%</tspan></text>
</g><path
       inkscape:connector-curvature="0"
       id="path92"
       style="fill:#46e664;fill-opacity:0.19607843;stroke:none;stroke-width:0.5;stroke-linecap:butt;stroke-linejoin:miter;stroke-miterlimit:10;stroke-dasharray:0, 4, 4, 4, 4, 0;stroke-dashoffset:0;stroke-opacity:1"
       d="m 65.3512,319.853 15.9301,0.726 11.316,3.17 13.7327,-2.118 27.356,16.197 0,-12.029 -27.356,-6.047 -13.7327,0.773 -11.316,-1.144 -15.9301,-0.17 0,0.642"
       sodipodi:nodetypes="ccccccccccc" /><path
       inkscape:connector-curvature="0"
       id="path94"
       style="fill:#46e664;fill-opacity:0.19607843;stroke:none;stroke-width:0.5;stroke-linecap:butt;stroke-linejoin:miter;stroke-miterlimit:10;stroke-dasharray:0, 4, 4, 4, 4, 0;stroke-dashoffset:0;stroke-opacity:1"
       d="m 161.042,321.965 13.623,0.718 13.623,-2.105 13.733,-0.726 13.623,2.508 13.733,-1.78 13.623,14.064 13.733,-14.443 13.623,-0.35 13.733,-0.287 13.623,3.85 13.623,-2.855 41.089,-0.995 13.623,1.016 13.733,2.108 13.623,-0.325 13.623,-1.049 13.733,-1.75 13.623,-0.188 13.733,0.001 13.623,0.476 13.733,0.727 13.623,-0.749 13.733,-0.266 13.623,-0.19 13.623,0.189 0,-0.491 -13.623,-0.033 -13.623,0.034 -13.733,0.124 -13.623,0.185 -13.733,-0.172 -13.623,-0.172 -13.733,0 -13.623,0.034 -13.733,0.483 -13.623,0.364 -13.623,0.219 -13.733,-0.757 -13.623,-0.308 -41.089,0.299 -13.623,0.919 -13.623,-1.218 -13.733,0.136 -13.623,0.269 -13.733,4.992 -13.623,-5.088 -13.733,0.534 -13.623,-0.707 -13.733,0.172 -13.623,0.754 -13.623,-0.146 0,1.975"
       sodipodi:nodetypes="ccccccccccccccccccccccccccccccccccccccccccccccccccccc" /><path
       inkscape:connector-curvature="0"
       id="path96"
       style="fill:#46e664;fill-opacity:0.19607843;stroke:none;stroke-width:0.5;stroke-linecap:butt;stroke-linejoin:miter;stroke-miterlimit:10;stroke-dasharray:0, 4, 4, 4, 4, 0;stroke-dashoffset:0;stroke-opacity:1"
       d="m 557.429,319.56 13.733,0.003 13.623,-0.002 13.733,0.001 13.623,0.003 13.623,-10e-4 13.733,-0.005 0,-0.487 -13.733,0.002 -13.623,-0.001 -13.623,-10e-4 -13.733,10e-4 -13.623,0 -13.733,-10e-4 0,0.488"
       sodipodi:nodetypes="ccccccccccccccc" /><path
       inkscape:connector-curvature="0"
       id="path98"
       style="fill:#46e664;fill-opacity:0.19607843;stroke:none;stroke-width:0.5;stroke-linecap:butt;stroke-linejoin:miter;stroke-miterlimit:10;stroke-dasharray:0, 4, 4, 4, 4, 0;stroke-dashoffset:0;stroke-opacity:1"
       d="m 666.853,321.629 13.623,-2.065 13.732,1.306 13.624,-0.292 0,0 13.732,-0.725 13.624,1.04 0,-1.302 -13.624,-0.38 -13.732,0.171 0,0 -13.624,0.194 -13.732,-0.502 -13.623,0.68 0,1.875 z"
       sodipodi:nodetypes="cccccccccccccccc" /><path
       inkscape:connector-curvature="0"
       id="path100"
       style="fill:#46e664;fill-opacity:0.19607843;stroke:none;stroke-width:0.5;stroke-linecap:butt;stroke-linejoin:miter;stroke-miterlimit:10;stroke-dasharray:0, 4, 4, 4, 4, 0;stroke-dashoffset:0;stroke-opacity:1"
       d="m 789.899,321.629 13.623,3.289 18.238,13.001 9.118,-15.231 13.623,13.113 13.733,-4.012 15.931,-4.626 11.425,-2.018 0,-4.727 -11.425,0.486 -15.931,2.146 -13.733,1.322 -13.623,-4.234 -9.118,5.004 -18.238,-4.414 -13.623,-0.975 0,1.876"
       sodipodi:nodetypes="ccccccccccccccccc" /><path
       inkscape:connector-curvature="0"
       id="path102"
       style="fill:none;stroke:#46e664;stroke-width:0.5;stroke-linecap:butt;stroke-linejoin:miter;stroke-miterlimit:10;stroke-dasharray:none;stroke-opacity:1"
       d="m 65.3512,319.532 15.9301,0.448 11.316,2.157 13.7327,-1.446 27.356,11.122" /><path
       inkscape:connector-curvature="0"
       id="path104"
       style="fill:none;stroke:#46e664;stroke-width:0.5;stroke-linecap:butt;stroke-linejoin:miter;stroke-miterlimit:10;stroke-dasharray:none;stroke-opacity:1"
       d="m 161.042,320.978 13.623,0.431 13.623,-1.429 13.733,-0.449 13.623,1.607 13.733,-1.156 13.623,9.576 13.733,-9.718 13.623,-0.309 13.733,-0.212 13.623,2.534 13.623,-1.887 41.089,-0.647 13.623,0.662 13.733,1.432 13.623,-0.272 13.623,-0.706 13.733,-1.116 13.623,-0.111 13.733,0 13.623,0.324 13.733,0.45 13.623,-0.468 13.733,-0.195 13.623,-0.112 13.623,0.111" /><path
       inkscape:connector-curvature="0"
       id="path106"
       style="fill:none;stroke:#46e664;stroke-width:0.5;stroke-linecap:butt;stroke-linejoin:miter;stroke-miterlimit:10;stroke-dasharray:none;stroke-opacity:1"
       d="m 557.429,319.316 13.733,0.002 13.623,-10e-4 13.733,0 13.623,0.002 13.623,0 13.733,-0.004" /><path
       inkscape:connector-curvature="0"
       id="path108"
       style="fill:none;stroke:#46e664;stroke-width:0.5;stroke-linecap:butt;stroke-linejoin:miter;stroke-miterlimit:10;stroke-dasharray:none;stroke-opacity:1"
       d="m 666.853,320.691 13.623,-1.372 13.732,0.904 13.624,-0.243 0,0 13.732,-0.448 13.624,0.71" /><path
       inkscape:connector-curvature="0"
       id="path110"
       style="fill:none;stroke:#46e664;stroke-width:0.5;stroke-linecap:butt;stroke-linejoin:miter;stroke-miterlimit:10;stroke-dasharray:none;stroke-opacity:1"
       d="m 789.899,320.691 13.623,2.132 18.238,8.707 9.118,-10.117 13.623,8.673 13.733,-2.667 15.931,-3.385 11.425,-1.253" /><path
       inkscape:connector-curvature="0"
       id="path122"
       style="fill:none;stroke:#be3200;stroke-width:0.5;stroke-linecap:butt;stroke-linejoin:miter;stroke-miterlimit:10;stroke-dasharray:none;stroke-opacity:1"
       d="m 65.3512,339.823 15.9301,35.833 11.316,6.433 13.7327,5.807 27.356,-61.447" /><path
       inkscape:connector-curvature="0"
       id="path124"
       style="fill:none;stroke:#be3200;stroke-width:0.5;stroke-linecap:butt;stroke-linejoin:miter;stroke-miterlimit:10;stroke-dasharray:none;stroke-opacity:1"
       d="m 161.042,389.081 13.623,0.771 13.623,5.689 13.733,1.975 13.623,-33.497 13.733,29.551 13.623,-68.734 13.733,63.056 13.623,7.671 13.733,-6.906 13.623,-53.967 13.623,-10.62 41.089,46.998 13.623,-30.195 13.733,-9.959 13.623,6.071 13.623,17.245 13.733,-17.388 13.623,-0.575 13.733,-10.175 13.623,13.44 13.733,2.563 13.623,-20.521 13.733,10.182 13.623,4.812 13.623,-9.672" /><path
       inkscape:connector-curvature="0"
       id="path126"
       style="fill:none;stroke:#be3200;stroke-width:0.5;stroke-linecap:butt;stroke-linejoin:miter;stroke-miterlimit:10;stroke-dasharray:none;stroke-opacity:1"
       d="m 557.429,324.236 13.733,1.081 13.623,-0.067 13.733,0.633 13.623,12.913 13.623,-10.06 13.733,-5.686" /><path
       inkscape:connector-curvature="0"
       id="path128"
       style="fill:none;stroke:#be3200;stroke-width:0.5;stroke-linecap:butt;stroke-linejoin:miter;stroke-miterlimit:10;stroke-dasharray:none;stroke-opacity:1"
       d="m 666.853,332.114 13.623,15.641 13.732,-24.529 13.624,10.004 0,-1.565 13.732,21.303 13.624,-27.891" /><path
       inkscape:connector-curvature="0"
       id="path130"
       style="fill:none;stroke:#be3200;stroke-width:0.5;stroke-linecap:butt;stroke-linejoin:miter;stroke-miterlimit:10;stroke-dasharray:none;stroke-opacity:1"
       d="m 789.899,359.103 13.623,-34.499 18.238,13.512 9.118,32.286 13.623,-33.578 13.733,-5.875 15.931,-9.563 11.425,-0.448" /><path
       inkscape:connector-curvature="0"
       id="path132"
       style="fill:#0000b4;fill-opacity:0.19607843;stroke:none;stroke-width:0.5;stroke-linecap:butt;stroke-linejoin:miter;stroke-miterlimit:10;stroke-dasharray:0, 4, 4, 4, 4, 0;stroke-dashoffset:0;stroke-opacity:1"
       d="m 65.3512,391.435 15.9301,-32.579 11.316,-8.262 13.7327,-4.345 27.356,45.805 0,-7.079 -27.356,-54.846 -13.7327,4.377 -11.316,8.918 -15.9301,39.984 0,8.027"
       sodipodi:nodetypes="ccccccccccc" /><path
       inkscape:connector-curvature="0"
       id="path134"
       style="fill:#0000b4;fill-opacity:0.19607843;stroke:none;stroke-width:0.5;stroke-linecap:butt;stroke-linejoin:miter;stroke-miterlimit:10;stroke-dasharray:0, 4, 4, 4, 4, 0;stroke-dashoffset:0;stroke-opacity:1"
       d="m 161.042,344.624 13.623,-1.342 13.623,-5.075 13.733,-1.783 13.623,31.573 13.733,-27.27 13.623,55.122 13.733,-48.622 13.623,-8.432 13.733,8.215 13.623,46.899 13.623,11.87 41.089,-42.151 13.623,26.376 13.733,7.987 13.623,-5.533 13.623,-14.863 13.733,16.857 13.623,0.673 13.733,9.704 13.623,-13.122 13.733,-2.584 13.623,18.712 13.733,-8.221 13.623,-4.502 13.623,8.866 0,-6.833 -13.623,-10.254 -13.623,4.898 -13.733,11.752 -13.623,-23.263 -13.733,3.441 -13.623,14.404 -13.733,-10.645 -13.623,-0.698 -13.733,-20.152 -13.623,18.215 -13.623,6.065 -13.733,-9.067 -13.623,-32.689 -41.089,50.549 -13.623,-13.142 -13.623,-55.969 -13.733,-6.02 -13.623,6.291 -13.733,58.055 -13.623,-63.193 -13.733,29.518 -13.623,-32.206 -13.733,1.27 -13.623,3.444 -13.623,1.063 0,15.812"
       sodipodi:nodetypes="ccccccccccccccccccccccccccccccccccccccccccccccccccccc" /><path
       inkscape:connector-curvature="0"
       id="path136"
       style="fill:#0000b4;fill-opacity:0.19607843;stroke:none;stroke-width:0.5;stroke-linecap:butt;stroke-linejoin:miter;stroke-miterlimit:10;stroke-dasharray:0, 4, 4, 4, 4, 0;stroke-dashoffset:0;stroke-opacity:1"
       d="m 557.429,406.319 13.733,-0.913 13.623,0.236 13.733,-0.734 13.623,-12.297 13.623,9.649 13.733,4.865 0,-5.427 -13.733,-6.514 -13.623,-10.473 -13.623,13.533 -13.733,0.532 -13.623,0.1 -13.733,1.253 0,6.19"
       sodipodi:nodetypes="ccccccccccccccc" /><path
       inkscape:connector-curvature="0"
       id="path138"
       style="fill:#0000b4;fill-opacity:0.19607843;stroke:none;stroke-width:0.5;stroke-linecap:butt;stroke-linejoin:miter;stroke-miterlimit:10;stroke-dasharray:0, 4, 4, 4, 4, 0;stroke-dashoffset:0;stroke-opacity:1"
       d="m 666.853,397.57 13.623,-13.216 13.732,21.886 13.624,-8.729 0,1.514 13.732,-19.382 13.624,25.199 0,-6.768 -13.624,-29.163 -13.732,22.328 0,-1.616 -13.624,10.791 -13.732,-25.363 -13.623,15.322 0,7.197"
       sodipodi:nodetypes="ccccccccccccccc" /><path
       inkscape:connector-curvature="0"
       id="path140"
       style="fill:#0000b4;fill-opacity:0.19607843;stroke:none;stroke-width:0.5;stroke-linecap:butt;stroke-linejoin:miter;stroke-miterlimit:10;stroke-dasharray:0, 4, 4, 4, 4, 0;stroke-dashoffset:0;stroke-opacity:1"
       d="m 789.899,372.98 13.623,29.692 18.238,-21.359 9.118,-19.069 13.623,21.701 13.733,8.244 15.931,12.246 11.425,1.212 0,-5.179 -11.425,-2.191 -15.931,-13.648 -13.733,-8.842 -13.623,-28.109 -9.118,25.268 -18.238,23.081 -13.623,-35.041 0,11.994"
       sodipodi:nodetypes="ccccccccccccccccc" /><path
       inkscape:connector-curvature="0"
       id="path142"
       style="fill:none;stroke:#0000b4;stroke-width:0.5;stroke-linecap:butt;stroke-linejoin:miter;stroke-miterlimit:10;stroke-dasharray:none;stroke-opacity:1"
       d="m 65.3512,387.421 15.9301,-36.281 11.316,-8.59 13.7327,-4.361 27.356,50.325" /><path
       inkscape:connector-curvature="0"
       id="path144"
       style="fill:none;stroke:#0000b4;stroke-width:0.5;stroke-linecap:butt;stroke-linejoin:miter;stroke-miterlimit:10;stroke-dasharray:none;stroke-opacity:1"
       d="m 161.042,336.718 13.623,-1.202 13.623,-4.26 13.733,-1.527 13.623,31.89 13.733,-28.394 13.623,59.158 13.733,-53.339 13.623,-7.361 13.733,7.117 13.623,51.434 13.623,12.506 41.089,-46.35 13.623,29.533 13.733,8.526 13.623,-5.799 13.623,-16.539 13.733,18.505 13.623,0.686 13.733,10.174 13.623,-13.763 13.733,-3.013 13.623,20.988 13.733,-9.986 13.623,-4.7 13.623,9.56" /><path
       inkscape:connector-curvature="0"
       id="path146"
       style="fill:none;stroke:#0000b4;stroke-width:0.5;stroke-linecap:butt;stroke-linejoin:miter;stroke-miterlimit:10;stroke-dasharray:none;stroke-opacity:1"
       d="m 557.429,403.224 13.733,-1.083 13.623,0.068 13.733,-0.633 13.623,-12.915 13.623,10.061 13.733,5.689" /><path
       inkscape:connector-curvature="0"
       id="path148"
       style="fill:none;stroke:#0000b4;stroke-width:0.5;stroke-linecap:butt;stroke-linejoin:miter;stroke-miterlimit:10;stroke-dasharray:none;stroke-opacity:1"
       d="m 666.853,393.971 13.623,-14.268 13.732,23.624 13.624,-9.76 0,1.565 13.732,-20.855 13.624,27.181" /><path
       inkscape:connector-curvature="0"
       id="path150"
       style="fill:none;stroke:#0000b4;stroke-width:0.5;stroke-linecap:butt;stroke-linejoin:miter;stroke-miterlimit:10;stroke-dasharray:none;stroke-opacity:1"
       d="m 789.899,366.983 13.623,32.367 18.238,-22.22 9.118,-22.169 13.623,24.905 13.733,8.543 15.931,12.947 11.425,1.701" /><path
       inkscape:connector-curvature="0"
       id="path152"
       style="fill:none;stroke:#000000;stroke-width:0.5;stroke-linecap:butt;stroke-linejoin:miter;stroke-miterlimit:10;stroke-dasharray:16, 0;stroke-dashoffset:0;stroke-opacity:1"
       d="m 63.0438,187.964 827.0512,0" /><path
       inkscape:connector-curvature="0"
       id="path154"
       style="fill:none;stroke:#000000;stroke-width:0.5;stroke-linecap:butt;stroke-linejoin:miter;stroke-miterlimit:10;stroke-dasharray:16, 0;stroke-dashoffset:0;stroke-opacity:1"
       d="m 63.0438,187.964 0,89.038" /><path
       inkscape:connector-curvature="0"
       id="path156"
       style="fill:none;stroke:#000000;stroke-width:0.5;stroke-linecap:butt;stroke-linejoin:miter;stroke-miterlimit:10;stroke-dasharray:16, 0;stroke-dashoffset:0;stroke-opacity:1"
       d="m 65.3512,187.964 0,8.275" /><path
       inkscape:connector-curvature="0"
       id="path158"
       style="fill:none;stroke:#000000;stroke-width:0.5;stroke-linecap:butt;stroke-linejoin:miter;stroke-miterlimit:10;stroke-dasharray:16, 0;stroke-dashoffset:0;stroke-opacity:1"
       d="m 135.883,187.964 0,8.275" /><path
       inkscape:connector-curvature="0"
       id="path160"
       style="fill:none;stroke:#000000;stroke-width:0.5;stroke-linecap:butt;stroke-linejoin:miter;stroke-miterlimit:10;stroke-dasharray:16, 0;stroke-dashoffset:0;stroke-opacity:1"
       d="m 199.714,187.964 0,8.275" /><path
       inkscape:connector-curvature="0"
       id="path162"
       style="fill:none;stroke:#000000;stroke-width:0.5;stroke-linecap:butt;stroke-linejoin:miter;stroke-miterlimit:10;stroke-dasharray:16, 0;stroke-dashoffset:0;stroke-opacity:1"
       d="m 270.356,187.964 0,8.275" /><path
       inkscape:connector-curvature="0"
       id="path164"
       style="fill:none;stroke:#000000;stroke-width:0.5;stroke-linecap:butt;stroke-linejoin:miter;stroke-miterlimit:10;stroke-dasharray:16, 0;stroke-dashoffset:0;stroke-opacity:1"
       d="m 338.691,187.964 0,8.275" /><path
       inkscape:connector-curvature="0"
       id="path166"
       style="fill:none;stroke:#000000;stroke-width:0.5;stroke-linecap:butt;stroke-linejoin:miter;stroke-miterlimit:10;stroke-dasharray:16, 0;stroke-dashoffset:0;stroke-opacity:1"
       d="m 409.333,187.964 0,8.275" /><path
       inkscape:connector-curvature="0"
       id="path168"
       style="fill:none;stroke:#000000;stroke-width:0.5;stroke-linecap:butt;stroke-linejoin:miter;stroke-miterlimit:10;stroke-dasharray:16, 0;stroke-dashoffset:0;stroke-opacity:1"
       d="m 477.668,187.964 0,8.275" /><path
       inkscape:connector-curvature="0"
       id="path170"
       style="fill:none;stroke:#000000;stroke-width:0.5;stroke-linecap:butt;stroke-linejoin:miter;stroke-miterlimit:10;stroke-dasharray:16, 0;stroke-dashoffset:0;stroke-opacity:1"
       d="m 548.31,187.964 0,8.275" /><path
       inkscape:connector-curvature="0"
       id="path172"
       style="fill:none;stroke:#000000;stroke-width:0.5;stroke-linecap:butt;stroke-linejoin:miter;stroke-miterlimit:10;stroke-dasharray:16, 0;stroke-dashoffset:0;stroke-opacity:1"
       d="m 618.952,187.964 0,8.275" /><path
       inkscape:connector-curvature="0"
       id="path174"
       style="fill:none;stroke:#000000;stroke-width:0.5;stroke-linecap:butt;stroke-linejoin:miter;stroke-miterlimit:10;stroke-dasharray:16, 0;stroke-dashoffset:0;stroke-opacity:1"
       d="m 687.287,187.964 0,8.275" /><path
       inkscape:connector-curvature="0"
       id="path176"
       style="fill:none;stroke:#000000;stroke-width:0.5;stroke-linecap:butt;stroke-linejoin:miter;stroke-miterlimit:10;stroke-dasharray:16, 0;stroke-dashoffset:0;stroke-opacity:1"
       d="m 757.929,187.964 0,8.275" /><path
       inkscape:connector-curvature="0"
       id="path178"
       style="fill:none;stroke:#000000;stroke-width:0.5;stroke-linecap:butt;stroke-linejoin:miter;stroke-miterlimit:10;stroke-dasharray:16, 0;stroke-dashoffset:0;stroke-opacity:1"
       d="m 826.374,187.964 0,8.275" /><g
       id="g180"><text
         id="text182"
         style="font-variant:normal;font-weight:normal;font-size:10px;font-family:Helvetica;-inkscape-font-specification:Helvetica;writing-mode:lr-tb;fill:#000000;fill-opacity:1;fill-rule:nonzero;stroke:none"
         transform="matrix(1,0,0,-1,37.2535,172.962)"><tspan
           id="tspan184"
           sodipodi:role="line"
           y="0"
           x="0 5.5599999 11.12 14.45 19.450001 25.01 30.57 33.900002 39.459999 45.02 50.580002 70.119904 75.679901 81.239899 84.569901 90.679901 96.239899 101.7999 105.1299 110.6899 116.2499 121.8099 133.93474 139.49474 145.05473 148.38474 156.71474 162.27473 165.60474 168.93474 174.49474 180.05473 185.61475 205.33864 210.89864 216.45863 219.78864 226.45863 232.01865 235.34863 238.67863 244.23865 249.79865 255.35864 272.02695 277.58694 283.14694 286.47693 294.80695 300.36694 305.36694 308.69693 314.25693 319.81693 325.37695 344.08673 349.64673 355.20673 358.53674 363.53674 369.09674 374.65674 377.98672 383.54675 389.10675 394.66675 414.10983 419.66983 425.22983 428.55984 433.55984 439.11984 441.33984 444.66983 450.22983 455.78983 461.34985 482.17896 487.73895 493.29895 496.62894 503.29895 508.85895 514.41895 517.74896 523.30896 528.86896 534.42896 552.85394 558.41394 563.97394 567.30396 573.97394 579.53394 585.09393 588.42395 593.98395 599.54395 605.10394 622.32196 627.88196 633.44196 636.77191 644.55194 649.55194 652.33197 655.66193 661.22192 666.78192 672.34192 691.88684 697.44684 703.00684 706.33685 713.55682 719.11682 724.11682 727.44684 733.00684 738.56683 744.12683 760.23883 765.79883 771.35883 774.68884 781.90881 787.46881 792.46881 795.79883 801.35883 806.91882 812.47882">01-Jan-201301-Feb-201301-Mar-201301-Apr-201301-May-201301-Jun-201301-Jul-201301-Aug-201301-Sep-201301-Oct-201301-Nov-201301-Dec-2013</tspan></text>
</g><path
       inkscape:connector-curvature="0"
       id="path186"
       style="fill:none;stroke:#000000;stroke-width:0.5;stroke-linecap:butt;stroke-linejoin:miter;stroke-miterlimit:10;stroke-dasharray:16, 0;stroke-dashoffset:0;stroke-opacity:1"
       d="m 63.0438,187.964 8.2398,0" /><path
       inkscape:connector-curvature="0"
       id="path188"
       style="fill:none;stroke:#000000;stroke-width:0.5;stroke-linecap:butt;stroke-linejoin:miter;stroke-miterlimit:10;stroke-dasharray:16, 0;stroke-dashoffset:0;stroke-opacity:1"
       d="m 63.0438,210.224 8.2398,0" /><path
       inkscape:connector-curvature="0"
       id="path190"
       style="fill:none;stroke:#000000;stroke-width:0.5;stroke-linecap:butt;stroke-linejoin:miter;stroke-miterlimit:10;stroke-dasharray:16, 0;stroke-dashoffset:0;stroke-opacity:1"
       d="m 63.0438,232.483 8.2398,0" /><path
       inkscape:connector-curvature="0"
       id="path192"
       style="fill:none;stroke:#000000;stroke-width:0.5;stroke-linecap:butt;stroke-linejoin:miter;stroke-miterlimit:10;stroke-dasharray:16, 0;stroke-dashoffset:0;stroke-opacity:1"
       d="m 63.0438,254.743 8.2398,0" /><path
       inkscape:connector-curvature="0"
       id="path194"
       style="fill:none;stroke:#000000;stroke-width:0.5;stroke-linecap:butt;stroke-linejoin:miter;stroke-miterlimit:10;stroke-dasharray:16, 0;stroke-dashoffset:0;stroke-opacity:1"
       d="m 63.0438,277.002 8.2398,0" /><g
       id="g196"><text
         id="text198"
         style="font-variant:normal;font-weight:normal;font-size:10px;font-family:Helvetica;-inkscape-font-specification:Helvetica;writing-mode:lr-tb;fill:#000000;fill-opacity:1;fill-rule:nonzero;stroke:none"
         transform="matrix(1,0,0,-1,52.493,182.964)"><tspan
           id="tspan200"
           y="0"
           x="0">0</tspan><tspan
           id="tspan202"
           y="-22.2598"
           x="0">2</tspan><tspan
           id="tspan204"
           y="-44.519199"
           x="0">4</tspan><tspan
           id="tspan206"
           y="-66.778999"
           x="0">6</tspan><tspan
           id="tspan208"
           y="-89.038002"
           x="0">8</tspan></text>
<text
         y="31.454138"
         x="204.17038"
         transform="matrix(0,1,1,0,0,0)"
         style="font-variant:normal;font-weight:normal;font-size:10px;font-family:Helvetica;-inkscape-font-specification:Helvetica;writing-mode:lr-tb;fill:#000000;fill-opacity:1;fill-rule:nonzero;stroke:none"
         id="text222"><tspan
           x="204.17038"
           y="31.454138"
           sodipodi:role="line"
           id="tspan224">NH4 [µg/m<tspan
   id="tspan6478"
   style="font-size:5.19999981px;baseline-shift:super">3</tspan> ]</tspan></text>
</g><path
       inkscape:connector-curvature="0"
       id="path214"
       style="fill:#46e664;fill-opacity:0.19607843;stroke:none;stroke-width:0.5;stroke-linecap:butt;stroke-linejoin:miter;stroke-miterlimit:10;stroke-dasharray:0, 4, 4, 4, 4, 0;stroke-dashoffset:0;stroke-opacity:1"
       d="m 65.3512,187.971 15.9301,0.314 11.316,0.908 13.7327,0.311 27.356,-1.373 0,-0.105 -27.356,0.468 -13.7327,-0.097 -11.316,-0.324 -15.9301,-0.106"
       sodipodi:nodetypes="cccccccccc" /><path
       inkscape:connector-curvature="0"
       id="path218"
       style="fill:#46e664;fill-opacity:0.19607843;stroke:none;stroke-width:0.5;stroke-linecap:butt;stroke-linejoin:miter;stroke-miterlimit:10;stroke-dasharray:0, 4, 4, 4, 4, 0;stroke-dashoffset:0;stroke-opacity:1"
       d="m 161.042,189.153 13.623,-0.191 13.623,0.132 13.733,-0.616 13.623,0.212 13.733,0.146 13.623,-0.575 13.733,0.526 13.623,-0.01 13.733,-0.36 13.623,-0.391 13.623,-0.005 41.089,0.128 13.623,-0.108 13.733,0.019 13.623,0.074 13.623,-0.039 13.733,-0.053 13.623,0.011 13.733,-0.056 13.623,0.005 13.733,0.099 13.623,-0.073 13.733,0.05 13.623,0.003 13.623,-0.049 0,-0.042 -13.623,0.026 -13.623,-0.008 -13.733,-0.018 -13.623,0.021 -13.733,-0.031 -13.623,-10e-4 -13.733,0.025 -13.623,-0.01 -13.733,0.011 -13.623,0.014 -13.623,-0.021 -13.733,-0.008 -13.623,0.045 -41.089,-0.052 -13.623,0.001 -13.623,0.154 -13.733,0.158 -13.623,0.077 -13.733,-0.302 -13.623,0.189 -13.733,-0.064 -13.623,-0.022 -13.733,0.173 -13.623,-0.034 -13.623,0.105 0,0.735"
       sodipodi:nodetypes="ccccccccccccccccccccccccccccccccccccccccccccccccccccc" /><path
       inkscape:connector-curvature="0"
       id="path220"
       style="fill:#46e664;fill-opacity:0.19607843;stroke:none;stroke-width:0.5;stroke-linecap:butt;stroke-linejoin:miter;stroke-miterlimit:10;stroke-dasharray:0, 4, 4, 4, 4, 0;stroke-dashoffset:0;stroke-opacity:1"
       d="m 557.429,187.992 13.733,0.049 13.623,-0.024 13.733,0.061 13.623,0.056 13.623,-0.09 13.733,-0.055 0,-0.015 -13.733,0.021 -13.623,0.034 -13.623,-0.021 -13.733,-0.024 -13.623,0.01 -13.733,-0.019 0,0.017"
       sodipodi:nodetypes="ccccccccccccccc" /><path
       inkscape:connector-curvature="0"
       id="path222"
       style="fill:#46e664;fill-opacity:0.19607843;stroke:none;stroke-width:0.5;stroke-linecap:butt;stroke-linejoin:miter;stroke-miterlimit:10;stroke-dasharray:0, 4, 4, 4, 4, 0;stroke-dashoffset:0;stroke-opacity:1"
       d="m 666.853,188.129 13.623,0.056 13.732,-0.064 13.624,-0.025 0,-0.008 13.732,-0.061 13.624,0.093 0,-0.096 -13.624,-0.034 -13.732,0.016 0,0.003 -13.624,0.015 -13.732,0.025 -13.623,-0.028 0,0.108"
       sodipodi:nodetypes="ccccccccccccccc" /><path
       inkscape:connector-curvature="0"
       id="path224"
       style="fill:#46e664;fill-opacity:0.19607843;stroke:none;stroke-width:0.5;stroke-linecap:butt;stroke-linejoin:miter;stroke-miterlimit:10;stroke-dasharray:0, 4, 4, 4, 4, 0;stroke-dashoffset:0;stroke-opacity:1"
       d="m 789.899,188.217 13.623,0.033 18.238,1.529 9.118,-1.102 13.623,-0.039 13.733,0.157 15.931,-0.514 11.425,-0.057 0,-0.193 -11.425,0.014 -15.931,0.192 -13.733,-0.051 -13.623,0.027 -9.118,0.355 -18.238,-0.513 -13.623,-0.004 0,0.166"
       sodipodi:nodetypes="ccccccccccccccccc" /><path
       inkscape:connector-curvature="0"
       id="path226"
       style="fill:none;stroke:#46e664;stroke-width:0.5;stroke-linecap:butt;stroke-linejoin:miter;stroke-miterlimit:10;stroke-dasharray:none;stroke-opacity:1"
       d="m 65.3512,187.969 15.9301,0.21 11.316,0.616 13.7327,0.204 27.356,-0.921" /><path
       inkscape:connector-curvature="0"
       id="path228"
       style="fill:none;stroke:#46e664;stroke-width:0.5;stroke-linecap:butt;stroke-linejoin:miter;stroke-miterlimit:10;stroke-dasharray:none;stroke-opacity:1"
       d="m 161.042,188.785 13.623,-0.148 13.623,0.084 13.733,-0.395 13.623,0.117 13.733,0.105 13.623,-0.382 13.733,0.414 13.623,-0.044 13.733,-0.259 13.623,-0.272 13.623,-0.003 41.089,0.09 13.623,-0.076 13.733,0.013 13.623,0.048 13.623,-0.027 13.733,-0.032 13.623,0.011 13.733,-0.041 13.623,0.003 13.733,0.065 13.623,-0.047 13.733,0.034 13.623,0.006 13.623,-0.038" /><path
       inkscape:connector-curvature="0"
       id="path230"
       style="fill:none;stroke:#46e664;stroke-width:0.5;stroke-linecap:butt;stroke-linejoin:miter;stroke-miterlimit:10;stroke-dasharray:none;stroke-opacity:1"
       d="m 557.429,187.984 13.733,0.033 13.623,-0.016 13.733,0.042 13.623,0.039 13.623,-0.062 13.733,-0.039" /><path
       inkscape:connector-curvature="0"
       id="path232"
       style="fill:none;stroke:#46e664;stroke-width:0.5;stroke-linecap:butt;stroke-linejoin:miter;stroke-miterlimit:10;stroke-dasharray:none;stroke-opacity:1"
       d="m 666.853,188.075 13.623,0.042 13.732,-0.044 13.624,-0.02 0,-0.006 13.732,-0.038 13.624,0.063" /><path
       inkscape:connector-curvature="0"
       id="path234"
       style="fill:none;stroke:#46e664;stroke-width:0.5;stroke-linecap:butt;stroke-linejoin:miter;stroke-miterlimit:10;stroke-dasharray:none;stroke-opacity:1"
       d="m 789.899,188.134 13.623,0.019 18.238,1.021 9.118,-0.729 13.623,-0.033 13.733,0.104 15.931,-0.353 11.425,-0.035" /><g
       id="g6183"><path
         d="m 65.3512,343.845 15.9301,39.541 11.316,6.839 13.7327,5.761 27.356,-64.476 0,-10.123 -27.356,58.418 -13.7327,-5.852 -11.316,-6.026 -15.9301,-32.125 0,8.043"
         style="fill:#be3200;fill-opacity:0.19607843;stroke:none;stroke-width:0.5;stroke-linecap:butt;stroke-linejoin:miter;stroke-miterlimit:10;stroke-dasharray:0, 4, 4, 4, 4, 0;stroke-dashoffset:0;stroke-opacity:1"
         id="path112"
         inkscape:connector-curvature="0" /><path
         d="m 161.042,397.022 13.623,0.655 13.623,4.831 13.733,1.707 13.623,-33.749 13.733,30.62 13.623,-72.013 13.733,67.007 13.623,6.601 13.733,-5.811 13.623,-58.314 13.623,-11.44 41.089,51.192 13.623,-33.328 13.733,-10.392 13.623,6.319 13.623,18.848 13.733,-19.072 13.623,-0.59 13.733,-10.646 13.623,14.086 13.733,3.008 13.623,-22.827 13.733,11.958 13.623,5.008 13.623,-10.363 0,-6.841 -13.623,8.979 -13.623,-4.616 -13.733,-8.404 -13.623,18.213 -13.733,-2.118 -13.623,-12.793 -13.733,9.705 -13.623,0.559 -13.733,15.704 -13.623,-15.642 -13.623,-5.823 -13.733,9.525 -13.623,27.063 -41.089,-42.803 -13.623,9.798 -13.623,49.622 -13.733,8.001 -13.623,-8.741 -13.733,-59.106 -13.623,65.454 -13.733,-28.48 -13.623,33.244 -13.733,-2.243 -13.623,-6.548 -13.623,-0.886 0,15.882"
         style="fill:#be3200;fill-opacity:0.19607843;stroke:none;stroke-width:0.5;stroke-linecap:butt;stroke-linejoin:miter;stroke-miterlimit:10;stroke-dasharray:0, 4, 4, 4, 4, 0;stroke-dashoffset:0;stroke-opacity:1"
         id="path114"
         inkscape:connector-curvature="0" /><path
         d="m 557.429,327.333 13.733,1.253 13.623,0.099 13.733,0.534 13.623,13.531 13.623,-10.472 13.733,-6.514 0,-5.428 -13.733,4.857 -13.623,9.649 -13.623,-12.294 -13.733,-0.733 -13.623,0.234 -13.733,-0.909 0,6.193"
         style="fill:#be3200;fill-opacity:0.19607843;stroke:none;stroke-width:0.5;stroke-linecap:butt;stroke-linejoin:miter;stroke-miterlimit:10;stroke-dasharray:0, 4, 4, 4, 4, 0;stroke-dashoffset:0;stroke-opacity:1"
         id="path116"
         inkscape:connector-curvature="0" /><path
         d="m 666.853,335.784 13.623,16.627 13.732,-26.274 13.624,11.064 0,-1.616 13.732,22.754 13.624,-29.862 0,-6.801 -13.624,25.92 -13.732,-19.851 0,1.514 -13.624,-8.944 -13.732,22.784 -13.623,-14.655 0,7.34"
         style="fill:#be3200;fill-opacity:0.19607843;stroke:none;stroke-width:0.5;stroke-linecap:butt;stroke-linejoin:miter;stroke-miterlimit:10;stroke-dasharray:0, 4, 4, 4, 4, 0;stroke-dashoffset:0;stroke-opacity:1"
         id="path118"
         inkscape:connector-curvature="0" /><path
         d="m 789.899,365.143 13.623,-37.103 18.238,16.523 9.118,33.188 13.623,-34.939 13.733,-6.884 15.931,-12.261 11.425,-0.789 0,-3.88 -11.425,0.108 -15.931,6.863 -13.733,4.867 -13.623,32.218 -9.118,-31.384 -18.238,-10.503 -13.623,31.896 0,12.08"
         style="fill:#be3200;fill-opacity:0.19607843;stroke:none;stroke-width:0.5;stroke-linecap:butt;stroke-linejoin:miter;stroke-miterlimit:10;stroke-dasharray:0, 4, 4, 4, 4, 0;stroke-dashoffset:0;stroke-opacity:1"
         id="path120"
         inkscape:connector-curvature="0" /><path
         d="m 133.686,187.987 -27.356,32.81 -13.7327,-19.223 -11.316,-4.91 -15.9301,-8.587 0,0.054 15.9301,11.269 11.316,6.188 13.7327,23.913 27.356,-41.426"
         style="fill:#be3200;fill-opacity:0.19607843;stroke:none;stroke-width:0.5;stroke-linecap:butt;stroke-linejoin:miter;stroke-miterlimit:10;stroke-dasharray:0, 4, 4, 4, 4, 0;stroke-dashoffset:0;stroke-opacity:1"
         id="path238"
         inkscape:connector-curvature="0"
         sodipodi:nodetypes="cccccccccc" /><path
         d="m 161.042,217.054 13.623,-8.973 13.623,32.195 13.733,-11.774 13.623,-30.096 13.733,29.166 13.623,-39.415 13.733,44.218 13.623,18.567 13.733,-18.564 13.623,-44.152 13.623,0.003 41.089,13.599 13.623,-12.75 13.733,-0.728 13.623,0.663 13.623,1.06 13.733,0.042 13.623,0.975 13.733,-2.547 13.623,0.283 13.733,1.235 13.623,-1.799 13.733,2.122 13.623,1.79 13.623,-3.22 0,-0.586 -13.623,2.226 -13.623,-1.331 -13.733,-1.259 -13.623,1.386 -13.733,-0.843 -13.623,-0.368 -13.733,1.789 -13.623,-0.607 -13.733,0.143 -13.623,-0.863 -13.623,-0.47 -13.733,0.558 -13.623,9.727 -41.089,-10.42 -13.623,0.088 -13.623,34.914 -13.733,17.221 -13.623,-17.291 -13.733,-34.97 -13.623,32.341 -13.733,-24.537 -13.623,26.343 -13.733,9.427 -13.623,-27.481 -13.623,7.059 0,5.904"
         style="fill:#be3200;fill-opacity:0.19607843;stroke:none;stroke-width:0.5;stroke-linecap:butt;stroke-linejoin:miter;stroke-miterlimit:10;stroke-dasharray:0, 4, 4, 4, 4, 0;stroke-dashoffset:0;stroke-opacity:1"
         id="path240"
         inkscape:connector-curvature="0" /><path
         d="m 557.429,188.269 13.733,0.645 13.623,-0.289 13.733,0.839 13.623,3.611 13.623,-3.748 13.733,-1.143 0,-0.171 -13.733,0.599 -13.623,2.778 -13.623,-2.884 -13.733,-0.339 -13.623,0.115 -13.733,-0.233 0,0.22"
         style="fill:#be3200;fill-opacity:0.19607843;stroke:none;stroke-width:0.5;stroke-linecap:butt;stroke-linejoin:miter;stroke-miterlimit:10;stroke-dasharray:0, 4, 4, 4, 4, 0;stroke-dashoffset:0;stroke-opacity:1"
         id="path242"
         inkscape:connector-curvature="0" /><path
         d="m 666.853,188.942 13.623,8.34 13.732,-8.769 13.624,0.798 0,-0.195 13.732,1.152 13.624,-1.592 0,-0.499 -13.624,1.465 -13.732,-1.063 0,0.152 -13.624,-0.652 -13.732,6.624 -13.623,-6.183 0,0.422"
         style="fill:#be3200;fill-opacity:0.19607843;stroke:none;stroke-width:0.5;stroke-linecap:butt;stroke-linejoin:miter;stroke-miterlimit:10;stroke-dasharray:0, 4, 4, 4, 4, 0;stroke-dashoffset:0;stroke-opacity:1"
         id="path244"
         inkscape:connector-curvature="0" /><path
         d="m 789.899,192.063 13.623,-3.668 18.238,2.014 9.118,8.278 13.623,-9.772 13.733,0.144 15.931,-0.91 11.425,-0.017 0,-0.159 -11.425,0.004 -15.931,0.447 -13.733,0.017 -13.623,7.574 -9.118,-6.828 -18.238,-1.111 -13.623,2.919 0,1.068"
         style="fill:#be3200;fill-opacity:0.19607843;stroke:none;stroke-width:0.5;stroke-linecap:butt;stroke-linejoin:miter;stroke-miterlimit:10;stroke-dasharray:0, 4, 4, 4, 4, 0;stroke-dashoffset:0;stroke-opacity:1"
         id="path246"
         inkscape:connector-curvature="0" /></g><path
       inkscape:connector-curvature="0"
       id="path248"
       style="fill:none;stroke:#be3200;stroke-width:0.5;stroke-linecap:butt;stroke-linejoin:miter;stroke-miterlimit:10;stroke-dasharray:none;stroke-opacity:1"
       d="m 65.3512,188.104 15.9301,9.928 11.316,5.549 13.7327,21.568 27.356,-37.118" /><path
       inkscape:connector-curvature="0"
       id="path250"
       style="fill:none;stroke:#be3200;stroke-width:0.5;stroke-linecap:butt;stroke-linejoin:miter;stroke-miterlimit:10;stroke-dasharray:none;stroke-opacity:1"
       d="m 161.042,214.102 13.623,-8.016 13.623,29.838 13.733,-10.6 13.623,-28.22 13.733,26.852 13.623,-35.878 13.733,39.593 13.623,17.93 13.733,-17.893 13.623,-39.533 13.623,-0.043 41.089,12.01 13.623,-11.238 13.733,-0.644 13.623,0.567 13.623,0.961 13.733,-0.05 13.623,0.791 13.733,-2.168 13.623,0.326 13.733,1.039 13.623,-1.593 13.733,1.69 13.623,1.561 13.623,-2.723" /><path
       inkscape:connector-curvature="0"
       id="path252"
       style="fill:none;stroke:#be3200;stroke-width:0.5;stroke-linecap:butt;stroke-linejoin:miter;stroke-miterlimit:10;stroke-dasharray:none;stroke-opacity:1"
       d="m 557.429,188.159 13.733,0.439 13.623,-0.202 13.733,0.589 13.623,3.247 13.623,-3.263 13.733,-0.871" /><path
       inkscape:connector-curvature="0"
       id="path254"
       style="fill:none;stroke:#be3200;stroke-width:0.5;stroke-linecap:butt;stroke-linejoin:miter;stroke-miterlimit:10;stroke-dasharray:none;stroke-opacity:1"
       d="m 666.853,188.731 13.623,7.262 13.732,-7.697 13.624,0.725 0,-0.174 13.732,1.108 13.624,-1.528" /><path
       inkscape:connector-curvature="0"
       id="path256"
       style="fill:none;stroke:#be3200;stroke-width:0.5;stroke-linecap:butt;stroke-linejoin:miter;stroke-miterlimit:10;stroke-dasharray:none;stroke-opacity:1"
       d="m 789.899,191.529 13.623,-3.293 18.238,1.562 9.118,7.553 13.623,-8.673 13.733,0.064 15.931,-0.679 11.425,-0.01" /><path
       inkscape:connector-curvature="0"
       id="path258"
       style="fill:#0000b4;fill-opacity:0.19607843;stroke:none;stroke-width:0.5;stroke-linecap:butt;stroke-linejoin:miter;stroke-miterlimit:10;stroke-dasharray:0, 4, 4, 4, 4, 0;stroke-dashoffset:0;stroke-opacity:1"
       d="m 65.3512,188.447 15.9301,6.612 11.316,0.754 13.7327,6.934 27.356,-14.143 0,-0.062 -27.356,5.533 -13.7327,-2.229 -11.316,0.482 -15.9301,-3.934"
       sodipodi:nodetypes="cccccccccc" /><path
       inkscape:connector-curvature="0"
       id="path262"
       style="fill:#0000b4;fill-opacity:0.19607843;stroke:none;stroke-width:0.5;stroke-linecap:butt;stroke-linejoin:miter;stroke-miterlimit:10;stroke-dasharray:0, 4, 4, 4, 4, 0;stroke-dashoffset:0;stroke-opacity:1"
       d="m 161.042,197.576 13.623,-3.362 13.623,5.894 13.733,-3.768 13.623,1.568 13.733,0.622 13.623,-9.123 13.733,14.905 13.623,-1.317 13.733,1.029 13.623,-15.065 13.623,1.763 41.089,7.687 13.623,-7.417 13.733,-1.097 13.623,1.56 13.623,-0.465 13.733,4.402 13.623,3.765 13.733,-6.528 13.623,-2.126 13.733,2.774 13.623,0.055 13.733,6.205 13.623,3.095 13.623,-7.363 0,-0.586 -13.623,6.369 -13.623,-2.635 -13.733,-5.344 -13.623,-0.464 -13.733,-2.384 -13.623,2.04 -13.733,5.771 -13.623,-3.397 -13.733,-4.213 -13.623,0.668 -13.623,-1.372 -13.733,0.923 -13.623,4.394 -41.089,-4.51 -13.623,-1.668 -13.623,5.826 -13.733,-2.368 -13.623,2.592 -13.733,-5.634 -13.623,2.034 -13.733,4.02 -13.623,-5.343 -13.733,1.435 -13.623,-1.169 -13.623,1.444 0,5.878"
       sodipodi:nodetypes="ccccccccccccccccccccccccccccccccccccccccccccccccccccc" /><path
       inkscape:connector-curvature="0"
       id="path266"
       style="fill:#0000b4;fill-opacity:0.19607843;stroke:none;stroke-width:0.5;stroke-linecap:butt;stroke-linejoin:miter;stroke-miterlimit:10;stroke-dasharray:0, 4, 4, 4, 4, 0;stroke-dashoffset:0;stroke-opacity:1"
       d="m 557.429,191.083 13.733,5.264 13.623,-2.597 13.733,6.576 13.623,3.376 13.623,-7.317 13.733,-5.648 0,-0.17 -13.733,5.104 -13.623,6.347 -13.623,-2.649 -13.733,-6.076 -13.623,2.422 -13.733,-4.853"
       sodipodi:nodetypes="cccccccccccccc" /><path
       inkscape:connector-curvature="0"
       id="path274"
       style="fill:#0000b4;fill-opacity:0.19607843;stroke:none;stroke-width:0.5;stroke-linecap:butt;stroke-linejoin:miter;stroke-miterlimit:10;stroke-dasharray:0, 4, 4, 4, 4, 0;stroke-dashoffset:0;stroke-opacity:1"
       d="m 735.188,193.78 -13.624,-2.897 -13.732,2.044 0,0.215 -13.624,0.906 -13.732,9.505 -13.623,-11.473 0,0.414 13.623,13.636 13.732,-11.648 13.624,-0.763 0,-0.259 13.732,-1.952 13.624,2.769"
       sodipodi:nodetypes="cccccccccccccc" /><path
       inkscape:connector-curvature="0"
       id="path278"
       style="fill:#0000b4;fill-opacity:0.19607843;stroke:none;stroke-width:0.5;stroke-linecap:butt;stroke-linejoin:miter;stroke-miterlimit:10;stroke-dasharray:0, 4, 4, 4, 4, 0;stroke-dashoffset:0;stroke-opacity:1"
       d="m 789.899,192.756 13.623,-0.889 18.238,2.024 9.118,1.977 13.623,-5.326 13.733,2.108 15.931,-1.451 11.425,0.307 0,-0.211 -11.425,-0.329 -15.931,1.202 -13.733,-1.948 -13.623,3 -9.118,-0.122 -18.238,-1.54 -13.623,0.138 0,1.06"
       sodipodi:nodetypes="ccccccccccccccccc" /><path
       inkscape:connector-curvature="0"
       id="path282"
       style="fill:none;stroke:#0000b4;stroke-width:0.5;stroke-linecap:butt;stroke-linejoin:miter;stroke-miterlimit:10;stroke-dasharray:none;stroke-opacity:1"
       d="m 65.3512,188.42 15.9301,5.273 11.316,0.136 13.7327,4.582 27.356,-9.838" /><path
       inkscape:connector-curvature="0"
       id="path284"
       style="fill:none;stroke:#0000b4;stroke-width:0.5;stroke-linecap:butt;stroke-linejoin:miter;stroke-miterlimit:10;stroke-dasharray:none;stroke-opacity:1"
       d="m 161.042,194.637 13.623,-2.403 13.623,3.531 13.733,-2.601 13.623,3.455 13.733,-1.699 13.623,-5.578 13.733,10.269 13.623,-1.954 13.733,1.699 13.623,-10.446 13.623,1.715 41.089,6.099 13.623,-5.905 13.733,-1.01 13.623,1.465 13.623,-0.566 13.733,4.307 13.623,3.582 13.733,-6.15 13.623,-2.083 13.733,2.579 13.623,0.26 13.733,5.774 13.623,2.865 13.623,-6.866" /><path
       inkscape:connector-curvature="0"
       id="path286"
       style="fill:none;stroke:#0000b4;stroke-width:0.5;stroke-linecap:butt;stroke-linejoin:miter;stroke-miterlimit:10;stroke-dasharray:none;stroke-opacity:1"
       d="m 557.429,190.972 13.733,5.059 13.623,-2.51 13.733,6.326 13.623,3.013 13.623,-6.832 13.733,-5.376" /><path
       inkscape:connector-curvature="0"
       id="path288"
       style="fill:none;stroke:#0000b4;stroke-width:0.5;stroke-linecap:butt;stroke-linejoin:miter;stroke-miterlimit:10;stroke-dasharray:none;stroke-opacity:1"
       d="m 666.853,192.287 13.623,12.555 13.732,-10.577 13.624,-0.834" /><path
       inkscape:connector-curvature="0"
       id="path290"
       style="fill:none;stroke:#0000b4;stroke-width:0.5;stroke-linecap:butt;stroke-linejoin:miter;stroke-miterlimit:10;stroke-dasharray:none;stroke-opacity:1"
       d="m 707.832,193.193 13.732,-1.997 13.624,2.832" /><path
       inkscape:connector-curvature="0"
       id="path292"
       style="fill:none;stroke:#0000b4;stroke-width:0.5;stroke-linecap:butt;stroke-linejoin:miter;stroke-miterlimit:10;stroke-dasharray:none;stroke-opacity:1"
       d="m 789.899,192.226 13.623,-0.514 18.238,1.783 9.118,1.049 13.623,-4.163 13.733,2.028 15.931,-1.326 11.425,0.317" /><path
       inkscape:connector-curvature="0"
       id="path294"
       style="fill:none;stroke:#000000;stroke-width:0.5;stroke-linecap:butt;stroke-linejoin:miter;stroke-miterlimit:10;stroke-dasharray:4, 4;stroke-dashoffset:0;stroke-opacity:1"
       d="m 65.3512,188.565 15.9301,15.41 11.316,6.302 13.7327,26.353 27.356,-47.876 13.623,-0.466 13.733,33.308 13.623,-10.567 13.623,33.453 13.733,-13.596 13.623,-24.648 13.733,25.257 13.623,-41.838 13.733,50.277 13.623,15.931 13.733,-16.453 13.623,-50.25 13.623,1.669 41.089,18.199 13.623,-17.22 13.733,-1.641 13.623,2.08 13.623,0.369 13.733,4.225 13.623,4.383 13.733,-8.358 13.623,-1.755 13.733,3.683 13.623,-1.379 13.733,7.498 13.623,4.431 13.623,-9.626 13.733,-4.012 13.623,-0.521 13.733,5.531 13.623,-2.728 13.733,6.957 13.623,6.299 13.623,-10.157 13.733,-6.286 13.623,4.571 13.733,-2.21 13.623,19.859 13.732,-18.317 13.624,-0.13" /><path
       inkscape:connector-curvature="0"
       id="path296"
       style="fill:none;stroke:#000000;stroke-width:0.5;stroke-linecap:butt;stroke-linejoin:miter;stroke-miterlimit:10;stroke-dasharray:4, 5, 1, 6;stroke-dashoffset:0;stroke-opacity:1"
       d="m 707.832,194.16 13.732,-0.929 13.624,1.368 27.355,-6.187 13.624,0.155 13.732,7.394 13.623,-3.789 18.238,4.366 9.118,7.874 13.623,-12.869 13.733,2.196 15.931,-2.359 11.425,0.272" /><path
       style="fill:#000000;fill-opacity:1;fill-rule:nonzero;stroke:none"
       d="M 321.98438 206.22852 L 320.73438 207.13672 L 320.25781 208.60547 L 320.73438 210.07422 L 321.98438 210.98438 L 323.5293 210.98438 L 324.7793 210.07422 L 325.25781 208.60547 L 324.7793 207.13672 L 323.5293 206.22852 L 321.98438 206.22852 z M 219.45117 220.45703 L 218.20117 221.36523 L 217.72266 222.83398 L 218.20117 224.30273 L 219.45117 225.21289 L 220.99609 225.21289 L 222.24609 224.30273 L 222.72266 222.83398 L 222.24609 221.36523 L 220.99609 220.45703 L 219.45117 220.45703 z M 304.89648 226.14258 L 303.64648 227.05078 L 303.16797 228.51953 L 303.64648 229.98828 L 304.89648 230.89648 L 306.44141 230.89648 L 307.69141 229.98828 L 308.16797 228.51953 L 307.69141 227.05078 L 306.44141 226.14258 L 304.89648 226.14258 z M 339.07227 226.79492 L 337.82227 227.70312 L 337.3457 229.17188 L 337.82227 230.64062 L 339.07227 231.55078 L 340.61719 231.55078 L 341.86719 230.64062 L 342.3457 229.17188 L 341.86719 227.70312 L 340.61719 226.79492 L 339.07227 226.79492 z M 116.91797 230.27148 L 115.66797 231.17969 L 115.19141 232.65039 L 115.66797 234.11914 L 116.91797 235.02734 L 118.46289 235.02734 L 119.71289 234.11914 L 120.19141 232.65039 L 119.71289 231.17969 L 118.46289 230.27148 L 116.91797 230.27148 z M 270.7168 236.68945 L 269.4668 237.59766 L 268.99023 239.06836 L 269.4668 240.53711 L 270.7168 241.44531 L 272.26172 241.44531 L 273.51172 240.53711 L 273.99023 239.06836 L 273.51172 237.59766 L 272.26172 236.68945 L 270.7168 236.68945 z M 236.53906 237.45312 L 235.28906 238.36133 L 234.8125 239.83008 L 235.28906 241.30078 L 236.53906 242.20898 L 238.08398 242.20898 L 239.33398 241.30078 L 239.8125 239.83008 L 239.33398 238.36133 L 238.08398 237.45312 L 236.53906 237.45312 z M 185.27344 249.06445 L 184.02344 249.97266 L 183.54492 251.44141 L 184.02344 252.91211 L 185.27344 253.82031 L 186.81836 253.82031 L 188.06836 252.91211 L 188.54492 251.44141 L 188.06836 249.97266 L 186.81836 249.06445 L 185.27344 249.06445 z M 834.64844 259.78125 L 833.39844 260.68945 L 832.92188 262.1582 L 833.39844 263.62891 L 834.64844 264.53516 L 836.19531 264.53516 L 837.44531 263.62891 L 837.92188 262.1582 L 837.44531 260.68945 L 836.19531 259.78125 L 834.64844 259.78125 z M 202.36133 262.27344 L 201.11133 263.18164 L 200.63477 264.65039 L 201.11133 266.12109 L 202.36133 267.0293 L 203.90625 267.0293 L 205.15625 266.12109 L 205.63477 264.65039 L 205.15625 263.18164 L 203.90625 262.27344 L 202.36133 262.27344 z M 99.828125 263.21289 L 98.578125 264.12109 L 98.101562 265.5918 L 98.578125 267.06055 L 99.828125 267.96875 L 101.375 267.96875 L 102.625 267.06055 L 103.10156 265.5918 L 102.625 264.12109 L 101.375 263.21289 L 99.828125 263.21289 z M 424.51758 264.77148 L 423.26758 265.67969 L 422.78906 267.15039 L 423.26758 268.61914 L 424.51758 269.52734 L 426.0625 269.52734 L 427.3125 268.61914 L 427.78906 267.15039 L 427.3125 265.67969 L 426.0625 264.77148 L 424.51758 264.77148 z M 749.20508 267.00195 L 747.95508 267.91016 L 747.47656 269.37891 L 747.95508 270.84961 L 749.20508 271.75781 L 750.75 271.75781 L 752 270.84961 L 752.47656 269.37891 L 752 267.91016 L 750.75 267.00195 L 749.20508 267.00195 z M 253.62891 268.26172 L 252.37891 269.16992 L 251.90039 270.64062 L 252.37891 272.10938 L 253.62891 273.01758 L 255.17383 273.01758 L 256.42383 272.10938 L 256.90039 270.64062 L 256.42383 269.16992 L 255.17383 268.26172 L 253.62891 268.26172 z M 629.58398 269.37695 L 628.33398 270.28516 L 627.85547 271.75391 L 628.33398 273.22266 L 629.58398 274.13281 L 631.12891 274.13281 L 632.37891 273.22266 L 632.85547 271.75391 L 632.37891 270.28516 L 631.12891 269.37695 L 629.58398 269.37695 z M 1022.627 270.54492 L 1021.377 271.45312 L 1020.8984 272.92188 L 1021.377 274.39258 L 1022.627 275.30078 L 1024.1719 275.30078 L 1025.4219 274.39258 L 1025.8984 272.92188 L 1025.4219 271.45312 L 1024.1719 270.54492 L 1022.627 270.54492 z M 85.587891 271.0918 L 84.337891 271.99805 L 83.861328 273.46875 L 84.337891 274.9375 L 85.587891 275.8457 L 87.132812 275.8457 L 88.382812 274.9375 L 88.861328 273.46875 L 88.382812 271.99805 L 87.132812 271.0918 L 85.587891 271.0918 z M 527.04883 274.52734 L 525.79883 275.43555 L 525.32227 276.9043 L 525.79883 278.37305 L 527.04883 279.2832 L 528.5957 279.2832 L 529.8457 278.37305 L 530.32227 276.9043 L 529.8457 275.43555 L 528.5957 274.52734 L 527.04883 274.52734 z M 732.11523 274.87695 L 730.86523 275.7832 L 730.38867 277.25391 L 730.86523 278.72266 L 732.11523 279.63086 L 733.66016 279.63086 L 734.91016 278.72266 L 735.38867 277.25391 L 734.91016 275.7832 L 733.66016 274.87695 L 732.11523 274.87695 z M 612.49414 274.91602 L 611.24414 275.82422 L 610.76758 277.29297 L 611.24414 278.76367 L 612.49414 279.67188 L 614.03906 279.67188 L 615.28906 278.76367 L 615.76758 277.29297 L 615.28906 275.82422 L 614.03906 274.91602 L 612.49414 274.91602 z M 766.29297 279.69922 L 765.04297 280.60742 L 764.56641 282.07617 L 765.04297 283.54688 L 766.29297 284.45312 L 767.83984 284.45312 L 769.08984 283.54688 L 769.56641 282.07617 L 769.08984 280.60742 L 767.83984 279.69922 L 766.29297 279.69922 z M 509.96094 280.00586 L 508.71094 280.91406 L 508.23242 282.38281 L 508.71094 283.85352 L 509.96094 284.76172 L 511.50586 284.76172 L 512.75586 283.85352 L 513.23242 282.38281 L 512.75586 280.91406 L 511.50586 280.00586 L 509.96094 280.00586 z M 697.9375 280.16211 L 696.6875 281.07031 L 696.21094 282.53906 L 696.6875 284.00781 L 697.9375 284.91797 L 699.48242 284.91797 L 700.73242 284.00781 L 701.21094 282.53906 L 700.73242 281.07031 L 699.48242 280.16211 L 697.9375 280.16211 z M 1011.2344 280.38672 L 1009.9844 281.29688 L 1009.5078 282.76562 L 1009.9844 284.23438 L 1011.2344 285.14258 L 1012.7793 285.14258 L 1014.0293 284.23438 L 1014.5078 282.76562 L 1014.0293 281.29688 L 1012.7793 280.38672 L 1011.2344 280.38672 z M 971.35938 281.10938 L 970.10938 282.01562 L 969.63281 283.48633 L 970.10938 284.95508 L 971.35938 285.86328 L 972.90625 285.86328 L 974.15625 284.95508 L 974.63281 283.48633 L 974.15625 282.01562 L 972.90625 281.10938 L 971.35938 281.10938 z M 646.67188 281.41016 L 645.42188 282.31641 L 644.94531 283.78711 L 645.42188 285.25781 L 646.67188 286.16406 L 648.2168 286.16406 L 649.4668 285.25781 L 649.94531 283.78711 L 649.4668 282.31641 L 648.2168 281.41016 L 646.67188 281.41016 z M 800.47266 281.8418 L 799.22266 282.75 L 798.74414 284.2207 L 799.22266 285.68945 L 800.47266 286.59766 L 802.01758 286.59766 L 803.26758 285.68945 L 803.74414 284.2207 L 803.26758 282.75 L 802.01758 281.8418 L 800.47266 281.8418 z M 578.31641 282.56445 L 577.06641 283.47266 L 576.58984 284.94141 L 577.06641 286.41211 L 578.31641 287.32031 L 579.86133 287.32031 L 581.11133 286.41211 L 581.58984 284.94141 L 581.11133 283.47266 L 579.86133 282.56445 L 578.31641 282.56445 z M 851.73828 282.67773 L 850.48828 283.58398 L 850.00977 285.05469 L 850.48828 286.52539 L 851.73828 287.43164 L 853.2832 287.43164 L 854.5332 286.52539 L 855.00977 285.05469 L 854.5332 283.58398 L 853.2832 282.67773 L 851.73828 282.67773 z M 903.00391 282.81055 L 901.75391 283.71875 L 901.27734 285.18945 L 901.75391 286.6582 L 903.00391 287.56641 L 904.54883 287.56641 L 905.79883 286.6582 L 906.27734 285.18945 L 905.79883 283.71875 L 904.54883 282.81055 L 903.00391 282.81055 z M 868.82617 282.83984 L 867.57617 283.74805 L 867.09961 285.2168 L 867.18359 285.47852 L 867.09961 285.73828 L 867.57617 287.20703 L 868.82617 288.11523 L 870.37109 288.11523 L 871.62109 287.20703 L 872.09961 285.73828 L 872.01367 285.47852 L 872.09961 285.2168 L 871.91016 285.1543 L 872.09961 285.2168 L 871.62109 283.74805 L 870.37109 282.83984 L 868.82617 282.83984 z M 715.02734 283.57227 L 713.77734 284.48047 L 713.29883 285.94922 L 713.77734 287.41992 L 715.02734 288.32812 L 716.57227 288.32812 L 717.82227 287.41992 L 718.29883 285.94922 L 717.82227 284.48047 L 716.57227 283.57227 L 715.02734 283.57227 z M 1056.8047 283.88672 L 1055.5547 284.79492 L 1055.0762 286.26367 L 1055.5547 287.73438 L 1056.8047 288.64062 L 1058.3496 288.64062 L 1059.5996 287.73438 L 1060.0762 286.26367 L 1059.5996 284.79492 L 1058.3496 283.88672 L 1056.8047 283.88672 z M 595.40625 284.28906 L 594.15625 285.19727 L 593.67773 286.66602 L 594.15625 288.13672 L 595.40625 289.04297 L 596.95117 289.04297 L 598.20117 288.13672 L 598.67773 286.66602 L 598.20117 285.19727 L 596.95117 284.28906 L 595.40625 284.28906 z M 885.91602 284.52148 L 884.66602 285.42969 L 884.1875 286.89844 L 884.66602 288.36914 L 885.91602 289.27539 L 887.46094 289.27539 L 888.71094 288.36914 L 889.1875 286.89844 L 888.71094 285.42969 L 887.46094 284.52148 L 885.91602 284.52148 z M 817.56055 284.60352 L 816.31055 285.51172 L 815.83398 286.98242 L 816.31055 288.45117 L 817.56055 289.35938 L 819.10547 289.35938 L 820.35547 288.45117 L 820.83398 286.98242 L 820.35547 285.51172 L 819.10547 284.60352 L 817.56055 284.60352 z M 544.13867 284.97461 L 542.88867 285.88281 L 542.41211 287.35156 L 542.88867 288.82227 L 544.13867 289.73047 L 545.68359 289.73047 L 546.93359 288.82227 L 547.41211 287.35156 L 546.93359 285.88281 L 545.68359 284.97461 L 544.13867 284.97461 z M 492.87109 285.28711 L 491.62109 286.19531 L 491.14453 287.66406 L 491.62109 289.13281 L 492.87109 290.04297 L 494.41602 290.04297 L 495.66602 289.13281 L 496.14453 287.66406 L 495.66602 286.19531 L 494.41602 285.28711 L 492.87109 285.28711 z M 475.7832 285.74805 L 474.5332 286.65625 L 474.05469 288.12695 L 474.5332 289.5957 L 475.7832 290.50391 L 477.32812 290.50391 L 478.57812 289.5957 L 479.05469 288.12695 L 478.57812 286.65625 L 477.32812 285.74805 L 475.7832 285.74805 z M 988.44922 285.8457 L 987.19922 286.75195 L 986.72266 288.22266 L 987.19922 289.69141 L 988.44922 290.59961 L 989.99414 290.59961 L 991.24414 289.69141 L 991.72266 288.22266 L 991.24414 286.75195 L 989.99414 285.8457 L 988.44922 285.8457 z M 441.60547 286.29688 L 440.35547 287.20703 L 439.87891 288.67578 L 440.35547 290.14453 L 441.60547 291.05273 L 443.15039 291.05273 L 444.40039 290.14453 L 444.87891 288.67578 L 444.40039 287.20703 L 443.15039 286.29688 L 441.60547 286.29688 z M 663.75977 286.42383 L 662.50977 287.33203 L 662.0332 288.80273 L 662.50977 290.27148 L 663.75977 291.17969 L 665.30469 291.17969 L 666.55469 290.27148 L 667.0332 288.80273 L 666.55469 287.33203 L 665.30469 286.42383 L 663.75977 286.42383 z M 1090.9824 286.49414 L 1089.7324 287.40234 L 1089.2539 288.87305 L 1089.7324 290.3418 L 1090.9824 291.25 L 1092.5273 291.25 L 1093.7773 290.3418 L 1094.2539 288.87305 L 1093.7773 287.40234 L 1092.5273 286.49414 L 1090.9824 286.49414 z M 1039.7148 286.63086 L 1038.4648 287.53906 L 1037.9883 289.00781 L 1038.4648 290.47852 L 1039.7148 291.38672 L 1041.2598 291.38672 L 1042.5098 290.47852 L 1042.9883 289.00781 L 1042.5098 287.53906 L 1041.2598 286.63086 L 1039.7148 286.63086 z M 1076.7402 286.83398 L 1075.4902 287.74219 L 1075.0137 289.21289 L 1075.4902 290.68164 L 1076.7402 291.58984 L 1078.2852 291.58984 L 1079.5352 290.68164 L 1080.0137 289.21289 L 1079.5352 287.74219 L 1078.2852 286.83398 L 1076.7402 286.83398 z M 680.84961 287.07617 L 679.59961 287.98438 L 679.12109 289.45312 L 679.59961 290.92383 L 680.84961 291.83203 L 682.39453 291.83203 L 683.64453 290.92383 L 684.12109 289.45312 L 683.64453 287.98438 L 682.39453 287.07617 L 680.84961 287.07617 z M 561.22852 287.16797 L 559.97852 288.07812 L 559.5 289.54688 L 559.97852 291.01562 L 561.22852 291.92383 L 562.77344 291.92383 L 564.02344 291.01562 L 564.5 289.54688 L 564.02344 288.07812 L 562.77344 287.16797 L 561.22852 287.16797 z M 373.25 287.51953 L 372 288.42773 L 371.52344 289.89844 L 372 291.36719 L 373.25 292.27539 L 374.79492 292.27539 L 376.04492 291.36719 L 376.52344 289.89844 L 376.04492 288.42773 L 374.79492 287.51953 L 373.25 287.51953 z M 783.38281 287.55664 L 782.13281 288.46289 L 781.65625 289.93359 L 782.13281 291.40234 L 783.38281 292.31055 L 784.92773 292.31055 L 786.17773 291.40234 L 786.65625 289.93359 L 786.17773 288.46289 L 784.92773 287.55664 L 783.38281 287.55664 z M 458.69531 288.34766 L 457.44531 289.25586 L 456.9668 290.72656 L 457.44531 292.19531 L 458.69531 293.10352 L 460.24023 293.10352 L 461.49023 292.19531 L 461.9668 290.72656 L 461.49023 289.25586 L 460.24023 288.34766 L 458.69531 288.34766 z M 287.80469 288.98828 L 286.55469 289.89648 L 286.07812 291.36523 L 286.55469 292.83398 L 287.80469 293.74414 L 289.35156 293.74414 L 290.60156 292.83398 L 291.07812 291.36523 L 290.60156 289.89648 L 289.35156 288.98828 L 287.80469 288.98828 z M 356.16211 289.60742 L 354.91211 290.51562 L 354.43359 291.98438 L 354.91211 293.45508 L 356.16211 294.36328 L 357.70703 294.36328 L 358.95703 293.45508 L 359.43359 291.98438 L 358.95703 290.51562 L 357.70703 289.60742 L 356.16211 289.60742 z M 151.0957 290.11719 L 149.8457 291.02539 L 149.36719 292.49414 L 149.8457 293.96289 L 151.0957 294.87305 L 152.64062 294.87305 L 153.89062 293.96289 L 154.36719 292.49414 L 153.89062 291.02539 L 152.64062 290.11719 L 151.0957 290.11719 z M 65.650391 290.35156 L 64.400391 291.26172 L 63.923828 292.73047 L 64.400391 294.19922 L 65.650391 295.10938 L 67.195312 295.10938 L 68.445312 294.19922 L 68.923828 292.73047 L 68.445312 291.26172 L 67.195312 290.35156 L 65.650391 290.35156 z M 954.27148 290.35156 L 953.02148 291.25977 L 952.54297 292.72852 L 953.02148 294.19922 L 954.27148 295.10547 L 955.81641 295.10547 L 957.06641 294.19922 L 957.54297 292.72852 L 957.06641 291.25977 L 955.81641 290.35156 L 954.27148 290.35156 z M 937.18164 290.54492 L 935.93164 291.45312 L 935.45508 292.92188 L 935.93164 294.39062 L 937.18164 295.30078 L 938.72656 295.30078 L 939.97656 294.39062 L 940.45508 292.92188 L 939.97656 291.45312 L 938.72656 290.54492 L 937.18164 290.54492 z M 168.18359 290.69922 L 166.93359 291.60742 L 166.45703 293.07812 L 166.93359 294.54688 L 168.18359 295.45508 L 169.72852 295.45508 L 170.97852 294.54688 L 171.45703 293.07812 L 170.97852 291.60742 L 169.72852 290.69922 L 168.18359 290.69922 z "
       transform="matrix(0.8,0,0,-0.8,12.139477,422.74985)"
       id="path298" /><path
       inkscape:connector-curvature="0"
       id="path1262"
       style="fill:none;stroke:#000000;stroke-width:0.5;stroke-linecap:butt;stroke-linejoin:miter;stroke-miterlimit:10;stroke-dasharray:16, 0;stroke-dashoffset:0;stroke-opacity:1"
       d="m 63.0438,57.1602 827.0512,0" /><path
       inkscape:connector-curvature="0"
       id="path1264"
       style="fill:none;stroke:#000000;stroke-width:0.5;stroke-linecap:butt;stroke-linejoin:miter;stroke-miterlimit:10;stroke-dasharray:16, 0;stroke-dashoffset:0;stroke-opacity:1"
       d="m 63.0438,57.1602 0,89.0378" /><path
       inkscape:connector-curvature="0"
       id="path1266"
       style="fill:none;stroke:#000000;stroke-width:0.5;stroke-linecap:butt;stroke-linejoin:miter;stroke-miterlimit:10;stroke-dasharray:16, 0;stroke-dashoffset:0;stroke-opacity:1"
       d="m 65.3512,57.1602 0,8.2742" /><path
       inkscape:connector-curvature="0"
       id="path1268"
       style="fill:none;stroke:#000000;stroke-width:0.5;stroke-linecap:butt;stroke-linejoin:miter;stroke-miterlimit:10;stroke-dasharray:16, 0;stroke-dashoffset:0;stroke-opacity:1"
       d="m 135.883,57.1602 0,8.2742" /><path
       inkscape:connector-curvature="0"
       id="path1270"
       style="fill:none;stroke:#000000;stroke-width:0.5;stroke-linecap:butt;stroke-linejoin:miter;stroke-miterlimit:10;stroke-dasharray:16, 0;stroke-dashoffset:0;stroke-opacity:1"
       d="m 199.714,57.1602 0,8.2742" /><path
       inkscape:connector-curvature="0"
       id="path1272"
       style="fill:none;stroke:#000000;stroke-width:0.5;stroke-linecap:butt;stroke-linejoin:miter;stroke-miterlimit:10;stroke-dasharray:16, 0;stroke-dashoffset:0;stroke-opacity:1"
       d="m 270.356,57.1602 0,8.2742" /><path
       inkscape:connector-curvature="0"
       id="path1274"
       style="fill:none;stroke:#000000;stroke-width:0.5;stroke-linecap:butt;stroke-linejoin:miter;stroke-miterlimit:10;stroke-dasharray:16, 0;stroke-dashoffset:0;stroke-opacity:1"
       d="m 338.691,57.1602 0,8.2742" /><path
       inkscape:connector-curvature="0"
       id="path1276"
       style="fill:none;stroke:#000000;stroke-width:0.5;stroke-linecap:butt;stroke-linejoin:miter;stroke-miterlimit:10;stroke-dasharray:16, 0;stroke-dashoffset:0;stroke-opacity:1"
       d="m 409.333,57.1602 0,8.2742" /><path
       inkscape:connector-curvature="0"
       id="path1278"
       style="fill:none;stroke:#000000;stroke-width:0.5;stroke-linecap:butt;stroke-linejoin:miter;stroke-miterlimit:10;stroke-dasharray:16, 0;stroke-dashoffset:0;stroke-opacity:1"
       d="m 477.668,57.1602 0,8.2742" /><path
       inkscape:connector-curvature="0"
       id="path1280"
       style="fill:none;stroke:#000000;stroke-width:0.5;stroke-linecap:butt;stroke-linejoin:miter;stroke-miterlimit:10;stroke-dasharray:16, 0;stroke-dashoffset:0;stroke-opacity:1"
       d="m 548.31,57.1602 0,8.2742" /><path
       inkscape:connector-curvature="0"
       id="path1282"
       style="fill:none;stroke:#000000;stroke-width:0.5;stroke-linecap:butt;stroke-linejoin:miter;stroke-miterlimit:10;stroke-dasharray:16, 0;stroke-dashoffset:0;stroke-opacity:1"
       d="m 618.952,57.1602 0,8.2742" /><path
       inkscape:connector-curvature="0"
       id="path1284"
       style="fill:none;stroke:#000000;stroke-width:0.5;stroke-linecap:butt;stroke-linejoin:miter;stroke-miterlimit:10;stroke-dasharray:16, 0;stroke-dashoffset:0;stroke-opacity:1"
       d="m 687.287,57.1602 0,8.2742" /><path
       inkscape:connector-curvature="0"
       id="path1286"
       style="fill:none;stroke:#000000;stroke-width:0.5;stroke-linecap:butt;stroke-linejoin:miter;stroke-miterlimit:10;stroke-dasharray:16, 0;stroke-dashoffset:0;stroke-opacity:1"
       d="m 757.929,57.1602 0,8.2742" /><path
       inkscape:connector-curvature="0"
       id="path1288"
       style="fill:none;stroke:#000000;stroke-width:0.5;stroke-linecap:butt;stroke-linejoin:miter;stroke-miterlimit:10;stroke-dasharray:16, 0;stroke-dashoffset:0;stroke-opacity:1"
       d="m 826.374,57.1602 0,8.2742" /><g
       id="g1290"><text
         id="text1292"
         style="font-variant:normal;font-weight:normal;font-size:10px;font-family:Helvetica;-inkscape-font-specification:Helvetica;writing-mode:lr-tb;fill:#000000;fill-opacity:1;fill-rule:nonzero;stroke:none"
         transform="matrix(1,0,0,-1,37.2535,42.1578)"><tspan
           id="tspan1294"
           sodipodi:role="line"
           y="0"
           x="0 5.5599999 11.12 14.45 19.450001 25.01 30.57 33.900002 39.459999 45.02 50.580002 70.119904 75.679901 81.239899 84.569901 90.679901 96.239899 101.7999 105.1299 110.6899 116.2499 121.8099 133.93474 139.49474 145.05473 148.38474 156.71474 162.27473 165.60474 168.93474 174.49474 180.05473 185.61475 205.33864 210.89864 216.45863 219.78864 226.45863 232.01865 235.34863 238.67863 244.23865 249.79865 255.35864 272.02695 277.58694 283.14694 286.47693 294.80695 300.36694 305.36694 308.69693 314.25693 319.81693 325.37695 344.08673 349.64673 355.20673 358.53674 363.53674 369.09674 374.65674 377.98672 383.54675 389.10675 394.66675 414.10983 419.66983 425.22983 428.55984 433.55984 439.11984 441.33984 444.66983 450.22983 455.78983 461.34985 482.17896 487.73895 493.29895 496.62894 503.29895 508.85895 514.41895 517.74896 523.30896 528.86896 534.42896 552.85394 558.41394 563.97394 567.30396 573.97394 579.53394 585.09393 588.42395 593.98395 599.54395 605.10394 622.32196 627.88196 633.44196 636.77191 644.55194 649.55194 652.33197 655.66193 661.22192 666.78192 672.34192 691.88684 697.44684 703.00684 706.33685 713.55682 719.11682 724.11682 727.44684 733.00684 738.56683 744.12683 760.23883 765.79883 771.35883 774.68884 781.90881 787.46881 792.46881 795.79883 801.35883 806.91882 812.47882">01-Jan-201301-Feb-201301-Mar-201301-Apr-201301-May-201301-Jun-201301-Jul-201301-Aug-201301-Sep-201301-Oct-201301-Nov-201301-Dec-2013</tspan></text>
</g><path
       inkscape:connector-curvature="0"
       id="path1296"
       style="fill:none;stroke:#000000;stroke-width:0.5;stroke-linecap:butt;stroke-linejoin:miter;stroke-miterlimit:10;stroke-dasharray:16, 0;stroke-dashoffset:0;stroke-opacity:1"
       d="m 63.0438,57.1602 8.2398,0" /><path
       inkscape:connector-curvature="0"
       id="path1298"
       style="fill:none;stroke:#000000;stroke-width:0.5;stroke-linecap:butt;stroke-linejoin:miter;stroke-miterlimit:10;stroke-dasharray:16, 0;stroke-dashoffset:0;stroke-opacity:1"
       d="m 63.0438,73.3488 8.2398,0" /><path
       inkscape:connector-curvature="0"
       id="path1300"
       style="fill:none;stroke:#000000;stroke-width:0.5;stroke-linecap:butt;stroke-linejoin:miter;stroke-miterlimit:10;stroke-dasharray:16, 0;stroke-dashoffset:0;stroke-opacity:1"
       d="m 63.0438,89.5375 8.2398,0" /><path
       inkscape:connector-curvature="0"
       id="path1302"
       style="fill:none;stroke:#000000;stroke-width:0.5;stroke-linecap:butt;stroke-linejoin:miter;stroke-miterlimit:10;stroke-dasharray:16, 0;stroke-dashoffset:0;stroke-opacity:1"
       d="m 63.0438,105.726 8.2398,0" /><path
       inkscape:connector-curvature="0"
       id="path1304"
       style="fill:none;stroke:#000000;stroke-width:0.5;stroke-linecap:butt;stroke-linejoin:miter;stroke-miterlimit:10;stroke-dasharray:16, 0;stroke-dashoffset:0;stroke-opacity:1"
       d="m 63.0438,121.915 8.2398,0" /><path
       inkscape:connector-curvature="0"
       id="path1306"
       style="fill:none;stroke:#000000;stroke-width:0.5;stroke-linecap:butt;stroke-linejoin:miter;stroke-miterlimit:10;stroke-dasharray:16, 0;stroke-dashoffset:0;stroke-opacity:1"
       d="m 63.0438,138.104 8.2398,0" /><g
       id="g1308"><text
         id="text1310"
         style="font-variant:normal;font-weight:normal;font-size:10px;font-family:Helvetica;-inkscape-font-specification:Helvetica;writing-mode:lr-tb;fill:#000000;fill-opacity:1;fill-rule:nonzero;stroke:none"
         transform="matrix(1,0,0,-1,43.6035,52.1602)"><tspan
           id="tspan1312"
           sodipodi:role="line"
           y="0"
           x="0 3.3299999 8.8900003">-50</tspan><tspan
           id="tspan1314"
           sodipodi:role="line"
           y="-16.1887"
           x="0 3.3299999 8.8900003">-40</tspan><tspan
           id="tspan1316"
           sodipodi:role="line"
           y="-32.377399"
           x="0 3.3299999 8.8900003">-30</tspan><tspan
           id="tspan1318"
           sodipodi:role="line"
           y="-48.566101"
           x="0 3.3299999 8.8900003">-20</tspan><tspan
           id="tspan1320"
           sodipodi:role="line"
           y="-64.754799"
           x="0 3.3299999 8.8900003">-10</tspan><tspan
           id="tspan1322"
           y="-80.943901"
           x="8.8894501">0</tspan></text>
<text
         y="30.105061"
         x="80.769173"
         transform="matrix(0,1,1,0,0,0)"
         style="font-variant:normal;font-weight:normal;font-size:10px;font-family:Helvetica;-inkscape-font-specification:Helvetica;writing-mode:lr-tb;fill:#000000;fill-opacity:1;fill-rule:nonzero;stroke:none"
         id="text1330"><tspan
           y="30.105061"
           x="80.769173"
           id="tspan6474"
           sodipodi:role="line">δ<tspan
   id="tspan6476"
   style="font-size:5.19999981px;baseline-shift:super">15</tspan> N [‰]</tspan></text>
</g><path
       inkscape:connector-curvature="0"
       id="path1328"
       style="fill:#1f77b4;fill-opacity:0.19607843;stroke:none;stroke-width:0.5;stroke-linecap:butt;stroke-linejoin:miter;stroke-miterlimit:10;stroke-dasharray:0, 4, 4, 4, 4, 0;stroke-dashoffset:0;stroke-opacity:1"
       d="m 65.3512,116.619 15.9301,-23.5577 11.316,-5.5109 13.7327,-3.4992 27.356,35.2418 0,-1.028 -27.356,-35.242 -13.7327,3.4997 -11.316,5.5109 -15.9301,23.5574 0,1.028" /><path
       inkscape:connector-curvature="0"
       id="path1330"
       style="fill:#1f77b4;fill-opacity:0.19607843;stroke:none;stroke-width:0.5;stroke-linecap:butt;stroke-linejoin:miter;stroke-miterlimit:10;stroke-dasharray:0, 4, 4, 4, 4, 0;stroke-dashoffset:0;stroke-opacity:1"
       d="m 161.042,82.9004 13.623,-0.9289 13.623,-4.568 13.733,-1.7254 13.623,24.3819 13.733,-20.4612 13.623,42.0932 13.733,-37.1072 13.623,-6.7637 13.733,6.4883 13.623,34.4456 13.623,8.277 41.089,-30.6019 13.623,19.2789 13.733,5.73 13.623,-3.806 13.623,-9.633 13.733,10.665 13.623,0.44 13.733,6.729 13.623,-9.028 13.733,-0.684 13.623,14.091 13.733,-7.024 13.623,-3.071 13.623,5.087 13.733,17.864 13.623,-15.849 13.733,-0.879 13.623,1.373 13.733,-1.789 13.623,-8.53 13.623,6.561 13.733,4.465 0,-1.028 -13.733,-4.465 -13.623,-6.561 -13.623,8.53 -13.733,-0.636 -13.623,1.052 -13.733,0.879 -13.623,15.849 -13.733,-17.864 -13.623,-7.512 -13.623,3.071 -13.733,9.449 -13.623,-16.515 -13.733,3.108 -13.623,9.028 -13.733,-6.729 -13.623,-0.44 -13.733,-13.09 -13.623,12.058 -13.623,3.806 -13.733,-5.73 L 352.424,95.4023 311.335,126.004 297.712,117.727 284.089,83.2813 270.356,76.7934 256.733,83.5566 243,120.664 229.377,78.5711 215.644,99.032 202.021,74.65 l -13.733,1.7254 -13.623,4.568 -13.623,0.9289 0,1.0281" /><path
       inkscape:connector-curvature="0"
       id="path1332"
       style="fill:#1f77b4;fill-opacity:0.19607843;stroke:none;stroke-width:0.5;stroke-linecap:butt;stroke-linejoin:miter;stroke-miterlimit:10;stroke-dasharray:0, 4, 4, 4, 4, 0;stroke-dashoffset:0;stroke-opacity:1"
       d="m 666.853,121.03 13.623,-9.452 13.732,17.56 13.624,-7.253 0,1.021 13.732,-13.618 13.624,18.08 0,-3.453 -13.624,-18.08 -13.732,13.618 0,-1.021 -13.624,7.253 -13.732,-15.135 -13.623,9.452 0,1.028" /><path
       inkscape:connector-curvature="0"
       id="path1334"
       style="fill:#1f77b4;fill-opacity:0.19607843;stroke:none;stroke-width:0.5;stroke-linecap:butt;stroke-linejoin:miter;stroke-miterlimit:10;stroke-dasharray:0, 4, 4, 4, 4, 0;stroke-dashoffset:0;stroke-opacity:1"
       d="m 789.899,104.702 13.623,21.763 18.238,-13.736 9.118,-15.7509 13.623,17.3389 13.733,5.23 15.931,10.306 11.425,1.499 0,-3.453 -11.425,-1.498 -15.931,-10.307 -13.733,-5.229 -13.623,-17.34 -9.118,15.751 -18.238,13.736 -13.623,-21.763 0,3.453" /><path
       inkscape:connector-curvature="0"
       id="path1336"
       style="fill:none;stroke:#1f77b4;stroke-width:0.5;stroke-linecap:butt;stroke-linejoin:miter;stroke-miterlimit:10;stroke-dasharray:none;stroke-opacity:1"
       d="m 65.3512,116.105 15.9301,-23.5577 11.316,-5.511 13.7327,-3.4992 27.356,35.2419" /><path
       inkscape:connector-curvature="0"
       id="path1338"
       style="fill:none;stroke:#1f77b4;stroke-width:0.5;stroke-linecap:butt;stroke-linejoin:miter;stroke-miterlimit:10;stroke-dasharray:none;stroke-opacity:1"
       d="m 161.042,82.3863 13.623,-0.9289 13.623,-4.5679 13.733,-1.7254 13.623,24.382 13.733,-20.4613 13.623,42.0932 13.733,-37.1073 13.623,-6.7637 13.733,6.4883 13.623,34.4457 13.623,8.277 41.089,-30.602 13.623,19.279 13.733,5.73 13.623,-3.806 13.623,-10.845 13.733,11.877 13.623,0.44 13.733,6.729 13.623,-9.028 13.733,-1.896 13.623,15.303 13.733,-8.237 13.623,-3.071 13.623,6.3 13.733,17.864 13.623,-15.849 13.733,-0.879 13.623,0.161 13.733,-0.577 13.623,-8.53 13.623,6.561 13.733,4.465" /><path
       inkscape:connector-curvature="0"
       id="path1340"
       style="fill:none;stroke:#1f77b4;stroke-width:0.5;stroke-linecap:butt;stroke-linejoin:miter;stroke-miterlimit:10;stroke-dasharray:none;stroke-opacity:1"
       d="m 666.853,120.516 13.623,-9.452 13.732,16.348 13.624,-7.253 0,1.02 13.732,-13.617 13.624,18.08" /><path
       inkscape:connector-curvature="0"
       id="path1342"
       style="fill:none;stroke:#1f77b4;stroke-width:0.5;stroke-linecap:butt;stroke-linejoin:miter;stroke-miterlimit:10;stroke-dasharray:none;stroke-opacity:1"
       d="m 789.899,102.975 13.623,21.764 18.238,-13.737 9.118,-15.7504 13.623,17.3394 13.733,5.229 15.931,10.307 11.425,1.498" /><path
       inkscape:connector-curvature="0"
       id="path1344"
       style="fill:#ff7f0e;fill-opacity:0.19607843;stroke:none;stroke-width:0.5;stroke-linecap:butt;stroke-linejoin:miter;stroke-miterlimit:10;stroke-dasharray:0, 4, 4, 4, 4, 0;stroke-dashoffset:0;stroke-opacity:1"
       d="m 65.3512,118.403 15.9301,-21.8925 11.316,-4.9285 13.7327,-2.6648 27.356,31.5138 0,-3.927 -27.356,-39.6087 -13.7327,3.6449 -11.316,5.9739 -15.9301,26.7979 0,5.091" /><path
       inkscape:connector-curvature="0"
       id="path1346"
       style="fill:#ff7f0e;fill-opacity:0.19607843;stroke:none;stroke-width:0.5;stroke-linecap:butt;stroke-linejoin:miter;stroke-miterlimit:10;stroke-dasharray:0, 4, 4, 4, 4, 0;stroke-dashoffset:0;stroke-opacity:1"
       d="m 161.042,88.0703 13.623,-0.6785 13.623,-2.5984 13.733,-0.9262 13.623,18.9448 13.733,-16.8616 13.623,36.7806 13.733,-33.3673 13.623,-4.3492 13.733,4.1714 13.623,31.2281 13.623,8.046 41.089,-28.8834 13.623,17.9264 13.733,5.598 13.623,-3.77 13.623,-10.272 13.733,11.347 13.623,0.426 13.733,6.671 13.623,-8.916 13.733,-1.848 13.623,13.678 13.733,-6.731 13.623,-3.045 13.623,6.262 0,-4.471 -13.623,-6.638 -13.623,3.314 -13.733,6.769 -13.623,-14.425 -13.733,2.069 -13.623,9.508 -13.733,-7.023 -13.623,-0.462 -13.733,-13.216 -13.623,12.202 -13.623,4.117 -13.733,-6.314 -13.623,-22.0217 -41.089,33.6937 -13.623,-8.209 -13.623,-38.7659 -13.733,-5.343 -13.623,5.652 L 243,118.721 229.377,72.9645 215.644,94.668 202.021,70.2059 l -13.733,1.2652 -13.623,3.5707 -13.623,0.8078 0,12.2207" /><path
       inkscape:connector-curvature="0"
       id="path1348"
       style="fill:#ff7f0e;fill-opacity:0.19607843;stroke:none;stroke-width:0.5;stroke-linecap:butt;stroke-linejoin:miter;stroke-miterlimit:10;stroke-dasharray:0, 4, 4, 4, 4, 0;stroke-dashoffset:0;stroke-opacity:1"
       d="m 557.429,128.701 13.733,-0.734 13.623,0.046 13.733,-0.428 13.623,-8.42 13.623,6.51 13.733,3.836 0,-4.507 -13.733,-3.82 -13.623,-7.03 -13.623,8.961 -13.733,0.424 -13.623,-0.045 -13.733,0.722 0,4.485" /><path
       inkscape:connector-curvature="0"
       id="path1350"
       style="fill:#ff7f0e;fill-opacity:0.19607843;stroke:none;stroke-width:0.5;stroke-linecap:butt;stroke-linejoin:miter;stroke-miterlimit:10;stroke-dasharray:0, 4, 4, 4, 4, 0;stroke-dashoffset:0;stroke-opacity:1"
       d="m 666.853,122.708 13.623,-9.114 13.732,15.301 13.624,-6.526 0,1.018 13.732,-13.084 13.624,17.323 0,-4.429 -13.624,-19.474 -13.732,15.119 0,-1.088 -13.624,6.683 -13.732,-16.768 -13.623,10.507 0,4.532" /><path
       inkscape:connector-curvature="0"
       id="path1352"
       style="fill:#ff7f0e;fill-opacity:0.19607843;stroke:none;stroke-width:0.5;stroke-linecap:butt;stroke-linejoin:miter;stroke-miterlimit:10;stroke-dasharray:0, 4, 4, 4, 4, 0;stroke-dashoffset:0;stroke-opacity:1"
       d="m 789.899,105.99 13.623,20.551 18.238,-13.493 9.118,-14.1765 13.623,15.7595 13.733,5.199 15.931,8.253 11.425,0.992 0,-4.4 -11.425,-0.915 -15.931,-8.139 -13.733,-5.483 -13.623,-20.4052 -9.118,18.7462 -18.238,13.753 -13.623,-23.6582 0,7.4162" /><path
       inkscape:connector-curvature="0"
       id="path1354"
       style="fill:none;stroke:#ff7f0e;stroke-width:0.5;stroke-linecap:butt;stroke-linejoin:miter;stroke-miterlimit:10;stroke-dasharray:none;stroke-opacity:1"
       d="m 65.3512,115.858 15.9301,-24.3459 11.316,-5.4508 13.7327,-3.155 27.356,35.5607" /><path
       inkscape:connector-curvature="0"
       id="path1356"
       style="fill:none;stroke:#ff7f0e;stroke-width:0.5;stroke-linecap:butt;stroke-linejoin:miter;stroke-miterlimit:10;stroke-dasharray:none;stroke-opacity:1"
       d="m 161.042,81.9602 13.623,-0.7434 13.623,-3.0848 13.733,-1.0957 13.623,21.7039 13.733,-19.2828 13.623,41.2686 13.733,-37.3744 13.623,-5.0008 13.733,4.757 13.623,34.9972 13.623,8.127 41.089,-31.2879 13.623,19.9739 13.733,5.956 13.623,-3.944 13.623,-11.237 13.733,12.282 13.623,0.444 13.733,6.847 13.623,-9.212 13.733,-1.959 13.623,14.052 13.733,-6.75 13.623,-3.18 13.623,6.45" /><path
       inkscape:connector-curvature="0"
       id="path1358"
       style="fill:none;stroke:#ff7f0e;stroke-width:0.5;stroke-linecap:butt;stroke-linejoin:miter;stroke-miterlimit:10;stroke-dasharray:none;stroke-opacity:1"
       d="m 557.429,126.458 13.733,-0.728 13.623,0.046 13.733,-0.426 13.623,-8.69 13.623,6.77 13.733,3.827" /><path
       inkscape:connector-curvature="0"
       id="path1360"
       style="fill:none;stroke:#ff7f0e;stroke-width:0.5;stroke-linecap:butt;stroke-linejoin:miter;stroke-miterlimit:10;stroke-dasharray:none;stroke-opacity:1"
       d="m 666.853,120.442 13.623,-9.811 13.732,16.035 13.624,-6.604 0,1.052 13.732,-14.101 13.624,18.398" /><path
       inkscape:connector-curvature="0"
       id="path1362"
       style="fill:none;stroke:#ff7f0e;stroke-width:0.5;stroke-linecap:butt;stroke-linejoin:miter;stroke-miterlimit:10;stroke-dasharray:none;stroke-opacity:1"
       d="m 789.899,102.282 13.623,22.105 18.238,-13.624 9.118,-16.4607 13.623,18.0817 13.733,5.342 15.931,8.196 11.425,0.953" /><g
       transform="translate(-26.604291,19.35733)"
       id="g6338"><g
         id="g1236"><text
           id="text1238"
           style="font-variant:normal;font-weight:normal;font-size:10px;font-family:Helvetica;-inkscape-font-specification:Helvetica;writing-mode:lr-tb;fill:#000000;fill-opacity:1;fill-rule:nonzero;stroke:none"
           transform="matrix(1,0,0,-1,853.173,264.159)"><tspan
             id="tspan1240"
             sodipodi:role="line"
             y="0"
             x="0 6.6700001 8.8900003 14.45 22.780001 28.34 33.34">Biomass</tspan><tspan
             id="tspan1242"
             sodipodi:role="line"
             y="9.8417997"
             x="0 6.6700001 12.23 15.56">Agri</tspan><tspan
             id="tspan1244"
             sodipodi:role="line"
             y="19.683599"
             x="0 6.6700001 12.23 17.790001 20.01 25.01 27.23">Vehicle</tspan><tspan
             id="tspan1246"
             sodipodi:role="line"
             y="29.5254"
             x="0 6.1100001 11.67 14.45 20.01 22.23 25.01 32.23 39.450001">Total NH4</tspan></text>
</g><path
         inkscape:connector-curvature="0"
         id="path1248-3"
         style="fill:none;stroke:#46e664;stroke-width:0.5;stroke-linecap:butt;stroke-linejoin:miter;stroke-miterlimit:10;stroke-dasharray:none;stroke-opacity:1"
         d="m 837.464,269.159 13.861,0" /><path
         inkscape:connector-curvature="0"
         id="path1250-6"
         style="fill:none;stroke:#be3200;stroke-width:0.5;stroke-linecap:butt;stroke-linejoin:miter;stroke-miterlimit:10;stroke-dasharray:none;stroke-opacity:1"
         d="m 837.464,259.317 13.861,0" /><path
         inkscape:connector-curvature="0"
         id="path1252-7"
         style="fill:none;stroke:#0000b4;stroke-width:0.5;stroke-linecap:butt;stroke-linejoin:miter;stroke-miterlimit:10;stroke-dasharray:none;stroke-opacity:1"
         d="m 837.464,249.475 13.861,0" /><g
         id="g6470"><path
           inkscape:connector-curvature="0"
           style="fill:#000000;fill-opacity:1;fill-rule:nonzero;stroke:none"
           d="m 843.77656,241.53438 -1,-0.72656 -0.3828,-1.175 0.3828,-1.17657 1,-0.725 1.23592,0 1,0.725 0.38128,1.17657 -0.38128,1.175 -1,0.72656 -1.23592,0 z"
           id="path6463" /><path
           d="m 837.464,239.633 13.861,0"
           style="fill:none;stroke:#000000;stroke-width:0.5;stroke-linecap:butt;stroke-linejoin:miter;stroke-miterlimit:10;stroke-dasharray:1.5, 1.5;stroke-dashoffset:0;stroke-opacity:1"
           id="path1254-5"
           inkscape:connector-curvature="0" /></g><path
         d="m 851.325,270.759 -13.861,0 0,-3.2 13.861,0"
         style="fill:#46e664;fill-opacity:0.25882353;stroke:none;stroke-width:0.5;stroke-linecap:butt;stroke-linejoin:miter;stroke-miterlimit:10;stroke-dasharray:none;stroke-opacity:1"
         id="path6219"
         inkscape:connector-curvature="0"
         sodipodi:nodetypes="cccc" /><path
         d="m 851.325,260.917 -13.861,0 0,-3.2 13.861,0"
         style="fill:#be3200;fill-opacity:0.25882353;stroke:none;stroke-width:0.5;stroke-linecap:butt;stroke-linejoin:miter;stroke-miterlimit:10;stroke-dasharray:none;stroke-opacity:1"
         id="path6223"
         inkscape:connector-curvature="0"
         sodipodi:nodetypes="cccc" /><path
         inkscape:connector-curvature="0"
         id="path6229"
         style="fill:#0000b4;fill-opacity:0.25882353;stroke:none;stroke-width:0.5;stroke-linecap:butt;stroke-linejoin:miter;stroke-miterlimit:10;stroke-dasharray:none;stroke-opacity:1"
         d="m 851.325,247.875 -13.861,0 0,3.2 13.861,0"
         sodipodi:nodetypes="cccc" /></g><g
       transform="translate(-39.019442,5.1417434)"
       id="g6320"><g
         id="g6291"><g
           transform="translate(0,3.2)"
           id="g6283"><path
             d="m 788.3305,152.2 -13.861,0 0,-3.2 13.861,0"
             style="fill:#1f77b4;fill-opacity:0.25882353;stroke:none;stroke-width:0.5;stroke-linecap:butt;stroke-linejoin:miter;stroke-miterlimit:10;stroke-dasharray:none;stroke-opacity:1"
             id="path6223-1"
             inkscape:connector-curvature="0"
             sodipodi:nodetypes="cccc" /><path
             inkscape:connector-curvature="0"
             id="path1250-5"
             style="fill:none;stroke:#1f77b4;stroke-width:0.5;stroke-linecap:butt;stroke-linejoin:miter;stroke-miterlimit:10;stroke-dasharray:none;stroke-opacity:1"
             d="m 774.4695,150.6 13.861,0" /></g><text
           transform="scale(1,-1)"
           sodipodi:linespacing="125%"
           id="text6255"
           y="-149.90665"
           x="791.21655"
           style="color:#000000;font-size:16px;line-height:125%;text-align:start;letter-spacing:0px;word-spacing:0px;text-anchor:start;clip-rule:nonzero;display:inline;overflow:visible;visibility:visible;opacity:1;isolation:auto;mix-blend-mode:normal;color-interpolation:sRGB;color-interpolation-filters:linearRGB;solid-color:#000000;solid-opacity:1;fill:#000000;fill-opacity:1;fill-rule:nonzero;stroke:none;stroke-width:1px;stroke-linecap:butt;stroke-linejoin:miter;stroke-miterlimit:4;stroke-dasharray:none;stroke-dashoffset:0;stroke-opacity:1;color-rendering:auto;image-rendering:auto;shape-rendering:auto;text-rendering:auto;enable-background:accumulate"
           xml:space="preserve"><tspan
             style="font-size:10px"
             y="-149.90665"
             x="791.21655"
             id="tspan6259"
             sodipodi:role="line">δ<tspan
   id="tspan6261"
   style="font-size:8px;baseline-shift:super">15</tspan>N Obs &amp; reconstructed</tspan></text>
</g><g
         transform="translate(0,4.8)"
         id="g6299"><g
           transform="translate(0,-4.8)"
           id="g6287"><path
             sodipodi:nodetypes="cccc"
             inkscape:connector-curvature="0"
             id="path6251"
             style="fill:#ff7f0e;fill-opacity:0.25882353;stroke:none;stroke-width:0.5;stroke-linecap:butt;stroke-linejoin:miter;stroke-miterlimit:10;stroke-dasharray:none;stroke-opacity:1"
             d="m 788.3305,141 -13.861,0 0,-3.2 13.861,0" /><path
             d="m 774.4695,139.4 13.861,0"
             style="fill:none;stroke:#ff7f0e;stroke-width:0.5;stroke-linecap:butt;stroke-linejoin:miter;stroke-miterlimit:10;stroke-dasharray:none;stroke-opacity:1"
             id="path6253"
             inkscape:connector-curvature="0" /></g><text
           xml:space="preserve"
           style="color:#000000;font-size:16px;line-height:125%;text-align:start;letter-spacing:0px;word-spacing:0px;text-anchor:start;clip-rule:nonzero;display:inline;overflow:visible;visibility:visible;opacity:1;isolation:auto;mix-blend-mode:normal;color-interpolation:sRGB;color-interpolation-filters:linearRGB;solid-color:#000000;solid-opacity:1;fill:#000000;fill-opacity:1;fill-rule:nonzero;stroke:none;stroke-width:1px;stroke-linecap:butt;stroke-linejoin:miter;stroke-miterlimit:4;stroke-dasharray:none;stroke-dashoffset:0;stroke-opacity:1;color-rendering:auto;image-rendering:auto;shape-rendering:auto;text-rendering:auto;enable-background:accumulate"
           x="791.21655"
           y="-130.70657"
           id="text6265"
           sodipodi:linespacing="125%"
           transform="scale(1,-1)"><tspan
             style="font-size:10px"
             y="-130.70657"
             x="791.21655"
             id="tspan6271"
             sodipodi:role="line">δ<tspan
   id="tspan6273"
   style="font-size:8px;baseline-shift:super">15</tspan>N µ<tspan
   id="tspan6275"
   style="font-size:8px;baseline-shift:sub">src</tspan>±σ<tspan
   id="tspan6277"
   style="font-size:8px;baseline-shift:sub">src</tspan></tspan></text>
</g></g><text
       xml:space="preserve"
       style="color:#000000;font-size:16px;line-height:125%;text-align:start;letter-spacing:0px;word-spacing:0px;text-anchor:start;clip-rule:nonzero;display:inline;overflow:visible;visibility:visible;opacity:1;isolation:auto;mix-blend-mode:normal;color-interpolation:sRGB;color-interpolation-filters:linearRGB;solid-color:#000000;solid-opacity:1;fill:#000000;fill-opacity:1;fill-rule:nonzero;stroke:none;stroke-width:1px;stroke-linecap:butt;stroke-linejoin:miter;stroke-miterlimit:4;stroke-dasharray:none;stroke-dashoffset:0;stroke-opacity:1;color-rendering:auto;image-rendering:auto;shape-rendering:auto;text-rendering:auto;enable-background:accumulate"
       x="11.256664"
       y="-410.60922"
       id="text6657"
       sodipodi:linespacing="125%"
       transform="scale(1,-1)"><tspan
         sodipodi:role="line"
         id="tspan6659"
         x="11.256664"
         y="-410.60922">a)</tspan></text>
<text
       sodipodi:linespacing="125%"
       id="text6661"
       y="-274.60925"
       x="11.256664"
       style="color:#000000;font-size:16px;line-height:125%;text-align:start;letter-spacing:0px;word-spacing:0px;text-anchor:start;clip-rule:nonzero;display:inline;overflow:visible;visibility:visible;opacity:1;isolation:auto;mix-blend-mode:normal;color-interpolation:sRGB;color-interpolation-filters:linearRGB;solid-color:#000000;solid-opacity:1;fill:#000000;fill-opacity:1;fill-rule:nonzero;stroke:none;stroke-width:1px;stroke-linecap:butt;stroke-linejoin:miter;stroke-miterlimit:4;stroke-dasharray:none;stroke-dashoffset:0;stroke-opacity:1;color-rendering:auto;image-rendering:auto;shape-rendering:auto;text-rendering:auto;enable-background:accumulate"
       xml:space="preserve"
       transform="scale(1,-1)"><tspan
         y="-274.60925"
         x="11.256664"
         id="tspan6663"
         sodipodi:role="line">b)</tspan></text>
<text
       xml:space="preserve"
       style="color:#000000;font-size:16px;line-height:125%;text-align:start;letter-spacing:0px;word-spacing:0px;text-anchor:start;clip-rule:nonzero;display:inline;overflow:visible;visibility:visible;opacity:1;isolation:auto;mix-blend-mode:normal;color-interpolation:sRGB;color-interpolation-filters:linearRGB;solid-color:#000000;solid-opacity:1;fill:#000000;fill-opacity:1;fill-rule:nonzero;stroke:none;stroke-width:1px;stroke-linecap:butt;stroke-linejoin:miter;stroke-miterlimit:4;stroke-dasharray:none;stroke-dashoffset:0;stroke-opacity:1;color-rendering:auto;image-rendering:auto;shape-rendering:auto;text-rendering:auto;enable-background:accumulate"
       x="11.256664"
       y="-140.20926"
       id="text6665"
       sodipodi:linespacing="125%"
       transform="scale(1,-1)"><tspan
         sodipodi:role="line"
         id="tspan6667"
         x="11.256664"
         y="-140.20926">c)</tspan></text>
</g></svg>