<?xml version="1.0" encoding="UTF-8" standalone="no"?>
<!-- Created with Inkscape (http://www.inkscape.org/) -->

<svg
   xmlns:dc="http://purl.org/dc/elements/1.1/"
   xmlns:cc="http://creativecommons.org/ns#"
   xmlns:rdf="http://www.w3.org/1999/02/22-rdf-syntax-ns#"
   xmlns:svg="http://www.w3.org/2000/svg"
   xmlns="http://www.w3.org/2000/svg"
   xmlns:sodipodi="http://sodipodi.sourceforge.net/DTD/sodipodi-0.dtd"
   xmlns:inkscape="http://www.inkscape.org/namespaces/inkscape"
   id="svg2"
   version="1.1"
   inkscape:version="0.91 r13725"
   xml:space="preserve"
   width="1074.2802"
   height="464.19"
   viewBox="0 0 1074.2802 464.19"
   sodipodi:docname="OPE_timeSerie2013_2src.svg"><metadata
     id="metadata8"><rdf:RDF><cc:Work
         rdf:about=""><dc:format>image/svg+xml</dc:format><dc:type
           rdf:resource="http://purl.org/dc/dcmitype/StillImage" /><dc:title></dc:title></cc:Work></rdf:RDF></metadata><defs
     id="defs6" /><sodipodi:namedview
     pagecolor="#ffffff"
     bordercolor="#666666"
     borderopacity="1"
     objecttolerance="10"
     gridtolerance="10"
     guidetolerance="10"
     inkscape:pageopacity="0"
     inkscape:pageshadow="2"
     inkscape:window-width="1366"
     inkscape:window-height="768"
     id="namedview4"
     showgrid="false"
     inkscape:zoom="0.82973825"
     inkscape:cx="647.62175"
     inkscape:cy="241.29302"
     inkscape:window-x="1366"
     inkscape:window-y="0"
     inkscape:window-maximized="1"
     inkscape:current-layer="g6891"
     fit-margin-top="0"
     fit-margin-left="0"
     fit-margin-right="0"
     fit-margin-bottom="0" /><path
     d="m 40.466125,115.70225 1033.814075,0"
     style="fill:none;stroke:#000000;stroke-width:0.625;stroke-linecap:butt;stroke-linejoin:miter;stroke-miterlimit:10;stroke-dasharray:20, 0;stroke-dashoffset:0;stroke-opacity:1"
     id="path26"
     inkscape:connector-curvature="0" /><path
     d="m 40.466125,115.70225 0,-113.0899978"
     style="fill:none;stroke:#000000;stroke-width:0.625;stroke-linecap:butt;stroke-linejoin:miter;stroke-miterlimit:10;stroke-dasharray:20, 0;stroke-dashoffset:0;stroke-opacity:1"
     id="path28"
     inkscape:connector-curvature="0" /><path
     d="m 43.350375,115.70225 0,-10.39375"
     style="fill:none;stroke:#000000;stroke-width:0.625;stroke-linecap:butt;stroke-linejoin:miter;stroke-miterlimit:10;stroke-dasharray:20, 0;stroke-dashoffset:0;stroke-opacity:1"
     id="path30"
     inkscape:connector-curvature="0" /><path
     d="m 131.51512,115.70225 0,-10.39375"
     style="fill:none;stroke:#000000;stroke-width:0.625;stroke-linecap:butt;stroke-linejoin:miter;stroke-miterlimit:10;stroke-dasharray:20, 0;stroke-dashoffset:0;stroke-opacity:1"
     id="path32"
     inkscape:connector-curvature="0" /><path
     d="m 211.30387,115.70225 0,-10.39375"
     style="fill:none;stroke:#000000;stroke-width:0.625;stroke-linecap:butt;stroke-linejoin:miter;stroke-miterlimit:10;stroke-dasharray:20, 0;stroke-dashoffset:0;stroke-opacity:1"
     id="path34"
     inkscape:connector-curvature="0" /><path
     d="m 299.60637,115.70225 0,-10.39375"
     style="fill:none;stroke:#000000;stroke-width:0.625;stroke-linecap:butt;stroke-linejoin:miter;stroke-miterlimit:10;stroke-dasharray:20, 0;stroke-dashoffset:0;stroke-opacity:1"
     id="path36"
     inkscape:connector-curvature="0" /><path
     d="m 385.02512,115.70225 0,-10.39375"
     style="fill:none;stroke:#000000;stroke-width:0.625;stroke-linecap:butt;stroke-linejoin:miter;stroke-miterlimit:10;stroke-dasharray:20, 0;stroke-dashoffset:0;stroke-opacity:1"
     id="path38"
     inkscape:connector-curvature="0" /><path
     d="m 473.32762,115.70225 0,-10.39375"
     style="fill:none;stroke:#000000;stroke-width:0.625;stroke-linecap:butt;stroke-linejoin:miter;stroke-miterlimit:10;stroke-dasharray:20, 0;stroke-dashoffset:0;stroke-opacity:1"
     id="path40"
     inkscape:connector-curvature="0" /><path
     d="m 558.74638,115.70225 0,-10.39375"
     style="fill:none;stroke:#000000;stroke-width:0.625;stroke-linecap:butt;stroke-linejoin:miter;stroke-miterlimit:10;stroke-dasharray:20, 0;stroke-dashoffset:0;stroke-opacity:1"
     id="path42"
     inkscape:connector-curvature="0" /><path
     d="m 647.04888,115.70225 0,-10.39375"
     style="fill:none;stroke:#000000;stroke-width:0.625;stroke-linecap:butt;stroke-linejoin:miter;stroke-miterlimit:10;stroke-dasharray:20, 0;stroke-dashoffset:0;stroke-opacity:1"
     id="path44"
     inkscape:connector-curvature="0" /><path
     d="m 735.35138,115.70225 0,-10.39375"
     style="fill:none;stroke:#000000;stroke-width:0.625;stroke-linecap:butt;stroke-linejoin:miter;stroke-miterlimit:10;stroke-dasharray:20, 0;stroke-dashoffset:0;stroke-opacity:1"
     id="path46"
     inkscape:connector-curvature="0" /><path
     d="m 820.77012,115.70225 0,-10.39375"
     style="fill:none;stroke:#000000;stroke-width:0.625;stroke-linecap:butt;stroke-linejoin:miter;stroke-miterlimit:10;stroke-dasharray:20, 0;stroke-dashoffset:0;stroke-opacity:1"
     id="path48"
     inkscape:connector-curvature="0" /><path
     d="m 909.07263,115.70225 0,-10.39375"
     style="fill:none;stroke:#000000;stroke-width:0.625;stroke-linecap:butt;stroke-linejoin:miter;stroke-miterlimit:10;stroke-dasharray:20, 0;stroke-dashoffset:0;stroke-opacity:1"
     id="path50"
     inkscape:connector-curvature="0" /><path
     d="m 994.62887,115.70225 0,-10.39375"
     style="fill:none;stroke:#000000;stroke-width:0.625;stroke-linecap:butt;stroke-linejoin:miter;stroke-miterlimit:10;stroke-dasharray:20, 0;stroke-dashoffset:0;stroke-opacity:1"
     id="path52"
     inkscape:connector-curvature="0" /><g
     id="g54"
     transform="matrix(1.25,0,0,-1.25,-38.338625,514.16225)"><text
       transform="matrix(1,0,0,-1,37.2535,303.742)"
       style="font-variant:normal;font-weight:normal;font-size:10px;font-family:Helvetica;-inkscape-font-specification:Helvetica;writing-mode:lr-tb;fill:#000000;fill-opacity:1;fill-rule:nonzero;stroke:none"
       id="text56"><tspan
         x="0 5.5599999 11.12 14.45 19.450001 25.01 30.57 33.900002 39.459999 45.02 50.580002 70.119904 75.679901 81.239899 84.569901 90.679901 96.239899 101.7999 105.1299 110.6899 116.2499 121.8099 133.93474 139.49474 145.05473 148.38474 156.71474 162.27473 165.60474 168.93474 174.49474 180.05473 185.61475 205.33864 210.89864 216.45863 219.78864 226.45863 232.01865 235.34863 238.67863 244.23865 249.79865 255.35864 272.02695 277.58694 283.14694 286.47693 294.80695 300.36694 305.36694 308.69693 314.25693 319.81693 325.37695 344.08673 349.64673 355.20673 358.53674 363.53674 369.09674 374.65674 377.98672 383.54675 389.10675 394.66675 414.10983 419.66983 425.22983 428.55984 433.55984 439.11984 441.33984 444.66983 450.22983 455.78983 461.34985 482.17896 487.73895 493.29895 496.62894 503.29895 508.85895 514.41895 517.74896 523.30896 528.86896 534.42896 552.85394 558.41394 563.97394 567.30396 573.97394 579.53394 585.09393 588.42395 593.98395 599.54395 605.10394 622.32196 627.88196 633.44196 636.77191 644.55194 649.55194 652.33197 655.66193 661.22192 666.78192 672.34192 691.88684 697.44684 703.00684 706.33685 713.55682 719.11682 724.11682 727.44684 733.00684 738.56683 744.12683 760.23883 765.79883 771.35883 774.68884 781.90881 787.46881 792.46881 795.79883 801.35883 806.91882 812.47882"
         y="0"
         sodipodi:role="line"
         id="tspan58">01-Jan-201301-Feb-201301-Mar-201301-Apr-201301-May-201301-Jun-201301-Jul-201301-Aug-201301-Sep-201301-Oct-201301-Nov-201301-Dec-2013</tspan></text>
</g><path
     d="m 40.466125,115.70225 10.29975,0"
     style="fill:none;stroke:#000000;stroke-width:0.625;stroke-linecap:butt;stroke-linejoin:miter;stroke-miterlimit:10;stroke-dasharray:20, 0;stroke-dashoffset:0;stroke-opacity:1"
     id="path60"
     inkscape:connector-curvature="0" /><path
     d="m 40.466125,93.083502 10.29975,0"
     style="fill:none;stroke:#000000;stroke-width:0.625;stroke-linecap:butt;stroke-linejoin:miter;stroke-miterlimit:10;stroke-dasharray:20, 0;stroke-dashoffset:0;stroke-opacity:1"
     id="path62"
     inkscape:connector-curvature="0" /><path
     d="m 40.466125,70.466002 10.29975,0"
     style="fill:none;stroke:#000000;stroke-width:0.625;stroke-linecap:butt;stroke-linejoin:miter;stroke-miterlimit:10;stroke-dasharray:20, 0;stroke-dashoffset:0;stroke-opacity:1"
     id="path64"
     inkscape:connector-curvature="0" /><path
     d="m 40.466125,47.848502 10.29975,0"
     style="fill:none;stroke:#000000;stroke-width:0.625;stroke-linecap:butt;stroke-linejoin:miter;stroke-miterlimit:10;stroke-dasharray:20, 0;stroke-dashoffset:0;stroke-opacity:1"
     id="path66"
     inkscape:connector-curvature="0" /><path
     d="m 40.466125,25.229752 10.29975,0"
     style="fill:none;stroke:#000000;stroke-width:0.625;stroke-linecap:butt;stroke-linejoin:miter;stroke-miterlimit:10;stroke-dasharray:20, 0;stroke-dashoffset:0;stroke-opacity:1"
     id="path68"
     inkscape:connector-curvature="0" /><path
     d="m 40.466125,2.6122522 10.29975,0"
     style="fill:none;stroke:#000000;stroke-width:0.625;stroke-linecap:butt;stroke-linejoin:miter;stroke-miterlimit:10;stroke-dasharray:20, 0;stroke-dashoffset:0;stroke-opacity:1"
     id="path70"
     inkscape:connector-curvature="0" /><g
     id="g72"
     transform="matrix(1.25,0,0,-1.25,-38.338625,514.16225)"><text
       transform="matrix(1,0,0,-1,52.493,313.768)"
       style="font-variant:normal;font-weight:normal;font-size:10px;font-family:Helvetica;-inkscape-font-specification:Helvetica;writing-mode:lr-tb;fill:#000000;fill-opacity:1;fill-rule:nonzero;stroke:none"
       id="text74"><tspan
         x="0"
         y="0"
         id="tspan76">0</tspan><tspan
         x="-8.3394499 -2.7794499 0.00055"
         y="-18.0949"
         sodipodi:role="line"
         id="tspan78">0.2</tspan><tspan
         x="-8.3394499 -2.7794499 0.00055"
         y="-36.188999"
         sodipodi:role="line"
         id="tspan80">0.4</tspan><tspan
         x="-8.3394499 -2.7794499 0.00055"
         y="-54.2831"
         sodipodi:role="line"
         id="tspan82">0.6</tspan><tspan
         x="-8.3394499 -2.7794499 0.00055"
         y="-72.377998"
         sodipodi:role="line"
         id="tspan84">0.8</tspan><tspan
         x="0"
         y="-90.471802"
         id="tspan86">1</tspan></text>
<text
       transform="matrix(0,1,1,0,38.9703,359.559)"
       style="font-variant:normal;font-weight:normal;font-size:10px;font-family:Helvetica;-inkscape-font-specification:Helvetica;writing-mode:lr-tb;fill:#000000;fill-opacity:1;fill-rule:nonzero;stroke:none"
       id="text88"><tspan
         x="0"
         y="0"
         id="tspan90">%</tspan></text>
</g><path
     d="m 43.350375,66.789752 19.91262,-42.86625 14.145,-6.64625 17.16588,-3.2575 34.194995,57.90625"
     style="fill:none;stroke:#be3200;stroke-width:0.625;stroke-linecap:butt;stroke-linejoin:miter;stroke-miterlimit:10;stroke-dasharray:none;stroke-opacity:1"
     id="path92"
     inkscape:connector-curvature="0" /><path
     d="m 162.96387,13.216002 17.02875,-0.72 17.02875,-2.5087498 17.16625,-0.60125 17.02875,26.0087498 17.16625,-24.4175 17.02876,65.56875 17.16624,-62.1475 17.02875,-4.25625 17.16625,4.03375 17.02875,56.73375 17.02875,15.89375 51.36125,-57.77375 17.02875,36.025 17.16625,10.9925 17.02875,-7.305 17.02875,-20.80375 17.16626,22.7775 17.02874,0.85375 17.16625,12.92625 17.02875,-17.3525 17.16625,-3.62875 17.02875,29.40125 17.16625,-15.82125 17.02875,-5.9125 17.02875,12.11625 17.16625,29.828748 17.02875,-25.986248 17.16625,-1.66875 17.02875,0.3125 17.16625,-1.105 17.02875,-16.4075 17.02875,12.6175 17.16625,8.58625"
     style="fill:none;stroke:#be3200;stroke-width:0.625;stroke-linecap:butt;stroke-linejoin:miter;stroke-miterlimit:10;stroke-dasharray:none;stroke-opacity:1"
     id="path94"
     inkscape:connector-curvature="0" /><path
     d="m 795.22762,75.273502 17.02875,-18.17 17.165,31.42375 17.03,-13.94375 0,1.9625 17.165,-26.155 17.03,34.735"
     style="fill:none;stroke:#be3200;stroke-width:0.625;stroke-linecap:butt;stroke-linejoin:miter;stroke-miterlimit:10;stroke-dasharray:none;stroke-opacity:1"
     id="path96"
     inkscape:connector-curvature="0" /><path
     d="m 949.03512,41.756002 17.02876,41.63125 22.7975,-26.3925 11.39752,-28.9725 17.0287,32.025 17.1663,10.0425 19.9137,19.80375 14.2813,2.88125"
     style="fill:none;stroke:#be3200;stroke-width:0.625;stroke-linecap:butt;stroke-linejoin:miter;stroke-miterlimit:10;stroke-dasharray:none;stroke-opacity:1"
     id="path98"
     inkscape:connector-curvature="0" /><path
     d="m 761.03263,84.539752 -17.16625,-9.31875 -17.02876,-13.89625 -17.02874,18.03125 -17.16625,0.89 -17.02875,-0.0275 -17.16625,1.79625 -17.02875,28.914998 -17.16625,-33.062498 -17.02875,-13.56875 -17.02875,6.5075 -17.16625,17.3825 -17.02875,-32.4 -17.16625,4.27 -17.02876,19.11625 -17.16625,-14.21 -17.02874,-0.94375 -17.16625,-25.57375 -17.02876,23.38625 -17.02874,8.0875 -17.16626,-12.1925 -17.02875,-39.18625 -51.36125,63.1075 -17.02875,-17.3825 -17.02875,-57.7324998 -17.16625,-2.35875 -17.02875,2.4875 L 265.41138,70.486002 248.38262,4.5710022 231.21637,25.089752 214.18762,3.9510022 l -17.16625,0.165 -17.02875,1.41875 -17.02875,0.43875 0,14.4849998 17.02875,-1 17.02875,-3.6 17.16625,-1.03625 17.02875,30.8775 17.16625,-28.31625 17.02876,65.22375 17.16624,-60.475 17.02875,-6.02375 17.16625,5.70875 17.02875,55.73375 17.02875,14.405 51.36125,-52.43875 17.02875,32.86375 17.16625,9.7925 17.02875,-6.5225 17.02875,-18.22125 17.16626,19.98 17.02874,0.76625 17.16625,11.64125 17.02875,-15.59 17.16625,-2.98625 17.02875,26.4025 17.16625,-14.26 17.02875,-5.31625 17.02875,10.6625 17.16625,26.596248 17.02875,-23.059998 17.16625,-1.54125 17.02875,0.5975 17.16625,-1.32 17.02875,-14.7825 17.02875,11.33875 17.16625,7.85375"
     style="fill:#be3200;fill-opacity:0.19607843;stroke:none;stroke-width:0.625;stroke-linecap:butt;stroke-linejoin:miter;stroke-miterlimit:10;stroke-dasharray:5, 6.25, 1.25, 7.5;stroke-dashoffset:0;stroke-opacity:1"
     id="path102"
     inkscape:connector-curvature="0"
     sodipodi:nodetypes="cccccccccccccccccccccccccccccccccccccccccccccccccccccccccccccccccccc" /><path
     d="m 880.64638,79.534752 -17.03,-38.3975 -17.165,29.0625 0,-2.1625 -17.03,15.15 -17.165,-34.3625 -17.02875,20.24625 0,12.405 17.02875,-16.095 17.165,28.48625 17.03,-12.7375 0,1.7625 17.165,-23.24875 17.03,31.0725"
     style="fill:#be3200;fill-opacity:0.19607843;stroke:none;stroke-width:0.625;stroke-linecap:butt;stroke-linejoin:miter;stroke-miterlimit:10;stroke-dasharray:5, 6.25, 1.25, 7.5;stroke-dashoffset:0;stroke-opacity:1"
     id="path104"
     inkscape:connector-curvature="0"
     sodipodi:nodetypes="cccccccccccccc" /><path
     d="m 1068.6489,87.698502 -14.2813,-3.0575 -19.9137,-21.55625 -17.1663,-11.16625 -17.0287,-34.385 -11.39753,30.965 -22.7975,29.16125 -17.02875,-45.89625 0,19.985 17.02875,37.3675 22.7975,-23.62625 11.39753,-26.97875 17.0287,29.665 17.1663,8.9175 19.9137,18.05125 14.2813,2.705"
     style="fill:#be3200;fill-opacity:0.19607843;stroke:none;stroke-width:0.625;stroke-linecap:butt;stroke-linejoin:miter;stroke-miterlimit:10;stroke-dasharray:5, 6.25, 1.25, 7.5;stroke-dashoffset:0;stroke-opacity:1"
     id="path106"
     inkscape:connector-curvature="0"
     sodipodi:nodetypes="cccccccccccccccc" /><path
     d="m 128.76887,78.489752 -34.194995,-56.87 -17.16588,4.2075 -14.145,8.0675 -19.91262,40.02 0,-14.24875 19.91262,-45.71375 14.145,-5.2249998 17.16588,-2.3075 34.194995,58.9437498"
     style="fill:#be3200;fill-opacity:0.19607843;stroke:none;stroke-width:0.625;stroke-linecap:butt;stroke-linejoin:miter;stroke-miterlimit:10;stroke-dasharray:5, 6.25, 1.25, 7.5;stroke-dashoffset:0;stroke-opacity:1"
     id="path108"
     inkscape:connector-curvature="0"
     sodipodi:nodetypes="cccccccccc" /><path
     d="m 43.350375,51.524752 19.91263,42.86625 14.14499,6.646248 17.16588,3.2575 34.194995,-57.907498"
     style="fill:none;stroke:#0000b4;stroke-width:0.625;stroke-linecap:butt;stroke-linejoin:miter;stroke-miterlimit:10;stroke-dasharray:none;stroke-opacity:1"
     id="path116"
     inkscape:connector-curvature="0" /><path
     d="m 162.96387,105.09725 17.02875,0.72 17.02875,2.51 17.16625,0.60125 17.02875,-26.008748 17.16625,24.416248 17.02876,-65.568748 17.16624,62.148748 17.02875,4.25625 17.16625,-4.03375 17.02875,-56.733748 17.02875,-15.89375 51.36125,57.77375 17.02875,-36.025 17.16626,-10.9925 17.02874,7.305 17.02876,20.8025 17.16625,-22.77625 17.02874,-0.855 17.16625,-12.925 17.02875,17.3525 17.16625,3.6275 17.02875,-29.4 17.16625,15.82125 17.02875,5.91125 17.02875,-12.115 17.16625,-29.8299998 17.02875,25.9874998 17.16625,1.66875 17.02875,-0.3125 17.16625,1.105 17.02875,16.4075 17.02875,-12.61875 17.16625,-8.585"
     style="fill:none;stroke:#0000b4;stroke-width:0.625;stroke-linecap:butt;stroke-linejoin:miter;stroke-miterlimit:10;stroke-dasharray:none;stroke-opacity:1"
     id="path118"
     inkscape:connector-curvature="0" /><path
     d="m 795.22762,43.041002 17.02875,18.17 17.165,-31.42375 17.03,13.94375 0,-1.9625 17.165,26.155 17.03,-34.735"
     style="fill:none;stroke:#0000b4;stroke-width:0.625;stroke-linecap:butt;stroke-linejoin:miter;stroke-miterlimit:10;stroke-dasharray:none;stroke-opacity:1"
     id="path120"
     inkscape:connector-curvature="0" /><path
     d="m 949.03512,76.558502 17.02875,-41.6325 22.7975,26.39375 11.39753,28.9725 17.0287,-32.025 17.1663,-10.0425 19.9137,-19.80375 14.2813,-2.88125"
     style="fill:none;stroke:#0000b4;stroke-width:0.625;stroke-linecap:butt;stroke-linejoin:miter;stroke-miterlimit:10;stroke-dasharray:none;stroke-opacity:1"
     id="path122"
     inkscape:connector-curvature="0" /><path
     d="m 128.76887,39.824752 -34.194995,56.87 -17.16588,-4.2075 -14.145,-8.0675 -19.91262,-40.02 0,14.24875 19.91262,45.713748 14.145,5.225 17.16588,2.3075 34.194995,-58.943748"
     style="fill:#0000b4;fill-opacity:0.19607843;stroke:none;stroke-width:0.625;stroke-linecap:butt;stroke-linejoin:miter;stroke-miterlimit:10;stroke-dasharray:5, 6.25, 1.25, 7.5;stroke-dashoffset:0;stroke-opacity:1"
     id="path124"
     inkscape:connector-curvature="0"
     sodipodi:nodetypes="cccccccccc" /><path
     d="m 761.03263,23.902252 -17.16625,7.85375 -17.02876,11.33875 -17.02874,-14.7825 -17.16625,-1.32 -17.02876,0.59625 -17.16624,-1.54 -17.02875,-23.0612498 -17.16626,26.5974998 -17.02874,10.6625 -17.02875,-5.31625 -17.16626,-14.26125 -17.02874,26.4025 -17.16625,-2.98625 -17.02876,-15.58875 -17.16625,11.64125 -17.02874,0.76625 -17.16625,19.97875 -17.02876,-18.22125 -17.02874,-6.52125 -17.16626,9.79125 -17.02875,32.865 -51.36125,-52.43875 -17.02875,14.405 -17.02875,55.73375 -17.16625,5.708748 -17.02875,-6.023748 -17.16624,-60.475 -17.02876,65.222498 -17.16625,-28.314998 -17.02875,30.877498 -17.16625,-1.03625 -17.02875,-3.599998 -17.02875,-1.00125 0,14.484998 17.02875,0.44 17.02875,1.41875 17.16625,0.165 17.02875,-21.138748 17.16625,20.517498 17.02876,-65.913748 17.16624,63.821248 17.02875,2.4875 17.16625,-2.3575 17.02875,-57.732498 17.02875,-17.38375 51.36125,63.10875 17.02875,-39.18625 17.16626,-12.19375 17.02874,8.08875 17.02876,23.385 17.16625,-25.57375 17.02874,-0.9425 17.16625,-14.21125 17.02875,19.1175 17.16625,4.26875 17.02875,-32.39875 17.16625,17.3825 17.02875,6.5075 17.02875,-13.56875 17.16625,-33.0624998 17.02875,28.9149998 17.16625,1.79625 17.02875,-0.02875 17.16625,0.89 17.02875,18.0325 17.02876,-13.8975 17.16625,-9.3175"
     style="fill:#0000b4;fill-opacity:0.19607843;stroke:none;stroke-width:0.625;stroke-linecap:butt;stroke-linejoin:miter;stroke-miterlimit:10;stroke-dasharray:5, 6.25, 1.25, 7.5;stroke-dashoffset:0;stroke-opacity:1"
     id="path126"
     inkscape:connector-curvature="0"
     sodipodi:nodetypes="cccccccccccccccccccccccccccccccccccccccccccccccccccccccccccccccccccc" /><path
     d="m 880.64638,38.779752 -17.03,38.3975 -17.165,-29.0625 0,2.1625 -17.03,-15.15 -17.165,34.36125 -17.02875,-20.245 0,-12.405 17.02875,16.09375 17.16499,-28.48625 17.03,12.73875 0,-1.7625 17.165,23.2475 17.03,-31.0725"
     style="fill:#0000b4;fill-opacity:0.19607843;stroke:none;stroke-width:0.625;stroke-linecap:butt;stroke-linejoin:miter;stroke-miterlimit:10;stroke-dasharray:5, 6.25, 1.25, 7.5;stroke-dashoffset:0;stroke-opacity:1"
     id="path136"
     inkscape:connector-curvature="0"
     sodipodi:nodetypes="cccccccccccccc" /><path
     d="m 1068.6489,30.614752 -14.2813,3.0575 -19.9137,21.55625 -17.1663,11.1675 -17.0287,34.384998 -11.39753,-30.964998 -22.7975,-29.16125 -17.02875,45.89625 0,-19.985 17.02875,-37.3675 22.7975,23.625 11.39753,26.98 17.0287,-29.665 17.1663,-8.9175 19.9137,-18.05125 14.2813,-2.705"
     style="fill:#0000b4;fill-opacity:0.19607843;stroke:none;stroke-width:0.625;stroke-linecap:butt;stroke-linejoin:miter;stroke-miterlimit:10;stroke-dasharray:5, 6.25, 1.25, 7.5;stroke-dashoffset:0;stroke-opacity:1"
     id="path138"
     inkscape:connector-curvature="0"
     sodipodi:nodetypes="cccccccccccccccc" /><path
     d="m 40.466125,279.20725 1033.814075,0"
     style="fill:none;stroke:#000000;stroke-width:0.625;stroke-linecap:butt;stroke-linejoin:miter;stroke-miterlimit:10;stroke-dasharray:20, 0;stroke-dashoffset:0;stroke-opacity:1"
     id="path140"
     inkscape:connector-curvature="0" /><path
     d="m 40.466125,279.20725 0,-111.2975"
     style="fill:none;stroke:#000000;stroke-width:0.625;stroke-linecap:butt;stroke-linejoin:miter;stroke-miterlimit:10;stroke-dasharray:20, 0;stroke-dashoffset:0;stroke-opacity:1"
     id="path142"
     inkscape:connector-curvature="0" /><path
     d="m 43.350375,279.20725 0,-10.34375"
     style="fill:none;stroke:#000000;stroke-width:0.625;stroke-linecap:butt;stroke-linejoin:miter;stroke-miterlimit:10;stroke-dasharray:20, 0;stroke-dashoffset:0;stroke-opacity:1"
     id="path144"
     inkscape:connector-curvature="0" /><path
     d="m 131.51512,279.20725 0,-10.34375"
     style="fill:none;stroke:#000000;stroke-width:0.625;stroke-linecap:butt;stroke-linejoin:miter;stroke-miterlimit:10;stroke-dasharray:20, 0;stroke-dashoffset:0;stroke-opacity:1"
     id="path146"
     inkscape:connector-curvature="0" /><path
     d="m 211.30387,279.20725 0,-10.34375"
     style="fill:none;stroke:#000000;stroke-width:0.625;stroke-linecap:butt;stroke-linejoin:miter;stroke-miterlimit:10;stroke-dasharray:20, 0;stroke-dashoffset:0;stroke-opacity:1"
     id="path148"
     inkscape:connector-curvature="0" /><path
     d="m 299.60637,279.20725 0,-10.34375"
     style="fill:none;stroke:#000000;stroke-width:0.625;stroke-linecap:butt;stroke-linejoin:miter;stroke-miterlimit:10;stroke-dasharray:20, 0;stroke-dashoffset:0;stroke-opacity:1"
     id="path150"
     inkscape:connector-curvature="0" /><path
     d="m 385.02512,279.20725 0,-10.34375"
     style="fill:none;stroke:#000000;stroke-width:0.625;stroke-linecap:butt;stroke-linejoin:miter;stroke-miterlimit:10;stroke-dasharray:20, 0;stroke-dashoffset:0;stroke-opacity:1"
     id="path152"
     inkscape:connector-curvature="0" /><path
     d="m 473.32762,279.20725 0,-10.34375"
     style="fill:none;stroke:#000000;stroke-width:0.625;stroke-linecap:butt;stroke-linejoin:miter;stroke-miterlimit:10;stroke-dasharray:20, 0;stroke-dashoffset:0;stroke-opacity:1"
     id="path154"
     inkscape:connector-curvature="0" /><path
     d="m 558.74638,279.20725 0,-10.34375"
     style="fill:none;stroke:#000000;stroke-width:0.625;stroke-linecap:butt;stroke-linejoin:miter;stroke-miterlimit:10;stroke-dasharray:20, 0;stroke-dashoffset:0;stroke-opacity:1"
     id="path156"
     inkscape:connector-curvature="0" /><path
     d="m 647.04888,279.20725 0,-10.34375"
     style="fill:none;stroke:#000000;stroke-width:0.625;stroke-linecap:butt;stroke-linejoin:miter;stroke-miterlimit:10;stroke-dasharray:20, 0;stroke-dashoffset:0;stroke-opacity:1"
     id="path158"
     inkscape:connector-curvature="0" /><path
     d="m 735.35138,279.20725 0,-10.34375"
     style="fill:none;stroke:#000000;stroke-width:0.625;stroke-linecap:butt;stroke-linejoin:miter;stroke-miterlimit:10;stroke-dasharray:20, 0;stroke-dashoffset:0;stroke-opacity:1"
     id="path160"
     inkscape:connector-curvature="0" /><path
     d="m 820.77012,279.20725 0,-10.34375"
     style="fill:none;stroke:#000000;stroke-width:0.625;stroke-linecap:butt;stroke-linejoin:miter;stroke-miterlimit:10;stroke-dasharray:20, 0;stroke-dashoffset:0;stroke-opacity:1"
     id="path162"
     inkscape:connector-curvature="0" /><path
     d="m 909.07263,279.20725 0,-10.34375"
     style="fill:none;stroke:#000000;stroke-width:0.625;stroke-linecap:butt;stroke-linejoin:miter;stroke-miterlimit:10;stroke-dasharray:20, 0;stroke-dashoffset:0;stroke-opacity:1"
     id="path164"
     inkscape:connector-curvature="0" /><path
     d="m 994.62887,279.20725 0,-10.34375"
     style="fill:none;stroke:#000000;stroke-width:0.625;stroke-linecap:butt;stroke-linejoin:miter;stroke-miterlimit:10;stroke-dasharray:20, 0;stroke-dashoffset:0;stroke-opacity:1"
     id="path166"
     inkscape:connector-curvature="0" /><g
     id="g168"
     transform="matrix(1.25,0,0,-1.25,-38.338625,514.16225)"><text
       transform="matrix(1,0,0,-1,37.2535,172.962)"
       style="font-variant:normal;font-weight:normal;font-size:10px;font-family:Helvetica;-inkscape-font-specification:Helvetica;writing-mode:lr-tb;fill:#000000;fill-opacity:1;fill-rule:nonzero;stroke:none"
       id="text170"><tspan
         x="0 5.5599999 11.12 14.45 19.450001 25.01 30.57 33.900002 39.459999 45.02 50.580002 70.119904 75.679901 81.239899 84.569901 90.679901 96.239899 101.7999 105.1299 110.6899 116.2499 121.8099 133.93474 139.49474 145.05473 148.38474 156.71474 162.27473 165.60474 168.93474 174.49474 180.05473 185.61475 205.33864 210.89864 216.45863 219.78864 226.45863 232.01865 235.34863 238.67863 244.23865 249.79865 255.35864 272.02695 277.58694 283.14694 286.47693 294.80695 300.36694 305.36694 308.69693 314.25693 319.81693 325.37695 344.08673 349.64673 355.20673 358.53674 363.53674 369.09674 374.65674 377.98672 383.54675 389.10675 394.66675 414.10983 419.66983 425.22983 428.55984 433.55984 439.11984 441.33984 444.66983 450.22983 455.78983 461.34985 482.17896 487.73895 493.29895 496.62894 503.29895 508.85895 514.41895 517.74896 523.30896 528.86896 534.42896 552.85394 558.41394 563.97394 567.30396 573.97394 579.53394 585.09393 588.42395 593.98395 599.54395 605.10394 622.32196 627.88196 633.44196 636.77191 644.55194 649.55194 652.33197 655.66193 661.22192 666.78192 672.34192 691.88684 697.44684 703.00684 706.33685 713.55682 719.11682 724.11682 727.44684 733.00684 738.56683 744.12683 760.23883 765.79883 771.35883 774.68884 781.90881 787.46881 792.46881 795.79883 801.35883 806.91882 812.47882"
         y="0"
         sodipodi:role="line"
         id="tspan172">01-Jan-201301-Feb-201301-Mar-201301-Apr-201301-May-201301-Jun-201301-Jul-201301-Aug-201301-Sep-201301-Oct-201301-Nov-201301-Dec-2013</tspan></text>
</g><path
     d="m 40.466125,279.20725 10.29975,0"
     style="fill:none;stroke:#000000;stroke-width:0.625;stroke-linecap:butt;stroke-linejoin:miter;stroke-miterlimit:10;stroke-dasharray:20, 0;stroke-dashoffset:0;stroke-opacity:1"
     id="path174"
     inkscape:connector-curvature="0" /><path
     d="m 40.466125,251.38225 10.29975,0"
     style="fill:none;stroke:#000000;stroke-width:0.625;stroke-linecap:butt;stroke-linejoin:miter;stroke-miterlimit:10;stroke-dasharray:20, 0;stroke-dashoffset:0;stroke-opacity:1"
     id="path176"
     inkscape:connector-curvature="0" /><path
     d="m 40.466125,223.5585 10.29975,0"
     style="fill:none;stroke:#000000;stroke-width:0.625;stroke-linecap:butt;stroke-linejoin:miter;stroke-miterlimit:10;stroke-dasharray:20, 0;stroke-dashoffset:0;stroke-opacity:1"
     id="path178"
     inkscape:connector-curvature="0" /><path
     d="m 40.466125,195.7335 10.29975,0"
     style="fill:none;stroke:#000000;stroke-width:0.625;stroke-linecap:butt;stroke-linejoin:miter;stroke-miterlimit:10;stroke-dasharray:20, 0;stroke-dashoffset:0;stroke-opacity:1"
     id="path180"
     inkscape:connector-curvature="0" /><path
     d="m 40.466125,167.90975 10.29975,0"
     style="fill:none;stroke:#000000;stroke-width:0.625;stroke-linecap:butt;stroke-linejoin:miter;stroke-miterlimit:10;stroke-dasharray:20, 0;stroke-dashoffset:0;stroke-opacity:1"
     id="path182"
     inkscape:connector-curvature="0" /><g
     id="g184"
     transform="matrix(1.25,0,0,-1.25,-38.338625,514.16225)"><text
       transform="matrix(1,0,0,-1,52.493,182.964)"
       style="font-variant:normal;font-weight:normal;font-size:10px;font-family:Helvetica;-inkscape-font-specification:Helvetica;writing-mode:lr-tb;fill:#000000;fill-opacity:1;fill-rule:nonzero;stroke:none"
       id="text186"><tspan
         x="0"
         y="0"
         id="tspan188">0</tspan><tspan
         x="0"
         y="-22.2598"
         id="tspan190">2</tspan><tspan
         x="0"
         y="-44.519199"
         id="tspan192">4</tspan><tspan
         x="0"
         y="-66.778999"
         id="tspan194">6</tspan><tspan
         x="0"
         y="-89.038002"
         id="tspan196">8</tspan></text>
<text
       transform="matrix(0,1,1,0,0,0)"
       style="font-variant:normal;font-weight:normal;font-size:10px;font-family:Helvetica;-inkscape-font-specification:Helvetica;writing-mode:lr-tb;fill:#000000;fill-opacity:1;fill-rule:nonzero;stroke:none"
       id="text198"
       x="203.82002"
       y="40.057392"><tspan
         x="203.82002"
         y="40.057392"
         sodipodi:role="line"
         id="tspan200">NH4 [µg/m3]</tspan></text>
</g><path
     d="m 43.350375,278.88225 19.91262,-15.9175 14.145,-8.0325 17.16588,-30.42125 34.194995,54.31375"
     style="fill:none;stroke:#be3200;stroke-width:0.625;stroke-linecap:butt;stroke-linejoin:miter;stroke-miterlimit:10;stroke-dasharray:none;stroke-opacity:1"
     id="path202"
     inkscape:connector-curvature="0" /><path
     d="m 162.96387,241.10975 17.02875,11.78625 17.02875,-39.72875 17.16625,15.60125 17.02875,34.2175 17.16625,-34.1675 17.02876,49.65625 17.16624,-57.46 17.02875,-21.0325 17.16625,21.49 17.02875,57.1425 17.02875,-0.32375 51.36125,-19.265 17.02875,18.02875 17.16625,1.18625 17.02875,-1.25875 17.02875,-1.26125 17.16626,-0.92875 17.02874,-2.055 17.16625,4.77875 17.02875,10e-4 17.16625,-2.25125 17.02875,2.5675 17.16625,-4.1525 17.02875,-3.0275 17.02875,5.77625 17.16625,2.67125 17.02875,-0.91125 17.16625,-1.9075 17.02875,0.9325 17.16625,-2.46 17.02875,-5.65625 17.02875,6.5975 17.16625,2.6875"
     style="fill:none;stroke:#be3200;stroke-width:0.625;stroke-linecap:butt;stroke-linejoin:miter;stroke-miterlimit:10;stroke-dasharray:none;stroke-opacity:1"
     id="path204"
     inkscape:connector-curvature="0" /><path
     d="m 795.22762,276.8835 17.02875,-13.9075 17.165,14.20625 17.03,-0.98 0,0.32375 17.165,-1.12125 17.03,1.56"
     style="fill:none;stroke:#be3200;stroke-width:0.625;stroke-linecap:butt;stroke-linejoin:miter;stroke-miterlimit:10;stroke-dasharray:none;stroke-opacity:1"
     id="path206"
     inkscape:connector-curvature="0" /><path
     d="m 949.03512,272.671 17.02875,5.0325 22.7975,-4.06 11.39753,-10.37625 17.0287,13.73875 17.1663,-0.71 19.9137,1.93625 14.2813,0.04"
     style="fill:none;stroke:#be3200;stroke-width:0.625;stroke-linecap:butt;stroke-linejoin:miter;stroke-miterlimit:10;stroke-dasharray:none;stroke-opacity:1"
     id="path208"
     inkscape:connector-curvature="0" /><path
     d="m 128.76887,278.76725 -34.194995,-58.345 -17.16588,32.40125 -14.145,8.37625 -19.91262,17.635 0,0.095 19.91262,-14.2 14.145,-7.68875 17.16588,-28.4425 34.194995,50.28375"
     style="fill:#be3200;fill-opacity:0.19607843;stroke:none;stroke-width:0.625;stroke-linecap:butt;stroke-linejoin:miter;stroke-miterlimit:10;stroke-dasharray:5, 6.25, 1.25, 7.5;stroke-dashoffset:0;stroke-opacity:1"
     id="path210"
     inkscape:connector-curvature="0"
     sodipodi:nodetypes="cccccccccc" /><path
     d="m 761.03263,278.2297 -17.16625,-3.105 -17.02875,-7.50625 -17.02875,6.3725 -17.16625,2.855 -17.02875,-1.0725 -17.16625,2.23375 -17.02875,1.0025 -17.16625,-3.04625 -17.02875,-6.6325 -17.02875,3.45 -17.16625,4.7675 -17.02875,-2.865 -17.16625,2.5875 -17.02875,-0.0437 -17.16625,-5.4575 -17.02875,2.365 -17.16625,1.0975 -17.02875,1.42375 -17.02875,1.435 -17.16626,-1.34875 -17.02875,-20.15875 -51.36125,21.545 -17.02875,0.3975 -17.02875,-61.39875 -17.16625,-21.6225 -17.02875,21.0675 -17.16624,61.78875 -17.02876,-52.625 -17.16625,35.16875 -17.02875,-34.715 -17.16625,-16.69125 -17.02875,41.6225 -17.02875,-12.70375 0,5.385 17.02875,10.86875 17.02875,-37.83625 17.16625,14.5125 17.02875,33.72 17.16625,-33.16625 17.02876,46.68625 17.16624,-53.13 17.02875,-20.9975 17.16625,21.35875 17.02875,52.88375 17.02875,-0.2475 51.36125,-16.9875 17.02875,15.89875 17.16625,1.02375 17.02875,-1.08 17.02875,-1.1 17.16626,-0.76125 17.02874,-1.7425 17.16625,4.0975 17.02875,-0.04 17.16625,-1.91375 17.02875,2.26875 17.16625,-3.5375 17.02875,-2.605 17.02875,4.91875 17.16625,2.29625 17.02875,-0.81875 17.16625,-1.5825 17.02875,0.79375 17.16625,-2.065 17.02875,-4.93875 17.02875,5.6875 17.16625,2.27125"
     style="fill:#be3200;fill-opacity:0.19607843;stroke:none;stroke-width:0.625;stroke-linecap:butt;stroke-linejoin:miter;stroke-miterlimit:10;stroke-dasharray:5, 6.25, 1.25, 7.5;stroke-dashoffset:0;stroke-opacity:1"
     id="path212"
     inkscape:connector-curvature="0"
     sodipodi:nodetypes="cccccccccccccccccccccccccccccccccccccccccccccccccccccccccccccccccccc" /><path
     d="m 880.64638,276.55475 -17.03,-1.68875 -17.165,1.225 0,-0.3675 -17.03,1.06125 -17.165,-16.10125 -17.02875,15.84375 0,0.7125 17.02875,-11.97 17.165,12.31 17.03,-0.89875 0,0.27875 17.165,-1.01625 17.03,1.43125"
     style="fill:#be3200;fill-opacity:0.19607843;stroke:none;stroke-width:0.625;stroke-linecap:butt;stroke-linejoin:miter;stroke-miterlimit:10;stroke-dasharray:5, 6.25, 1.25, 7.5;stroke-dashoffset:0;stroke-opacity:1"
     id="path214"
     inkscape:connector-curvature="0"
     sodipodi:nodetypes="cccccccccccccc" /><path
     d="m 1068.6489,278.4797 -14.2813,-0.0487 -19.9137,-1.68875 -17.1663,0.585 -17.0287,-12.15375 -11.39753,9.275 -22.7975,3.5225 -17.02875,-4.4175 0,-1.76625 17.02875,5.65 22.7975,-4.59875 11.39753,-11.47875 17.0287,15.32375 17.1663,-0.835 19.9137,2.18625 14.2813,0.0312"
     style="fill:#be3200;fill-opacity:0.19607843;stroke:none;stroke-width:0.625;stroke-linecap:butt;stroke-linejoin:miter;stroke-miterlimit:10;stroke-dasharray:5, 6.25, 1.25, 7.5;stroke-dashoffset:0;stroke-opacity:1"
     id="path224"
     inkscape:connector-curvature="0"
     sodipodi:nodetypes="cccccccccccccccc" /><path
     d="m 43.350375,278.781 19.91262,-3.345 14.145,0.155 17.16588,-2.52 34.194995,5.53125"
     style="fill:none;stroke:#0000b4;stroke-width:0.625;stroke-linecap:butt;stroke-linejoin:miter;stroke-miterlimit:10;stroke-dasharray:none;stroke-opacity:1"
     id="path226"
     inkscape:connector-curvature="0" /><path
     d="m 162.96387,275.26475 17.02875,1.4225 17.02875,-2.0875 17.16625,1.39375 17.02875,-3.4075 17.16625,2.59625 17.02876,2.64125 17.16624,-5.38625 17.02875,1.11875 17.16625,-0.925 17.02875,5.6725 17.02875,-1.765 51.36125,-3.4825 17.02875,3.49625 17.16625,0.865 17.02875,-1.3425 17.02875,0.8 17.16626,-4.35125 17.02874,-3.425 17.16625,5.67 17.02875,2.1925 17.16625,-2.3525 17.02875,-0.84375 17.16625,-5.22 17.02875,-2.5125 17.02875,6.2575 17.16625,2.34375 17.02875,1.5625 17.16625,-5.00625 17.02875,2.4775 17.16625,-6.2375 17.02875,-2.21625 17.02875,6.09875 17.16625,5.16875"
     style="fill:none;stroke:#0000b4;stroke-width:0.625;stroke-linecap:butt;stroke-linejoin:miter;stroke-miterlimit:10;stroke-dasharray:none;stroke-opacity:1"
     id="path228"
     inkscape:connector-curvature="0" /><path
     d="m 795.22762,275.031 17.02875,-10.91625 17.165,8.69 17.03,1.1425 0,0.1975 17.165,2.28125 17.03,-3.27"
     style="fill:none;stroke:#0000b4;stroke-width:0.625;stroke-linecap:butt;stroke-linejoin:miter;stroke-miterlimit:10;stroke-dasharray:none;stroke-opacity:1"
     id="path230"
     inkscape:connector-curvature="0" /><path
     d="m 949.03512,275.74725 17.02875,-0.2975 22.7975,-1.39625 11.39753,0.53375 17.0287,2.3475 17.1663,-2.035 19.9137,1.01125 14.2813,-0.38"
     style="fill:none;stroke:#0000b4;stroke-width:0.625;stroke-linecap:butt;stroke-linejoin:miter;stroke-miterlimit:10;stroke-dasharray:none;stroke-opacity:1"
     id="path232"
     inkscape:connector-curvature="0" /><path
     d="m 846.45137,273.70975 17.165,2.1775 17.03,-3.14125"
     style="fill:#0000b4;fill-opacity:0.19607843;stroke:none;stroke-width:0.625;stroke-linecap:butt;stroke-linejoin:miter;stroke-miterlimit:10;stroke-dasharray:5, 6.25, 1.25, 7.5;stroke-dashoffset:0;stroke-opacity:1"
     id="path240"
     inkscape:connector-curvature="0"
     sodipodi:nodetypes="ccc" /><path
     d="m 128.76887,278.65975 -34.194995,-1.50125 -17.16588,0.54 -14.145,-0.49875 -19.91262,1.62875 0,-0.095 19.91262,-5.0625 14.145,-0.18875 17.16588,-4.5 34.194995,9.5625"
     style="fill:#0000b4;fill-opacity:0.19607843;stroke:none;stroke-width:0.625;stroke-linecap:butt;stroke-linejoin:miter;stroke-miterlimit:10;stroke-dasharray:5, 6.25, 1.25, 7.5;stroke-dashoffset:0;stroke-opacity:1"
     id="path244"
     inkscape:connector-curvature="0"
     sodipodi:nodetypes="cccccccccc" /><path
     d="m 761.03263,276.636 -17.16625,-4.7525 -17.02875,-5.18875 -17.02875,1.49875 -17.16625,5.84375 -17.02875,-2.34 -17.16625,4.68125 -17.02875,-1.65375 -17.16625,-1.96875 -17.02875,-5.4 -17.02875,2.09 -17.16625,4.60375 -17.02875,1.1425 -17.16625,2.015 -17.02875,-2.15 -17.16625,-4.99 -17.02875,3.11375 -17.16625,4.1825 -17.02876,-0.96125 -17.02874,1.16375 -17.16626,-0.70125 -17.02875,-1.3675 -51.36125,1.205 -17.02875,1.68875 -17.02875,-1.41375 -17.16625,1.05625 -17.02875,-1.15375 -17.16624,1.0575 -17.02876,0.3275 -17.16625,-3.5975 -17.02875,3.905 -17.16625,-0.305 -17.02875,0.195 -17.02875,-0.505 0,-5.385 17.02875,2.34 17.02875,-3.98 17.16625,2.4825 17.02875,-2.91 17.16625,1.595 17.02876,5.61 17.16624,-9.71625 17.02875,1.085 17.16625,-0.7925 17.02875,9.92875 17.02875,-1.83875 51.36125,-5.7625 17.02875,5.6275 17.16625,1.0275 17.02875,-1.52125 17.02875,0.64 17.16626,-4.52125 17.02874,-3.73625 17.16625,6.35125 17.02875,2.23375 17.16625,-2.69 17.02875,-0.545 17.16625,-5.835 17.02875,-2.935 17.02875,7.115 17.16625,2.7175 17.02875,1.47125 17.16625,-5.3325 17.02875,2.6175 17.16625,-6.6325 17.02875,-2.9325 17.02875,7.0075 17.16625,5.585"
     style="fill:#0000b4;fill-opacity:0.19607843;stroke:none;stroke-width:0.625;stroke-linecap:butt;stroke-linejoin:miter;stroke-miterlimit:10;stroke-dasharray:5, 6.25, 1.25, 7.5;stroke-dashoffset:0;stroke-opacity:1"
     id="path246"
     inkscape:connector-curvature="0"
     sodipodi:nodetypes="cccccccccccccccccccccccccccccccccccccccccccccccccccccccccccccccccccc" /><path
     d="m 880.64638,273.566 -17.03,3.39875 -17.165,-2.38625 0,-0.1525 -17.03,-1.22375 -17.165,-6.795 -17.02875,8.98 0,-0.71375 17.02875,-12.8525 17.165,10.58625 17.03,1.06125"
     style="fill:#0000b4;fill-opacity:0.19607843;stroke:none;stroke-width:0.625;stroke-linecap:butt;stroke-linejoin:miter;stroke-miterlimit:10;stroke-dasharray:5, 6.25, 1.25, 7.5;stroke-dashoffset:0;stroke-opacity:1"
     id="path248"
     inkscape:connector-curvature="0"
     sodipodi:nodetypes="ccccccccccc" /><path
     d="m 1068.6489,275.7385 -14.2813,0.37125 -19.9137,-0.7625 -17.1663,1.91 -17.0287,-0.7625 -11.39753,-1.63625 -22.7975,0.8575 -17.02875,0.91375 0,-1.76625 17.02875,0.32 22.7975,-1.935 11.39753,-0.5675 17.0287,3.9325 17.1663,-2.16 19.9137,1.26 14.2813,-0.38875"
     style="fill:#0000b4;fill-opacity:0.19607843;stroke:none;stroke-width:0.625;stroke-linecap:butt;stroke-linejoin:miter;stroke-miterlimit:10;stroke-dasharray:5, 6.25, 1.25, 7.5;stroke-dashoffset:0;stroke-opacity:1"
     id="path250"
     inkscape:connector-curvature="0"
     sodipodi:nodetypes="cccccccccccccccc" /><path
     d="m 43.350375,278.456 19.91262,-19.2625 14.145,-7.8775 17.16588,-32.94125 34.194995,59.845 17.02875,0.5825 17.16625,-41.635 17.02875,13.20875 17.02875,-41.81625 17.16625,16.995 17.02875,30.81 17.16625,-31.57125 17.02875,52.2975 17.16625,-62.84625 17.02875,-19.91375 17.16625,20.56625 17.02875,62.8125 17.02875,-2.08625 51.36125,-22.74875 17.02875,21.525 17.16625,2.05125 17.02875,-2.6 17.02875,-0.46125 17.16625,-5.28125 17.02875,-5.47875 17.16625,10.4475 17.02875,2.19375 17.16625,-4.60375 17.02875,1.72375 17.16625,-9.3725 17.02875,-5.53875 17.02875,12.0325 17.16625,5.015 17.02875,0.65125 17.16625,-6.91375 17.02875,3.41 17.16625,-8.69625 17.02875,-7.87375 17.02875,12.69625 17.16625,7.8575 17.02875,-5.71375 17.16625,2.7625 17.02875,-24.82375 17.165,22.89625 17.03,0.1625"
     style="fill:none;stroke:#000000;stroke-width:0.625;stroke-linecap:butt;stroke-linejoin:miter;stroke-miterlimit:10;stroke-dasharray:5, 5;stroke-dashoffset:0;stroke-opacity:1"
     id="path252"
     inkscape:connector-curvature="0" /><path
     d="m 846.45137,271.46225 17.165,1.16125 17.03,-1.71 34.19375,7.73375 17.03,-0.19375 17.165,-9.2425 17.02875,4.73625 22.7975,-5.4575 11.39753,-9.8425 17.0287,16.08625 17.1663,-2.745 19.9137,2.94875 14.2813,-0.34"
     style="fill:none;stroke:#000000;stroke-width:0.625;stroke-linecap:butt;stroke-linejoin:miter;stroke-miterlimit:10;stroke-dasharray:5, 5;stroke-dashoffset:0;stroke-opacity:1"
     id="path254"
     inkscape:connector-curvature="0" /><path
     style="fill:#000000;fill-opacity:1;fill-rule:nonzero;stroke:none"
     d="m 298.81957,191.95327 -1.25,0.9082 -0.47655,1.46875 0.47655,1.46875 1.25,0.91016 1.54493,0 1.25,-0.91016 0.47852,-1.46875 -0.47852,-1.46875 -1.25,-0.9082 -1.54493,0 z"
     id="path6889"
     inkscape:connector-curvature="0" /><path
     style="fill:#000000;fill-opacity:1;fill-rule:nonzero;stroke:none"
     d="m 196.28637,206.18178 -1.25,0.9082 -0.47656,1.47071 0.47656,1.46875 1.25,0.9082 1.54492,0 1.25,-0.9082 0.47852,-1.46875 -0.47852,-1.47071 -1.25,-0.9082 -1.54492,0 z"
     id="path6885"
     inkscape:connector-curvature="0" /><path
     style="fill:#000000;fill-opacity:1;fill-rule:nonzero;stroke:none"
     d="m 281.73168,211.86733 -1.25,0.9082 -0.4785,1.46875 0.47851,1.46875 1.25,0.91016 1.54492,0 1.25,-0.91016 0.47657,-1.46875 -0.47657,-1.46875 -1.25,-0.9082 -1.54492,0 z"
     id="path6883"
     inkscape:connector-curvature="0" /><path
     style="fill:#000000;fill-opacity:1;fill-rule:nonzero;stroke:none"
     d="m 315.90942,212.51967 -1.25,0.9082 -0.47852,1.46876 0.47852,1.46874 1.25,0.91016 1.54492,0 1.25,-0.91016 0.47656,-1.46874 -0.47656,-1.46876 -1.25,-0.9082 -1.54492,0 z"
     id="path6881"
     inkscape:connector-curvature="0" /><path
     style="fill:#000000;fill-opacity:1;fill-rule:nonzero;stroke:none"
     d="m 93.753175,215.99623 -1.25,0.90821 -0.47657,1.4707 0.47657,1.46875 1.25,0.9082 1.54492,0 1.25,-0.9082 0.47851,-1.46875 -0.47851,-1.4707 -1.25,-0.90821 -1.54492,0 z"
     id="path6879"
     inkscape:connector-curvature="0" /><path
     style="fill:#000000;fill-opacity:1;fill-rule:nonzero;stroke:none"
     d="m 247.55199,222.4142 -1.25,0.91016 -0.47656,1.46875 0.47656,1.46875 1.25,0.9082 1.54494,0 1.25,-0.9082 0.47851,-1.46875 -0.47851,-1.46875 -1.25,-0.91016 -1.54494,0 z"
     id="path6877"
     inkscape:connector-curvature="0" /><path
     style="fill:#000000;fill-opacity:1;fill-rule:nonzero;stroke:none"
     d="m 213.37426,223.17787 -1.25,0.90821 -0.47656,1.46875 0.47656,1.4707 1.25,0.9082 1.54492,0 1.25,-0.9082 0.47852,-1.4707 -0.47852,-1.46875 -1.25,-0.90821 -1.54492,0 z"
     id="path6875"
     inkscape:connector-curvature="0" /><path
     style="fill:#000000;fill-opacity:1;fill-rule:nonzero;stroke:none"
     d="m 162.10864,234.7892 -1.25,0.91016 -0.47657,1.46875 0.47657,1.46875 1.25,0.9082 1.54492,0 1.25,-0.9082 0.47851,-1.46875 -0.47851,-1.46875 -1.25,-0.91016 -1.54492,0 z"
     id="path6873"
     inkscape:connector-curvature="0" /><path
     style="fill:#000000;fill-opacity:1;fill-rule:nonzero;stroke:none"
     d="m 811.48559,245.506 -1.25,0.9082 -0.47852,1.46875 0.47852,1.47071 1.25,0.9082 1.54493,0 1.25,-0.9082 0.47655,-1.47071 -0.47655,-1.46875 -1.25,-0.9082 -1.54493,0 z"
     id="path6871"
     inkscape:connector-curvature="0" /><path
     style="fill:#000000;fill-opacity:1;fill-rule:nonzero;stroke:none"
     d="m 179.19848,247.99819 -1.25,0.9082 -0.47852,1.46875 0.47852,1.4707 1.25,0.90821 1.54492,0 1.25,-0.90821 0.47656,-1.4707 -0.47656,-1.46875 -1.25,-0.9082 -1.54492,0 z"
     id="path6869"
     inkscape:connector-curvature="0" /><path
     style="fill:#000000;fill-opacity:1;fill-rule:nonzero;stroke:none"
     d="m 76.665285,248.93764 -1.25,0.9082 -0.47852,1.47071 0.47852,1.46875 1.25,0.9082 1.54492,0 1.25,-0.9082 0.47656,-1.46875 -0.47656,-1.47071 -1.25,-0.9082 -1.54492,0 z"
     id="path6867"
     inkscape:connector-curvature="0" /><path
     style="fill:#000000;fill-opacity:1;fill-rule:nonzero;stroke:none"
     d="m 401.35279,250.49819 -1.25,0.90625 -0.47852,1.4707 0.47852,1.46875 1.25,0.9082 1.54491,0 1.25,-0.9082 0.47657,-1.46875 -0.47657,-1.4707 -1.25,-0.90625 -1.54491,0 z"
     id="path6865"
     inkscape:connector-curvature="0" /><path
     style="fill:#000000;fill-opacity:1;fill-rule:nonzero;stroke:none"
     d="m 726.04029,252.7267 -1.25,0.91016 -0.47852,1.46875 0.47852,1.46875 1.25,0.9082 1.54687,0 1.25,-0.9082 0.47461,-1.46875 -0.47461,-1.46875 -1.25,-0.91016 -1.54687,0 z"
     id="path6863"
     inkscape:connector-curvature="0" /><path
     style="fill:#000000;fill-opacity:1;fill-rule:nonzero;stroke:none"
     d="m 230.4641,253.98647 -1.25,0.9082 -0.47851,1.4707 0.47851,1.46876 1.25,0.9082 1.54493,0 1.25,-0.9082 0.47657,-1.46876 -0.47657,-1.4707 -1.25,-0.9082 -1.54493,0 z"
     id="path6861"
     inkscape:connector-curvature="0" /><path
     style="fill:#000000;fill-opacity:1;fill-rule:nonzero;stroke:none"
     d="m 606.41918,255.1017 -1.25,0.90821 -0.47851,1.4707 0.47851,1.46875 1.25,0.9082 1.54493,0 1.25,-0.9082 0.47657,-1.46875 -0.47657,-1.4707 -1.25,-0.90821 -1.54493,0 z"
     id="path6859"
     inkscape:connector-curvature="0" /><path
     style="fill:#000000;fill-opacity:1;fill-rule:nonzero;stroke:none"
     d="m 999.46217,256.26967 -1.25,0.9082 -0.47659,1.46876 0.47659,1.4707 1.25,0.9082 1.54493,0 1.25,-0.9082 0.4785,-1.4707 -0.4785,-1.46876 -1.25,-0.9082 -1.54493,0 z"
     id="path6857"
     inkscape:connector-curvature="0" /><path
     style="fill:#000000;fill-opacity:1;fill-rule:nonzero;stroke:none"
     d="m 62.425045,256.81655 -1.249998,0.90625 -0.478516,1.4707 0.478516,1.46875 1.249998,0.9082 1.54492,0 1.25,-0.9082 0.47657,-1.46875 -0.47657,-1.4707 -1.25,-0.90625 -1.54492,0 z"
     id="path6855"
     inkscape:connector-curvature="0" /><path
     style="fill:#000000;fill-opacity:1;fill-rule:nonzero;stroke:none"
     d="m 503.88598,260.25209 -1.25,0.90821 -0.47655,1.46875 0.47655,1.46875 1.25,0.91015 1.54493,0 1.25,-0.91015 0.47852,-1.46875 -0.47852,-1.46875 -1.25,-0.90821 -1.54493,0 z"
     id="path6853"
     inkscape:connector-curvature="0" /><path
     style="fill:#000000;fill-opacity:1;fill-rule:nonzero;stroke:none"
     d="m 708.95043,260.6017 -1.25,0.90625 -0.47655,1.47071 0.47655,1.46875 1.25,0.9082 1.54688,0 1.25,-0.9082 0.47656,-1.46875 -0.47656,-1.47071 -1.25,-0.90625 -1.54688,0 z"
     id="path6851"
     inkscape:connector-curvature="0" /><path
     style="fill:#000000;fill-opacity:1;fill-rule:nonzero;stroke:none"
     d="m 589.32934,260.64077 -1.25,0.9082 -0.47655,1.46875 0.47655,1.4707 1.25,0.90821 1.54493,0 1.25,-0.90821 0.47852,-1.4707 -0.47852,-1.46875 -1.25,-0.9082 -1.54493,0 z"
     id="path6849"
     inkscape:connector-curvature="0" /><path
     style="fill:#000000;fill-opacity:1;fill-rule:nonzero;stroke:none"
     d="m 743.12818,265.42397 -1.25,0.9082 -0.47461,1.46875 0.47461,1.47071 1.25,0.90624 1.54687,0 1.25,-0.90624 0.47852,-1.47071 -0.47852,-1.46875 -1.25,-0.9082 -1.54687,0 z"
     id="path6847"
     inkscape:connector-curvature="0" /><path
     style="fill:#000000;fill-opacity:1;fill-rule:nonzero;stroke:none"
     d="m 486.79615,265.73061 -1.25,0.9082 -0.47658,1.46875 0.47658,1.47071 1.25,0.9082 1.54492,0 1.25,-0.9082 0.47851,-1.47071 -0.47851,-1.46875 -1.25,-0.9082 -1.54492,0 z"
     id="path6845"
     inkscape:connector-curvature="0" /><path
     style="fill:#000000;fill-opacity:1;fill-rule:nonzero;stroke:none"
     d="m 674.77466,265.88686 -1.25,0.9082 -0.47851,1.46875 0.47851,1.46875 1.25,0.91016 1.54492,0 1.25,-0.91016 0.47657,-1.46875 -0.47657,-1.46875 -1.25,-0.9082 -1.54492,0 z"
     id="path6843"
     inkscape:connector-curvature="0" /><path
     style="fill:#000000;fill-opacity:1;fill-rule:nonzero;stroke:none"
     d="m 988.06958,266.11147 -1.25,0.91016 -0.4766,1.46874 0.4766,1.46876 1.25,0.9082 1.5449,0 1.25,-0.9082 0.4785,-1.46876 -0.4785,-1.46874 -1.25,-0.91016 -1.5449,0 z"
     id="path6841"
     inkscape:connector-curvature="0" /><path
     style="fill:#000000;fill-opacity:1;fill-rule:nonzero;stroke:none"
     d="m 948.19457,266.83413 -1.25,0.90624 -0.47655,1.47071 0.47655,1.46875 1.25,0.9082 1.54688,0 1.25,-0.9082 0.47656,-1.46875 -0.47656,-1.47071 -1.25,-0.90624 -1.54688,0 z"
     id="path6839"
     inkscape:connector-curvature="0" /><path
     style="fill:#000000;fill-opacity:1;fill-rule:nonzero;stroke:none"
     d="m 623.50707,267.13491 -1.25,0.9082 -0.47655,1.46875 0.47655,1.4707 1.25,0.90625 1.54493,0 1.25,-0.90625 0.47852,-1.4707 -0.47852,-1.46875 -1.25,-0.9082 -1.54493,0 z"
     id="path6837"
     inkscape:connector-curvature="0" /><path
     style="fill:#000000;fill-opacity:1;fill-rule:nonzero;stroke:none"
     d="m 777.30786,267.56655 -1.25,0.9082 -0.47852,1.4707 0.47852,1.46875 1.25,0.90821 1.54493,0 1.25,-0.90821 0.47655,-1.46875 -0.47655,-1.4707 -1.25,-0.9082 -1.54493,0 z"
     id="path6835"
     inkscape:connector-curvature="0" /><path
     style="fill:#000000;fill-opacity:1;fill-rule:nonzero;stroke:none"
     d="m 555.15357,268.2892 -1.25,0.91016 -0.47852,1.46875 0.47852,1.46875 1.25,0.9082 1.54492,0 1.25,-0.9082 0.47656,-1.46875 -0.47656,-1.46875 -1.25,-0.91016 -1.54492,0 z"
     id="path6833"
     inkscape:connector-curvature="0" /><path
     style="fill:#000000;fill-opacity:1;fill-rule:nonzero;stroke:none"
     d="m 828.57348,268.40248 -1.25,0.90821 -0.47655,1.46875 0.47655,1.4707 1.25,0.90625 1.54493,0 1.25,-0.90625 0.47852,-1.4707 -0.47852,-1.46875 -1.25,-0.90821 -1.54493,0 z"
     id="path6831"
     inkscape:connector-curvature="0" /><path
     style="fill:#000000;fill-opacity:1;fill-rule:nonzero;stroke:none"
     d="m 879.84107,268.5353 -1.25,0.9082 -0.47852,1.4707 0.47852,1.46875 1.25,0.90821 1.54492,0 1.25,-0.90821 0.47656,-1.46875 -0.47656,-1.4707 -1.25,-0.9082 -1.54492,0 z"
     id="path6829"
     inkscape:connector-curvature="0" /><path
     style="fill:#000000;fill-opacity:1;fill-rule:nonzero;stroke:none"
     d="m 845.66332,268.56459 -1.25,0.90821 -0.47851,1.46875 0.084,0.26172 -0.084,0.25976 0.47851,1.46875 1.25,0.91016 1.54493,0 1.25,-0.91016 0.47656,-1.46875 -0.084,-0.25976 0.084,-0.26172 -0.18946,-0.0625 0.18946,0.0625 -0.47656,-1.46875 -1.25,-0.90821 -1.54493,0 z"
     id="path6827"
     inkscape:connector-curvature="0" /><path
     style="fill:#000000;fill-opacity:1;fill-rule:nonzero;stroke:none"
     d="m 691.86255,269.29702 -1.25,0.9082 -0.47656,1.46875 0.47656,1.4707 1.25,0.9082 1.54492,0 1.25,-0.9082 0.47852,-1.4707 -0.47852,-1.46875 -1.25,-0.9082 -1.54492,0 z"
     id="path6825"
     inkscape:connector-curvature="0" /><path
     style="fill:#000000;fill-opacity:1;fill-rule:nonzero;stroke:none"
     d="m 1033.6399,269.61147 -1.25,0.9082 -0.4765,1.46875 0.4765,1.47071 1.25,0.90624 1.5449,0 1.25,-0.90624 0.4786,-1.47071 -0.4786,-1.46875 -1.25,-0.9082 -1.5449,0 z"
     id="path6823"
     inkscape:connector-curvature="0" /><path
     style="fill:#000000;fill-opacity:1;fill-rule:nonzero;stroke:none"
     d="m 572.24145,270.01381 -1.25,0.90821 -0.47852,1.46875 0.47852,1.4707 1.25,0.90625 1.54493,0 1.25,-0.90625 0.47655,-1.4707 -0.47655,-1.46875 -1.25,-0.90821 -1.54493,0 z"
     id="path6821"
     inkscape:connector-curvature="0" /><path
     style="fill:#000000;fill-opacity:1;fill-rule:nonzero;stroke:none"
     d="m 862.75121,270.24623 -1.25,0.90821 -0.47655,1.46875 0.47655,1.4707 1.25,0.90625 1.54494,0 1.25,-0.90625 0.47851,-1.4707 -0.47851,-1.46875 -1.25,-0.90821 -1.54494,0 z"
     id="path6819"
     inkscape:connector-curvature="0" /><path
     style="fill:#000000;fill-opacity:1;fill-rule:nonzero;stroke:none"
     d="m 794.39575,270.32827 -1.25,0.9082 -0.47657,1.4707 0.47657,1.46875 1.25,0.90821 1.54493,0 1.25,-0.90821 0.47851,-1.46875 -0.47851,-1.4707 -1.25,-0.9082 -1.54493,0 z"
     id="path6817"
     inkscape:connector-curvature="0" /><path
     style="fill:#000000;fill-opacity:1;fill-rule:nonzero;stroke:none"
     d="m 520.97582,270.69936 -1.25,0.9082 -0.47851,1.46875 0.47851,1.47071 1.25,0.9082 1.54493,0 1.25,-0.9082 0.47656,-1.47071 -0.47656,-1.46875 -1.25,-0.9082 -1.54493,0 z"
     id="path6815"
     inkscape:connector-curvature="0" /><path
     style="fill:#000000;fill-opacity:1;fill-rule:nonzero;stroke:none"
     d="m 469.70825,271.01186 -1.25,0.9082 -0.47852,1.46875 0.47852,1.46875 1.25,0.91016 1.54492,0 1.25,-0.91016 0.47656,-1.46875 -0.47656,-1.46875 -1.25,-0.9082 -1.54492,0 z"
     id="path6813"
     inkscape:connector-curvature="0" /><path
     style="fill:#000000;fill-opacity:1;fill-rule:nonzero;stroke:none"
     d="m 452.6184,271.4728 -1.25,0.9082 -0.47656,1.4707 0.47656,1.46875 1.25,0.90821 1.54492,0 1.25,-0.90821 0.47852,-1.46875 -0.47852,-1.4707 -1.25,-0.9082 -1.54492,0 z"
     id="path6811"
     inkscape:connector-curvature="0" /><path
     style="fill:#000000;fill-opacity:1;fill-rule:nonzero;stroke:none"
     d="m 965.28438,271.57045 -1.25,0.90625 -0.4765,1.47071 0.4765,1.46875 1.25,0.9082 1.545,0 1.25,-0.9082 0.4785,-1.46875 -0.4785,-1.47071 -1.25,-0.90625 -1.545,0 z"
     id="path6809"
     inkscape:connector-curvature="0" /><path
     style="fill:#000000;fill-opacity:1;fill-rule:nonzero;stroke:none"
     d="m 418.44067,272.02163 -1.25,0.91015 -0.47656,1.46875 0.47656,1.46875 1.25,0.9082 1.54492,0 1.25,-0.9082 0.47852,-1.46875 -0.47852,-1.46875 -1.25,-0.91015 -1.54492,0 z"
     id="path6807"
     inkscape:connector-curvature="0" /><path
     style="fill:#000000;fill-opacity:1;fill-rule:nonzero;stroke:none"
     d="m 640.59693,272.14858 -1.25,0.9082 -0.47852,1.4707 0.47852,1.46875 1.25,0.90821 1.54492,0 1.25,-0.90821 0.47656,-1.46875 -0.47656,-1.4707 -1.25,-0.9082 -1.54492,0 z"
     id="path6805"
     inkscape:connector-curvature="0" /><path
     style="fill:#000000;fill-opacity:1;fill-rule:nonzero;stroke:none"
     d="m 1067.8176,272.21889 -1.25,0.9082 -0.4765,1.47071 0.4765,1.46875 1.25,0.9082 1.545,0 1.25,-0.9082 0.4785,-1.46875 -0.4785,-1.47071 -1.25,-0.9082 -1.545,0 z"
     id="path6803"
     inkscape:connector-curvature="0" /><path
     style="fill:#000000;fill-opacity:1;fill-rule:nonzero;stroke:none"
     d="m 1016.552,272.35561 -1.25,0.9082 -0.4785,1.46875 0.4785,1.47071 1.25,0.9082 1.5449,0 1.25,-0.9082 0.4766,-1.47071 -0.4766,-1.46875 -1.25,-0.9082 -1.5449,0 z"
     id="path6801"
     inkscape:connector-curvature="0" /><path
     style="fill:#000000;fill-opacity:1;fill-rule:nonzero;stroke:none"
     d="m 1053.5755,272.56069 -1.25,0.90625 -0.4766,1.4707 0.4766,1.46875 1.25,0.9082 1.5468,0 1.25,-0.9082 0.4766,-1.46875 -0.4766,-1.4707 -1.25,-0.90625 -1.5468,0 z"
     id="path6799"
     inkscape:connector-curvature="0" /><path
     style="fill:#000000;fill-opacity:1;fill-rule:nonzero;stroke:none"
     d="m 657.68482,272.80092 -1.25,0.90821 -0.47656,1.46874 0.47656,1.47071 1.25,0.9082 1.54492,0 1.25,-0.9082 0.47852,-1.47071 -0.47852,-1.46874 -1.25,-0.90821 -1.54492,0 z"
     id="path6797"
     inkscape:connector-curvature="0" /><path
     style="fill:#000000;fill-opacity:1;fill-rule:nonzero;stroke:none"
     d="m 538.06371,272.89272 -1.25,0.91015 -0.47655,1.46876 0.47655,1.46874 1.25,0.90821 1.54494,0 1.25,-0.90821 0.47851,-1.46874 -0.47851,-1.46876 -1.25,-0.91015 -1.54494,0 z"
     id="path6795"
     inkscape:connector-curvature="0" /><path
     style="fill:#000000;fill-opacity:1;fill-rule:nonzero;stroke:none"
     d="m 350.08715,273.24428 -1.25,0.91016 -0.4785,1.46875 0.47851,1.46875 1.25,0.9082 1.54491,0 1.25,-0.9082 0.47658,-1.46875 -0.47658,-1.46875 -1.25,-0.91016 -1.54491,0 z"
     id="path6793"
     inkscape:connector-curvature="0" /><path
     style="fill:#000000;fill-opacity:1;fill-rule:nonzero;stroke:none"
     d="m 760.21802,273.28139 -1.25,0.90625 -0.47656,1.4707 0.47656,1.46875 1.25,0.90821 1.54492,0 1.25,-0.90821 0.47852,-1.46875 -0.47852,-1.4707 -1.25,-0.90625 -1.54492,0 z"
     id="path6791"
     inkscape:connector-curvature="0" /><path
     style="fill:#000000;fill-opacity:1;fill-rule:nonzero;stroke:none"
     d="m 435.53052,274.07436 -1.25,0.90625 -0.47852,1.4707 0.47852,1.46875 1.25,0.90821 1.54491,0 1.25,-0.90821 0.47657,-1.46875 -0.47657,-1.4707 -1.25,-0.90625 -1.54491,0 z"
     id="path6789"
     inkscape:connector-curvature="0" /><path
     style="fill:#000000;fill-opacity:1;fill-rule:nonzero;stroke:none"
     d="m 264.64184,274.71303 -1.25,0.9082 -0.47852,1.47071 0.47852,1.46875 1.25,0.9082 1.54493,0 1.25,-0.9082 0.47655,-1.46875 -0.47655,-1.47071 -1.25,-0.9082 -1.54493,0 z"
     id="path6787"
     inkscape:connector-curvature="0" /><path
     style="fill:#000000;fill-opacity:1;fill-rule:nonzero;stroke:none"
     d="m 332.99731,275.33217 -1.25,0.9082 -0.47656,1.46876 0.47656,1.4707 1.25,0.9082 1.54492,0 1.25,-0.9082 0.47852,-1.4707 -0.47852,-1.46876 -1.25,-0.9082 -1.54492,0 z"
     id="path6785"
     inkscape:connector-curvature="0" /><path
     style="fill:#000000;fill-opacity:1;fill-rule:nonzero;stroke:none"
     d="m 127.9309,275.84194 -1.25,0.9082 -0.47656,1.46875 0.47656,1.46875 1.25,0.91016 1.54492,0 1.25,-0.91016 0.47852,-1.46875 -0.47852,-1.46875 -1.25,-0.9082 -1.54492,0 z"
     id="path6783"
     inkscape:connector-curvature="0" /><path
     style="fill:#000000;fill-opacity:1;fill-rule:nonzero;stroke:none"
     d="m 42.487547,276.07631 -1.25,0.91016 -0.478516,1.46875 0.478516,1.46875 1.25,0.91016 1.544922,0 1.25,-0.91016 0.476562,-1.46875 -0.476562,-1.46875 -1.25,-0.91016 -1.544922,0 z"
     id="path6781"
     inkscape:connector-curvature="0" /><path
     style="fill:#000000;fill-opacity:1;fill-rule:nonzero;stroke:none"
     d="m 931.10668,276.07631 -1.25,0.90821 -0.47851,1.46875 0.47851,1.4707 1.25,0.90625 1.54493,0 1.25,-0.90625 0.47657,-1.4707 -0.47657,-1.46875 -1.25,-0.90821 -1.54493,0 z"
     id="path6779"
     inkscape:connector-curvature="0" /><path
     style="fill:#000000;fill-opacity:1;fill-rule:nonzero;stroke:none"
     d="m 914.01684,276.26967 -1.25,0.9082 -0.47655,1.46876 0.47655,1.46874 1.25,0.91016 1.54493,0 1.25,-0.91016 0.47852,-1.46874 -0.47852,-1.46876 -1.25,-0.9082 -1.54493,0 z"
     id="path6777"
     inkscape:connector-curvature="0" /><path
     style="fill:#000000;fill-opacity:1;fill-rule:nonzero;stroke:none"
     d="m 145.02075,276.42397 -1.25,0.9082 -0.47852,1.4707 0.47852,1.46876 1.25,0.9082 1.54492,0 1.25,-0.9082 0.47656,-1.46876 -0.47656,-1.4707 -1.25,-0.9082 -1.54492,0 z"
     id="path256"
     inkscape:connector-curvature="0" /><g
     id="g6891"
     transform="translate(-58.338625,-35.837748)"><g
       transform="matrix(1.25,0,0,-1.25,0,534)"
       id="g1184"><text
         id="text1186"
         style="font-variant:normal;font-weight:normal;font-size:10px;font-family:Helvetica;-inkscape-font-specification:Helvetica;writing-mode:lr-tb;fill:#000000;fill-opacity:1;fill-rule:nonzero;stroke:none"
         transform="matrix(1,0,0,-1,844.865,265.159)"><tspan
           id="tspan1188"
           sodipodi:role="line"
           y="0"
           x="0">Agri-fertilizer</tspan><tspan
           id="tspan1190"
           sodipodi:role="line"
           y="12.5"
           x="0">Vehicle</tspan><tspan
           id="tspan1192"
           sodipodi:role="line"
           y="25"
           x="0">Total NH4</tspan></text>
</g><path
       inkscape:connector-curvature="0"
       id="path1194"
       style="fill:none;stroke:#be3200;stroke-width:0.625;stroke-linecap:butt;stroke-linejoin:miter;stroke-miterlimit:10;stroke-dasharray:none;stroke-opacity:1"
       d="m 1032.445,198.30125 17.3263,0" /><path
       inkscape:connector-curvature="0"
       id="path1196"
       style="fill:none;stroke:#0000b4;stroke-width:0.625;stroke-linecap:butt;stroke-linejoin:miter;stroke-miterlimit:10;stroke-dasharray:none;stroke-opacity:1"
       d="m 1032.445,213.34287 17.3263,0" /><g
       id="g4383"
       transform="translate(-4,2)"><path
         inkscape:connector-curvature="0"
         style="fill:#000000;fill-opacity:1;fill-rule:nonzero;stroke:none"
         d="m 1044.3359,224.5293 -1.25,0.9082 -0.4765,1.46875 0.4765,1.4707 1.25,0.90625 1.545,0 1.25,-0.90625 0.4785,-1.4707 -0.4785,-1.46875 -1.25,-0.9082 -1.545,0 z"
         id="path6887" /><path
         d="m 1036.445,226.90625 17.3263,0"
         style="fill:none;stroke:#000000;stroke-width:0.625;stroke-linecap:butt;stroke-linejoin:miter;stroke-miterlimit:10;stroke-dasharray:3.75, 3.75;stroke-dashoffset:0;stroke-opacity:1"
         id="path1198"
         inkscape:connector-curvature="0" /></g><path
       inkscape:connector-curvature="0"
       id="path4367"
       style="fill:#be3200;stroke:none;stroke-width:0.625;stroke-linecap:butt;stroke-linejoin:miter;stroke-miterlimit:10;stroke-dasharray:none;stroke-opacity:1;fill-opacity:0.19607843"
       d="m 1049.7713,200.30125 -17.3263,0 0,-4 17.3263,0"
       sodipodi:nodetypes="cccc" /><path
       inkscape:connector-curvature="0"
       id="path4371"
       style="fill:#0000b4;stroke:none;stroke-width:0.625;stroke-linecap:butt;stroke-linejoin:miter;stroke-miterlimit:10;stroke-dasharray:none;stroke-opacity:1;fill-opacity:0.19607843"
       d="m 1049.7713,215.34287 -17.3263,0 0,-4 17.3263,0"
       sodipodi:nodetypes="cccc" /></g><path
     d="m 40.466125,442.712 1033.814075,0"
     style="fill:none;stroke:#000000;stroke-width:0.625;stroke-linecap:butt;stroke-linejoin:miter;stroke-miterlimit:10;stroke-dasharray:20, 0;stroke-dashoffset:0;stroke-opacity:1"
     id="path1216"
     inkscape:connector-curvature="0" /><path
     d="m 40.466125,442.712 0,-111.29725"
     style="fill:none;stroke:#000000;stroke-width:0.625;stroke-linecap:butt;stroke-linejoin:miter;stroke-miterlimit:10;stroke-dasharray:20, 0;stroke-dashoffset:0;stroke-opacity:1"
     id="path1218"
     inkscape:connector-curvature="0" /><path
     d="m 43.350375,442.712 0,-10.34275"
     style="fill:none;stroke:#000000;stroke-width:0.625;stroke-linecap:butt;stroke-linejoin:miter;stroke-miterlimit:10;stroke-dasharray:20, 0;stroke-dashoffset:0;stroke-opacity:1"
     id="path1220"
     inkscape:connector-curvature="0" /><path
     d="m 131.51512,442.712 0,-10.34275"
     style="fill:none;stroke:#000000;stroke-width:0.625;stroke-linecap:butt;stroke-linejoin:miter;stroke-miterlimit:10;stroke-dasharray:20, 0;stroke-dashoffset:0;stroke-opacity:1"
     id="path1222"
     inkscape:connector-curvature="0" /><path
     d="m 211.30387,442.712 0,-10.34275"
     style="fill:none;stroke:#000000;stroke-width:0.625;stroke-linecap:butt;stroke-linejoin:miter;stroke-miterlimit:10;stroke-dasharray:20, 0;stroke-dashoffset:0;stroke-opacity:1"
     id="path1224"
     inkscape:connector-curvature="0" /><path
     d="m 299.60637,442.712 0,-10.34275"
     style="fill:none;stroke:#000000;stroke-width:0.625;stroke-linecap:butt;stroke-linejoin:miter;stroke-miterlimit:10;stroke-dasharray:20, 0;stroke-dashoffset:0;stroke-opacity:1"
     id="path1226"
     inkscape:connector-curvature="0" /><path
     d="m 385.02512,442.712 0,-10.34275"
     style="fill:none;stroke:#000000;stroke-width:0.625;stroke-linecap:butt;stroke-linejoin:miter;stroke-miterlimit:10;stroke-dasharray:20, 0;stroke-dashoffset:0;stroke-opacity:1"
     id="path1228"
     inkscape:connector-curvature="0" /><path
     d="m 473.32762,442.712 0,-10.34275"
     style="fill:none;stroke:#000000;stroke-width:0.625;stroke-linecap:butt;stroke-linejoin:miter;stroke-miterlimit:10;stroke-dasharray:20, 0;stroke-dashoffset:0;stroke-opacity:1"
     id="path1230"
     inkscape:connector-curvature="0" /><path
     d="m 558.74638,442.712 0,-10.34275"
     style="fill:none;stroke:#000000;stroke-width:0.625;stroke-linecap:butt;stroke-linejoin:miter;stroke-miterlimit:10;stroke-dasharray:20, 0;stroke-dashoffset:0;stroke-opacity:1"
     id="path1232"
     inkscape:connector-curvature="0" /><path
     d="m 647.04888,442.712 0,-10.34275"
     style="fill:none;stroke:#000000;stroke-width:0.625;stroke-linecap:butt;stroke-linejoin:miter;stroke-miterlimit:10;stroke-dasharray:20, 0;stroke-dashoffset:0;stroke-opacity:1"
     id="path1234"
     inkscape:connector-curvature="0" /><path
     d="m 735.35138,442.712 0,-10.34275"
     style="fill:none;stroke:#000000;stroke-width:0.625;stroke-linecap:butt;stroke-linejoin:miter;stroke-miterlimit:10;stroke-dasharray:20, 0;stroke-dashoffset:0;stroke-opacity:1"
     id="path1236"
     inkscape:connector-curvature="0" /><path
     d="m 820.77012,442.712 0,-10.34275"
     style="fill:none;stroke:#000000;stroke-width:0.625;stroke-linecap:butt;stroke-linejoin:miter;stroke-miterlimit:10;stroke-dasharray:20, 0;stroke-dashoffset:0;stroke-opacity:1"
     id="path1238"
     inkscape:connector-curvature="0" /><path
     d="m 909.07263,442.712 0,-10.34275"
     style="fill:none;stroke:#000000;stroke-width:0.625;stroke-linecap:butt;stroke-linejoin:miter;stroke-miterlimit:10;stroke-dasharray:20, 0;stroke-dashoffset:0;stroke-opacity:1"
     id="path1240"
     inkscape:connector-curvature="0" /><path
     d="m 994.62887,442.712 0,-10.34275"
     style="fill:none;stroke:#000000;stroke-width:0.625;stroke-linecap:butt;stroke-linejoin:miter;stroke-miterlimit:10;stroke-dasharray:20, 0;stroke-dashoffset:0;stroke-opacity:1"
     id="path1242"
     inkscape:connector-curvature="0" /><g
     id="g1244"
     transform="matrix(1.25,0,0,-1.25,-38.338625,514.16225)"><text
       transform="matrix(1,0,0,-1,37.2535,42.1578)"
       style="font-variant:normal;font-weight:normal;font-size:10px;font-family:Helvetica;-inkscape-font-specification:Helvetica;writing-mode:lr-tb;fill:#000000;fill-opacity:1;fill-rule:nonzero;stroke:none"
       id="text1246"><tspan
         x="0 5.5599999 11.12 14.45 19.450001 25.01 30.57 33.900002 39.459999 45.02 50.580002 70.119904 75.679901 81.239899 84.569901 90.679901 96.239899 101.7999 105.1299 110.6899 116.2499 121.8099 133.93474 139.49474 145.05473 148.38474 156.71474 162.27473 165.60474 168.93474 174.49474 180.05473 185.61475 205.33864 210.89864 216.45863 219.78864 226.45863 232.01865 235.34863 238.67863 244.23865 249.79865 255.35864 272.02695 277.58694 283.14694 286.47693 294.80695 300.36694 305.36694 308.69693 314.25693 319.81693 325.37695 344.08673 349.64673 355.20673 358.53674 363.53674 369.09674 374.65674 377.98672 383.54675 389.10675 394.66675 414.10983 419.66983 425.22983 428.55984 433.55984 439.11984 441.33984 444.66983 450.22983 455.78983 461.34985 482.17896 487.73895 493.29895 496.62894 503.29895 508.85895 514.41895 517.74896 523.30896 528.86896 534.42896 552.85394 558.41394 563.97394 567.30396 573.97394 579.53394 585.09393 588.42395 593.98395 599.54395 605.10394 622.32196 627.88196 633.44196 636.77191 644.55194 649.55194 652.33197 655.66193 661.22192 666.78192 672.34192 691.88684 697.44684 703.00684 706.33685 713.55682 719.11682 724.11682 727.44684 733.00684 738.56683 744.12683 760.23883 765.79883 771.35883 774.68884 781.90881 787.46881 792.46881 795.79883 801.35883 806.91882 812.47882"
         y="0"
         sodipodi:role="line"
         id="tspan1248">01-Jan-201301-Feb-201301-Mar-201301-Apr-201301-May-201301-Jun-201301-Jul-201301-Aug-201301-Sep-201301-Oct-201301-Nov-201301-Dec-2013</tspan></text>
</g><path
     d="m 40.466125,442.712 10.29975,0"
     style="fill:none;stroke:#000000;stroke-width:0.625;stroke-linecap:butt;stroke-linejoin:miter;stroke-miterlimit:10;stroke-dasharray:20, 0;stroke-dashoffset:0;stroke-opacity:1"
     id="path1250"
     inkscape:connector-curvature="0" /><path
     d="m 40.466125,422.47625 10.29975,0"
     style="fill:none;stroke:#000000;stroke-width:0.625;stroke-linecap:butt;stroke-linejoin:miter;stroke-miterlimit:10;stroke-dasharray:20, 0;stroke-dashoffset:0;stroke-opacity:1"
     id="path1252"
     inkscape:connector-curvature="0" /><path
     d="m 40.466125,402.24037 10.29975,0"
     style="fill:none;stroke:#000000;stroke-width:0.625;stroke-linecap:butt;stroke-linejoin:miter;stroke-miterlimit:10;stroke-dasharray:20, 0;stroke-dashoffset:0;stroke-opacity:1"
     id="path1254"
     inkscape:connector-curvature="0" /><path
     d="m 40.466125,382.00475 10.29975,0"
     style="fill:none;stroke:#000000;stroke-width:0.625;stroke-linecap:butt;stroke-linejoin:miter;stroke-miterlimit:10;stroke-dasharray:20, 0;stroke-dashoffset:0;stroke-opacity:1"
     id="path1256"
     inkscape:connector-curvature="0" /><path
     d="m 40.466125,361.7685 10.29975,0"
     style="fill:none;stroke:#000000;stroke-width:0.625;stroke-linecap:butt;stroke-linejoin:miter;stroke-miterlimit:10;stroke-dasharray:20, 0;stroke-dashoffset:0;stroke-opacity:1"
     id="path1258"
     inkscape:connector-curvature="0" /><path
     d="m 40.466125,341.53225 10.29975,0"
     style="fill:none;stroke:#000000;stroke-width:0.625;stroke-linecap:butt;stroke-linejoin:miter;stroke-miterlimit:10;stroke-dasharray:20, 0;stroke-dashoffset:0;stroke-opacity:1"
     id="path1260"
     inkscape:connector-curvature="0" /><g
     id="g1262"
     transform="matrix(1.25,0,0,-1.25,-38.338625,514.16225)"><text
       transform="matrix(1,0,0,-1,43.6035,52.1602)"
       style="font-variant:normal;font-weight:normal;font-size:10px;font-family:Helvetica;-inkscape-font-specification:Helvetica;writing-mode:lr-tb;fill:#000000;fill-opacity:1;fill-rule:nonzero;stroke:none"
       id="text1264"><tspan
         x="0 3.3299999 8.8900003"
         y="0"
         sodipodi:role="line"
         id="tspan1266">-50</tspan><tspan
         x="0 3.3299999 8.8900003"
         y="-16.1887"
         sodipodi:role="line"
         id="tspan1268">-40</tspan><tspan
         x="0 3.3299999 8.8900003"
         y="-32.377399"
         sodipodi:role="line"
         id="tspan1270">-30</tspan><tspan
         x="0 3.3299999 8.8900003"
         y="-48.566101"
         sodipodi:role="line"
         id="tspan1272">-20</tspan><tspan
         x="0 3.3299999 8.8900003"
         y="-64.754799"
         sodipodi:role="line"
         id="tspan1274">-10</tspan><tspan
         x="8.8894501"
         y="-80.943901"
         id="tspan1276">0</tspan></text>
<text
       transform="matrix(0,1,1,0,37.9609,94.4543)"
       style="font-variant:normal;font-weight:normal;font-size:10px;font-family:Helvetica;-inkscape-font-specification:Helvetica;writing-mode:lr-tb;fill:#000000;fill-opacity:1;fill-rule:nonzero;stroke:none"
       id="text1278"><tspan
         x="0 2.78 11.67"
         y="0"
         sodipodi:role="line"
         id="tspan1280">[%]</tspan></text>
</g><path
     d="m 43.350375,383.196 19.91263,29.44725 14.14499,6.88862 17.16588,4.374 34.194995,-44.05112"
     style="fill:none;stroke:#1f77b4;stroke-width:0.625;stroke-linecap:butt;stroke-linejoin:miter;stroke-miterlimit:10;stroke-dasharray:none;stroke-opacity:1"
     id="path1282"
     inkscape:connector-curvature="0" /><path
     d="m 162.96387,425.34437 17.02875,1.16113 17.02875,5.71 17.16625,2.15675 17.02875,-30.47713 17.16625,25.57625 17.02876,-52.61662 17.16624,46.38412 17.02875,8.45463 17.16625,-8.11037 17.02875,-43.05713 17.02875,-10.34625 51.36125,38.2525 17.02875,-24.09875 17.16625,-7.1625 17.02875,4.7575 17.02875,13.5565 17.16626,-14.8465 17.02874,-0.55 17.16625,-8.41125 17.02875,11.285 17.16625,2.37 17.02875,-19.12875 17.16625,10.29625 17.02875,3.83875 17.02875,-7.875 17.16625,-22.33 17.02875,19.81125 17.16625,1.09875 17.02875,-0.2 17.16625,0.72 17.02875,10.6625 17.02875,-8.20125 17.16625,-5.58125"
     style="fill:none;stroke:#1f77b4;stroke-width:0.625;stroke-linecap:butt;stroke-linejoin:miter;stroke-miterlimit:10;stroke-dasharray:none;stroke-opacity:1"
     id="path1284"
     inkscape:connector-curvature="0" /><path
     d="m 795.22762,377.68225 17.02875,11.815 17.165,-20.435 17.03,9.06625 0,-1.275 17.165,17.02162 17.03,-22.60037"
     style="fill:none;stroke:#1f77b4;stroke-width:0.625;stroke-linecap:butt;stroke-linejoin:miter;stroke-miterlimit:10;stroke-dasharray:none;stroke-opacity:1"
     id="path1286"
     inkscape:connector-curvature="0" /><path
     d="m 949.03512,399.6085 17.02875,-27.20375 22.7975,17.17012 11.39753,19.68801 17.0287,-21.67438 17.1663,-6.53625 19.9137,-12.88375 14.2813,-1.8725"
     style="fill:none;stroke:#1f77b4;stroke-width:0.625;stroke-linecap:butt;stroke-linejoin:miter;stroke-miterlimit:10;stroke-dasharray:none;stroke-opacity:1"
     id="path1288"
     inkscape:connector-curvature="0" /><path
     d="m 162.96387,424.70175 17.02875,1.16112 17.02875,5.71 17.16625,2.15675 17.02875,-30.477 17.16625,25.57613 17.02876,-52.6165 17.16624,46.38462 17.02875,8.45401 17.16625,-8.10988 17.02875,-43.0575 17.02875,-10.34625 51.36125,38.2525 17.02875,-24.09875 17.16625,-7.1625 17.02875,4.7575 17.02875,12.04075 17.16626,-13.33075 17.02874,-0.55 17.16625,-8.41125 17.02875,11.285 17.16625,0.855 17.02875,-17.61375 17.16625,8.78 17.02875,3.83875 17.02875,-6.35875 17.16625,-22.33 17.02875,19.81125 17.16625,1.09875 17.02875,-1.71625 17.16625,2.23625 17.02875,10.6625 17.02875,-8.20125 17.16625,-5.58125 0,1.285 -17.16625,5.58125 -17.02875,8.20125 -17.02875,-10.6625 -17.16625,0.795 -17.02875,-1.315 -17.16625,-1.09875 -17.02875,-19.81125 -17.16625,22.33 -17.02875,9.39 -17.02875,-3.83875 -17.16625,-11.81125 -17.02875,20.645 -17.16625,-3.88625 -17.02875,-11.285 -17.16625,8.41125 -17.02874,0.55 -17.16625,16.36225 -17.02876,-15.07225 -17.02874,-4.7575 -17.16625,7.1625 -17.02876,24.09887 -51.36125,-38.25262 -17.02875,10.34625 -17.02875,43.05725 -17.16625,8.11037 -17.02875,-8.45462 -17.16624,-46.38425 -17.02876,52.61662 -17.16625,-25.57612 -17.02875,30.477 -17.16625,-2.15675 -17.02875,-5.70988 -17.02875,-1.16112"
     style="fill:#1f77b4;fill-opacity:0.19607843;stroke:none;stroke-width:0.625;stroke-linecap:butt;stroke-linejoin:miter;stroke-miterlimit:10;stroke-dasharray:5, 6.25, 1.25, 7.5;stroke-dashoffset:0;stroke-opacity:1"
     id="path1292"
     inkscape:connector-curvature="0"
     sodipodi:nodetypes="cccccccccccccccccccccccccccccccccccccccccccccccccccccccccccccccccccc" /><path
     d="m 795.22762,377.03975 17.02875,11.815 17.165,-21.95 17.03,9.06625 0,-1.27625 17.165,17.02212 17.03,-22.59962 0,4.31625 -17.03,22.59987 -17.165,-17.02237 0,1.27625 -17.03,-9.06625 -17.165,18.91875 -17.02875,-11.815"
     style="fill:#1f77b4;fill-opacity:0.19607843;stroke:none;stroke-width:0.625;stroke-linecap:butt;stroke-linejoin:miter;stroke-miterlimit:10;stroke-dasharray:5, 6.25, 1.25, 7.5;stroke-dashoffset:0;stroke-opacity:1"
     id="path1294"
     inkscape:connector-curvature="0"
     sodipodi:nodetypes="cccccccccccccc" /><path
     d="m 949.03512,397.45037 17.02875,-27.20437 22.7975,17.17125 11.39753,19.68738 17.0287,-21.67363 17.1663,-6.5375 19.9137,-12.8825 14.2813,-1.87375 0,4.31625 -14.2813,1.87375 -19.9137,12.8825 -17.1663,6.537 -17.0287,21.67425 -11.39753,-19.688 -22.7975,-17.17075 -17.02875,27.204"
     style="fill:#1f77b4;fill-opacity:0.19607843;stroke:none;stroke-width:0.625;stroke-linecap:butt;stroke-linejoin:miter;stroke-miterlimit:10;stroke-dasharray:5, 6.25, 1.25, 7.5;stroke-dashoffset:0;stroke-opacity:1"
     id="path1296"
     inkscape:connector-curvature="0"
     sodipodi:nodetypes="cccccccccccccccc" /><path
     d="m 43.350375,383.8385 19.91262,29.44725 14.145,6.88875 17.16588,4.374 34.194995,-44.05125 0,-1.285 -34.194995,44.05113 -17.16588,-4.37413 -14.14499,-6.88863 -19.91263,-29.44712"
     style="fill:#1f77b4;fill-opacity:0.19607843;stroke:none;stroke-width:0.625;stroke-linecap:butt;stroke-linejoin:miter;stroke-miterlimit:10;stroke-dasharray:5, 6.25, 1.25, 7.5;stroke-dashoffset:0;stroke-opacity:1"
     id="path1298"
     inkscape:connector-curvature="0"
     sodipodi:nodetypes="cccccccccc" /><path
     d="m 43.350375,384.21475 19.91262,28.93962 14.145,4.48738 17.16588,2.19875 34.194995,-39.09325"
     style="fill:none;stroke:#ff7f0e;stroke-width:0.625;stroke-linecap:butt;stroke-linejoin:miter;stroke-miterlimit:10;stroke-dasharray:none;stroke-opacity:1"
     id="path1306"
     inkscape:connector-curvature="0" /><path
     d="m 162.96387,420.383 17.02875,0.48575 17.02875,1.69387 17.16625,0.40625 17.02875,-17.55862 17.16625,16.48387 17.02876,-44.26562 17.16624,41.95662 17.02875,2.87301 17.16625,-2.72313 17.02875,-38.3015 17.02875,-10.73 51.36125,39.00363 17.02875,-24.32113 17.16625,-7.42125 17.02875,4.93125 17.02875,14.045 17.16626,-15.37625 17.02874,-0.5775 17.16625,-8.72625 17.02875,11.715 17.16625,2.45 17.02875,-19.85 17.16625,10.68125 17.02875,3.99125 17.02875,-8.17875 17.16625,-20.13875 17.02875,17.545 17.16625,1.12625 17.02875,-0.21125 17.16625,0.74625 17.02875,11.07625 17.02875,-8.5175 17.16625,-5.7975"
     style="fill:none;stroke:#ff7f0e;stroke-width:0.625;stroke-linecap:butt;stroke-linejoin:miter;stroke-miterlimit:10;stroke-dasharray:none;stroke-opacity:1"
     id="path1308"
     inkscape:connector-curvature="0" /><path
     d="m 795.22762,378.48725 17.02875,12.26675 17.165,-21.21425 17.03,9.41375 0,-1.325 17.165,17.65725 17.03,-23.44975"
     style="fill:none;stroke:#ff7f0e;stroke-width:0.625;stroke-linecap:butt;stroke-linejoin:miter;stroke-miterlimit:10;stroke-dasharray:none;stroke-opacity:1"
     id="path1310"
     inkscape:connector-curvature="0" /><path
     d="m 949.03512,401.11537 17.02875,-28.10562 22.7975,17.818 11.39753,19.55962 17.0287,-21.62012 17.1663,-6.78 19.9137,-13.37 14.2813,-1.945"
     style="fill:none;stroke:#ff7f0e;stroke-width:0.625;stroke-linecap:butt;stroke-linejoin:miter;stroke-miterlimit:10;stroke-dasharray:none;stroke-opacity:1"
     id="path1312"
     inkscape:connector-curvature="0" /><path
     d="m 43.350375,379.59475 19.91263,25.53337 14.14499,3.92525 17.16588,1.92188 34.194995,-34.49175 0,8.52625 -34.194995,43.6965 -17.16588,-2.47663 -14.14499,-5.04887 -19.91263,-32.346"
     style="fill:#ff7f0e;fill-opacity:0.19607843;stroke:none;stroke-width:0.625;stroke-linecap:butt;stroke-linejoin:miter;stroke-miterlimit:10;stroke-dasharray:5, 6.25, 1.25, 7.5;stroke-dashoffset:0;stroke-opacity:1"
     id="path1314"
     inkscape:connector-curvature="0"
     sodipodi:nodetypes="cccccccccc" /><path
     d="m 162.96387,411.44888 17.02875,0.42474 17.02875,1.4795 17.16625,0.35451 17.02875,-15.36763 17.16625,14.42912 17.02876,-39.10187 17.16624,37.08487 17.02875,2.50975 17.16625,-2.37837 17.02875,-33.7825 17.02875,-9.7725 51.36125,34.7805 17.02875,-21.468 17.16625,-6.66875 17.02875,4.4425 17.02875,12.47362 17.16626,-13.66987 17.02874,-0.51875 17.16625,-7.9325 17.02875,10.61375 17.16625,2.1875 17.02875,-18.0975 17.16625,9.86125 17.02875,3.60375 17.02875,-7.425 17.16625,-19.43375 17.02875,17.04 17.16625,1.0425 17.02875,-0.195 17.16625,0.6875 17.02875,10.04625 17.02875,-7.69875 17.16625,-5.34875 0,6.49625 -17.16625,6.24375 -17.02875,9.3375 -17.02875,-12.10625 -17.16625,-0.80375 -17.02875,0.22625 -17.16625,-1.21 -17.02875,-18.04875 -17.16625,20.8425 -17.02875,8.93375 -17.02875,-4.37875 -17.16625,-11.5025 -17.02875,21.60138 -17.16625,-2.71138 -17.02875,-12.81625 -17.16625,9.52 -17.02874,0.635 -17.16625,17.084 -17.02876,-15.61525 -17.02874,-5.42125 -17.16625,8.17375 -17.02876,27.17437 -51.36124,-43.22687 -17.02876,11.6875 -17.02874,42.821 -17.16625,3.06737 -17.02876,-3.23625 -17.16624,-46.82962 -17.02875,49.43062 -17.16625,-18.5385 -17.02875,19.749 -17.16625,-0.457 -17.02875,-1.90874 -17.02875,-0.54738"
     style="fill:#ff7f0e;fill-opacity:0.19607843;stroke:none;stroke-width:0.625;stroke-linecap:butt;stroke-linejoin:miter;stroke-miterlimit:10;stroke-dasharray:5, 6.25, 1.25, 7.5;stroke-dashoffset:0;stroke-opacity:1"
     id="path1316"
     inkscape:connector-curvature="0"
     sodipodi:nodetypes="cccccccccccccccccccccccccccccccccccccccccccccccccccccccccccccccccccc" /><path
     d="m 795.22762,374.446 17.02875,10.97125 17.165,-19.17 17.03,8.61875 0,-1.1975 17.165,15.75887 17.03,-21.05262 0,6.9225 -17.03,25.84738 -17.165,-19.55488 0,1.45 -17.03,-10.20875 -17.165,23.2605 -17.02875,-13.56175"
     style="fill:#ff7f0e;fill-opacity:0.19607843;stroke:none;stroke-width:0.625;stroke-linecap:butt;stroke-linejoin:miter;stroke-miterlimit:10;stroke-dasharray:5, 6.25, 1.25, 7.5;stroke-dashoffset:0;stroke-opacity:1"
     id="path1318"
     inkscape:connector-curvature="0"
     sodipodi:nodetypes="cccccccccccccc" /><path
     d="m 949.03512,394.56562 17.02875,-25.11087 22.7975,16.0275 11.39753,17.2225 17.0287,-19.0525 17.1663,-6.05375 19.9137,-12.21125 14.2813,-1.825 0,6.22 -14.2813,2.065 -19.9137,14.52875 -17.1663,7.505 -17.0287,24.189 -11.39753,-21.8965 -22.7975,-19.61 -17.02875,31.10163"
     style="fill:#ff7f0e;fill-opacity:0.19607843;stroke:none;stroke-width:0.625;stroke-linecap:butt;stroke-linejoin:miter;stroke-miterlimit:10;stroke-dasharray:5, 6.25, 1.25, 7.5;stroke-dashoffset:0;stroke-opacity:1"
     id="path1320"
     inkscape:connector-curvature="0"
     sodipodi:nodetypes="cccccccccccccccc" /><g
     transform="matrix(1.25,0,0,-1.25,-82.391096,510.08042)"
     id="g6320"><g
       id="g6291"><g
         transform="translate(0,3.2)"
         id="g6283"><path
           d="m 788.3305,152.2 -13.861,0 0,-3.2 13.861,0"
           style="fill:#1f77b4;fill-opacity:0.25882353;stroke:none;stroke-width:0.5;stroke-linecap:butt;stroke-linejoin:miter;stroke-miterlimit:10;stroke-dasharray:none;stroke-opacity:1"
           id="path6223-1"
           inkscape:connector-curvature="0"
           sodipodi:nodetypes="cccc" /><path
           inkscape:connector-curvature="0"
           id="path1250-5"
           style="fill:none;stroke:#1f77b4;stroke-width:0.5;stroke-linecap:butt;stroke-linejoin:miter;stroke-miterlimit:10;stroke-dasharray:none;stroke-opacity:1"
           d="m 774.4695,150.6 13.861,0" /></g><text
         transform="scale(1,-1)"
         sodipodi:linespacing="125%"
         id="text6255"
         y="-149.90665"
         x="791.21655"
         style="color:#000000;font-size:16px;line-height:125%;text-align:start;letter-spacing:0px;word-spacing:0px;text-anchor:start;clip-rule:nonzero;display:inline;overflow:visible;visibility:visible;opacity:1;isolation:auto;mix-blend-mode:normal;color-interpolation:sRGB;color-interpolation-filters:linearRGB;solid-color:#000000;solid-opacity:1;fill:#000000;fill-opacity:1;fill-rule:nonzero;stroke:none;stroke-width:1px;stroke-linecap:butt;stroke-linejoin:miter;stroke-miterlimit:4;stroke-dasharray:none;stroke-dashoffset:0;stroke-opacity:1;color-rendering:auto;image-rendering:auto;shape-rendering:auto;text-rendering:auto;enable-background:accumulate"
         xml:space="preserve"><tspan
           style="font-size:10px"
           y="-149.90665"
           x="791.21655"
           id="tspan6259"
           sodipodi:role="line">δ<tspan
   id="tspan6261"
   style="font-size:8px;baseline-shift:super">15</tspan>N Obs &amp; reconstructed</tspan></text>
</g><g
       transform="translate(0,4.8)"
       id="g6299"><g
         transform="translate(0,-4.8)"
         id="g6287"><path
           sodipodi:nodetypes="cccc"
           inkscape:connector-curvature="0"
           id="path6251"
           style="fill:#ff7f0e;fill-opacity:0.25882353;stroke:none;stroke-width:0.5;stroke-linecap:butt;stroke-linejoin:miter;stroke-miterlimit:10;stroke-dasharray:none;stroke-opacity:1"
           d="m 788.3305,141 -13.861,0 0,-3.2 13.861,0" /><path
           d="m 774.4695,139.4 13.861,0"
           style="fill:none;stroke:#ff7f0e;stroke-width:0.5;stroke-linecap:butt;stroke-linejoin:miter;stroke-miterlimit:10;stroke-dasharray:none;stroke-opacity:1"
           id="path6253"
           inkscape:connector-curvature="0" /></g><text
         xml:space="preserve"
         style="color:#000000;font-size:16px;line-height:125%;text-align:start;letter-spacing:0px;word-spacing:0px;text-anchor:start;clip-rule:nonzero;display:inline;overflow:visible;visibility:visible;opacity:1;isolation:auto;mix-blend-mode:normal;color-interpolation:sRGB;color-interpolation-filters:linearRGB;solid-color:#000000;solid-opacity:1;fill:#000000;fill-opacity:1;fill-rule:nonzero;stroke:none;stroke-width:1px;stroke-linecap:butt;stroke-linejoin:miter;stroke-miterlimit:4;stroke-dasharray:none;stroke-dashoffset:0;stroke-opacity:1;color-rendering:auto;image-rendering:auto;shape-rendering:auto;text-rendering:auto;enable-background:accumulate"
         x="791.21655"
         y="-130.70657"
         id="text6265"
         sodipodi:linespacing="125%"
         transform="scale(1,-1)"><tspan
           style="font-size:10px"
           y="-130.70657"
           x="791.21655"
           id="tspan6271"
           sodipodi:role="line">δ<tspan
   id="tspan6273"
   style="font-size:8px;baseline-shift:super">15</tspan>N µ<tspan
   id="tspan6275"
   style="font-size:8px;baseline-shift:sub">src</tspan>±σ<tspan
   id="tspan6277"
   style="font-size:8px;baseline-shift:sub">src</tspan></tspan></text>
</g></g></svg>