<?xml version="1.0" encoding="UTF-8" standalone="no"?>
<!-- Created with Inkscape (http://www.inkscape.org/) -->

<svg
   xmlns:ns0="http://www.iki.fi/pav/software/textext/"
   xmlns:dc="http://purl.org/dc/elements/1.1/"
   xmlns:cc="http://creativecommons.org/ns#"
   xmlns:rdf="http://www.w3.org/1999/02/22-rdf-syntax-ns#"
   xmlns:svg="http://www.w3.org/2000/svg"
   xmlns="http://www.w3.org/2000/svg"
   xmlns:sodipodi="http://sodipodi.sourceforge.net/DTD/sodipodi-0.dtd"
   xmlns:inkscape="http://www.inkscape.org/namespaces/inkscape"
   id="svg2"
   version="1.1"
   inkscape:version="0.91 r13725"
   xml:space="preserve"
   width="717.6004"
   height="316.26367"
   viewBox="0 0 717.6004 316.26367"
   sodipodi:docname="GRENOBLEFR_13-02-10.svg"><sodipodi:namedview
     pagecolor="#ffffff"
     bordercolor="#666666"
     borderopacity="1"
     objecttolerance="10"
     gridtolerance="10"
     guidetolerance="10"
     inkscape:pageopacity="0"
     inkscape:pageshadow="2"
     inkscape:window-width="1366"
     inkscape:window-height="742"
     id="namedview4"
     showgrid="false"
     inkscape:zoom="0.70710678"
     inkscape:cx="239.06367"
     inkscape:cy="250.47167"
     inkscape:window-x="0"
     inkscape:window-y="0"
     inkscape:window-maximized="1"
     inkscape:current-layer="g10"
     fit-margin-top="0"
     fit-margin-left="0"
     fit-margin-right="0"
     fit-margin-bottom="0" /><metadata
     id="metadata8"><rdf:RDF><cc:Work
         rdf:about=""><dc:format>image/svg+xml</dc:format><dc:type
           rdf:resource="http://purl.org/dc/dcmitype/StillImage" /><dc:title></dc:title></cc:Work></rdf:RDF></metadata><defs
     id="defs6" /><g
     transform="matrix(1.25,0,0,-1.25,-79.537375,297.63592)"
     inkscape:label="GRENOBLEFR_S3large_e-30_NH4constraint_13-02-10"
     inkscape:groupmode="layer"
     id="g10"><path
       d="m 498.019,24.9441 139.001,0"
       style="fill:none;stroke:#000000;stroke-width:0.5;stroke-linecap:butt;stroke-linejoin:miter;stroke-miterlimit:10;stroke-dasharray:16, 0;stroke-dashoffset:0;stroke-opacity:1"
       id="path26"
       inkscape:connector-curvature="0" /><path
       d="m 498.019,24.9441 0,162.4319"
       style="fill:none;stroke:#000000;stroke-width:0.5;stroke-linecap:butt;stroke-linejoin:miter;stroke-miterlimit:10;stroke-dasharray:16, 0;stroke-dashoffset:0;stroke-opacity:1"
       id="path28"
       inkscape:connector-curvature="0" /><path
       d="m 498.019,24.9441 0,1.6286"
       style="fill:none;stroke:#000000;stroke-width:0.5;stroke-linecap:butt;stroke-linejoin:miter;stroke-miterlimit:10;stroke-dasharray:16, 0;stroke-dashoffset:0;stroke-opacity:1"
       id="path30"
       inkscape:connector-curvature="0" /><path
       d="m 567.519,24.9441 0,1.6286"
       style="fill:none;stroke:#000000;stroke-width:0.5;stroke-linecap:butt;stroke-linejoin:miter;stroke-miterlimit:10;stroke-dasharray:16, 0;stroke-dashoffset:0;stroke-opacity:1"
       id="path32"
       inkscape:connector-curvature="0" /><path
       d="m 637.02,24.9441 0,1.6286"
       style="fill:none;stroke:#000000;stroke-width:0.5;stroke-linecap:butt;stroke-linejoin:miter;stroke-miterlimit:10;stroke-dasharray:16, 0;stroke-dashoffset:0;stroke-opacity:1"
       id="path34"
       inkscape:connector-curvature="0" /><g
       id="g36"><text
         transform="matrix(1,0,0,-1,495.239,9.93086)"
         style="font-variant:normal;font-weight:normal;font-size:10px;font-family:Helvetica;-inkscape-font-specification:Helvetica;writing-mode:lr-tb;fill:#000000;fill-opacity:1;fill-rule:nonzero;stroke:none"
         id="text38"><tspan
           x="0 65.330498 70.890503 73.670502 139.00121"
           y="0"
           sodipodi:role="line"
           id="tspan40">00.51</tspan></text>
</g><path
       d="m 498.019,24.9441 1.624,0"
       style="fill:none;stroke:#000000;stroke-width:0.5;stroke-linecap:butt;stroke-linejoin:miter;stroke-miterlimit:10;stroke-dasharray:16, 0;stroke-dashoffset:0;stroke-opacity:1"
       id="path42"
       inkscape:connector-curvature="0" /><path
       d="m 498.019,52.016 1.624,0"
       style="fill:none;stroke:#000000;stroke-width:0.5;stroke-linecap:butt;stroke-linejoin:miter;stroke-miterlimit:10;stroke-dasharray:16, 0;stroke-dashoffset:0;stroke-opacity:1"
       id="path44"
       inkscape:connector-curvature="0" /><path
       d="m 498.019,79.0879 1.624,0"
       style="fill:none;stroke:#000000;stroke-width:0.5;stroke-linecap:butt;stroke-linejoin:miter;stroke-miterlimit:10;stroke-dasharray:16, 0;stroke-dashoffset:0;stroke-opacity:1"
       id="path46"
       inkscape:connector-curvature="0" /><path
       d="m 498.019,106.16 1.624,0"
       style="fill:none;stroke:#000000;stroke-width:0.5;stroke-linecap:butt;stroke-linejoin:miter;stroke-miterlimit:10;stroke-dasharray:16, 0;stroke-dashoffset:0;stroke-opacity:1"
       id="path48"
       inkscape:connector-curvature="0" /><path
       d="m 498.019,133.232 1.624,0"
       style="fill:none;stroke:#000000;stroke-width:0.5;stroke-linecap:butt;stroke-linejoin:miter;stroke-miterlimit:10;stroke-dasharray:16, 0;stroke-dashoffset:0;stroke-opacity:1"
       id="path50"
       inkscape:connector-curvature="0" /><path
       d="m 498.019,160.304 1.624,0"
       style="fill:none;stroke:#000000;stroke-width:0.5;stroke-linecap:butt;stroke-linejoin:miter;stroke-miterlimit:10;stroke-dasharray:16, 0;stroke-dashoffset:0;stroke-opacity:1"
       id="path52"
       inkscape:connector-curvature="0" /><path
       d="m 498.019,187.376 1.624,0"
       style="fill:none;stroke:#000000;stroke-width:0.5;stroke-linecap:butt;stroke-linejoin:miter;stroke-miterlimit:10;stroke-dasharray:16, 0;stroke-dashoffset:0;stroke-opacity:1"
       id="path54"
       inkscape:connector-curvature="0" /><g
       id="g56"><text
         transform="matrix(1,0,0,-1,487.459,19.9441)"
         style="font-variant:normal;font-weight:normal;font-size:10px;font-family:Helvetica;-inkscape-font-specification:Helvetica;writing-mode:lr-tb;fill:#000000;fill-opacity:1;fill-rule:nonzero;stroke:none"
         id="text58"><tspan
           x="0"
           y="0"
           id="tspan60">0</tspan><tspan
           x="-19.459 -13.899 -11.119 -5.559 0.001"
           y="-27.071899"
           sodipodi:role="line"
           id="tspan62">0.005</tspan><tspan
           x="-13.89923 -8.3392296 -5.5592299 0.00076999998"
           y="-54.143799"
           sodipodi:role="line"
           id="tspan64">0.01</tspan><tspan
           x="-19.459 -13.899 -11.119 -5.559 0.001"
           y="-81.216103"
           sodipodi:role="line"
           id="tspan66">0.015</tspan><tspan
           x="-13.89923 -8.3392296 -5.5592299 0.00076999998"
           y="-108.288"
           sodipodi:role="line"
           id="tspan68">0.02</tspan><tspan
           x="-19.459 -13.899 -11.119 -5.559 0.001"
           y="-135.35989"
           sodipodi:role="line"
           id="tspan70">0.025</tspan><tspan
           x="-13.89923 -8.3392296 -5.5592299 0.00076999998"
           y="-162.43221"
           sodipodi:role="line"
           id="tspan72">0.03</tspan><tspan
           y="0"
           x="0"
           sodipodi:role="line"
           id="tspan74" /></text>
<text
         transform="matrix(0,1,1,0,462.019,82.8211)"
         style="font-variant:normal;font-weight:normal;font-size:10px;font-family:Helvetica;-inkscape-font-specification:Helvetica;writing-mode:lr-tb;fill:#000000;fill-opacity:1;fill-rule:nonzero;stroke:none"
         id="text76"><tspan
           x="0 6.6700001 10 15.56 21.120001 26.68 32.240002 34.459999 36.68 38.900002 41.68"
           y="0"
           sodipodi:role="line"
           id="tspan78">Probability</tspan></text>
</g><path
       d="m 602.679,24.9441 0,85.7889"
       style="fill:none;stroke:#000000;stroke-width:0.40000001;stroke-linecap:butt;stroke-linejoin:miter;stroke-miterlimit:10;stroke-dasharray:1.2, 1.2;stroke-dashoffset:0;stroke-opacity:1"
       id="path80"
       inkscape:connector-curvature="0" /><path
       d="m 602.914,24.9441 0,85.7889"
       style="fill:none;stroke:#000000;stroke-width:0.40000001;stroke-linecap:butt;stroke-linejoin:miter;stroke-miterlimit:10;stroke-dasharray:none;stroke-opacity:1"
       id="path82"
       inkscape:connector-curvature="0" /><path
       d="m 498.019,24.9441 0.545,0 0.545,0 0.545,0 0.545,0 0.545,0 0.545,0 0.546,0 0.545,0 0.545,0 0.545,0 0.545,0 0.545,0 0.545,0 0.545,0 0.545,0 0.545,0 0.546,0 0.545,0 0.545,0 0.545,0 0.545,0 0.545,0 0.545,0 0.545,0 0.545,0 0.546,0 0.545,0 0.545,0 0.545,0 0.545,0 0.545,0 0.545,0 0.545,0 0.545,0 0.545,0 0.546,0 0.545,0 0.545,0 0.545,0 0.545,0 0.545,0 0.545,0 0.545,0 0.545,0 0.545,0 0.546,0 0.545,0 0.545,0 0.545,0 0.545,0 0.545,0 0.545,0 0.545,0 0.545,0 0.545,0 0.546,0 0.545,0 0.545,0 0.545,0 0.545,0 0.545,0 0.545,0 0.545,0 0.545,0 0.546,0 0.545,0 0.545,0 0.545,0 0.545,0 0.545,0 0.545,0 0.545,0 0.545,0 0.545,0 0.546,0 0.545,0 0.545,0 0.545,0 0.545,0 0.545,0 0.545,0 0.545,0 0.545,0 0.545,0 0.546,0 0.545,0 0.545,0 0.545,0 0.545,0 0.545,0 0.545,0 0.545,0 0.545,0 0.545,0 0.546,0 0.545,0 0.545,0 0.545,0 0,0.0239 0.545,0 0,0.0285 0.545,0 0,0.1199 0.545,0 0,0.2734 0.545,0 0,0.3598 0.545,0 0,0.2234 0.545,0 0,0.0672 0.546,0 0,-0.1668 0.545,0 0,-0.3019 0.545,0 0,-0.2106 0.545,0 0,-0.1316 0.545,0 0,-0.0863 0.545,0 0,0.0261 0.545,0 0,0.0114 0.545,0 0,-0.0278 0.545,0 0,0.0641 0.546,0 0,0.057 0.545,0 0,0.0735 0.545,0 0,0.2738 0.545,0 0,0.3488 0.545,0 0,0.2762 0.545,0 0,0.1148 0.545,0 0,-0.0699 0.545,0 0,-0.1476 0.545,0 0,-0.0621 0.545,0 0,0.1132 0.546,0 0,0.6063 0.545,0 0,0.7738 0.545,0 0,0.0707 0.545,0 0,-0.4984 0.545,0 0,-0.1293 0.545,0 0,0.0726 0.545,0 0,0.3403 0.545,0 0,0.3941 0.545,0 0,1.9625 0.546,0 0,0.9449 0.545,0 0,-1.2468 0.545,0 0,-0.8102 0.545,0 0,-0.3117 0.545,0 0,-0.3914 0.545,0 0,-0.3496 0.545,0 0,3.741 0.545,0 0,1.2172 0.545,0 0,-1.8059 0.545,0 0,0.8496 0.546,0 0,1.434 0.545,0 0,3.1543 0.545,0 0,0.0938 0.545,0 0,0.464 0.545,0 0,2.1399 0.545,0 0,2.6812 0.545,0 0,1.3582 0.545,0 0,1.5051 0.545,0 0,1.8422 0.545,0 0,0.0746 0.546,0 0,4.0551 0.545,0 0,7.1168 0.545,0 0,2.6054 0.545,0 0,0.9922 0.545,0 0,-1.9019 0.545,0 0,-1.711 0.545,0 0,1.9938 0.545,0 0,5.6527 0.545,0 0,2.8359 0.546,0 0,0.5735 0.545,0 0,-2.0078 0.545,0 0,2.759 0.545,0 0,3.6097 0.545,0 0,4.4703 0.545,0 0,1.2161 0.545,0 0,-1.0243 0.545,0 0,-0.1254 0.545,0 0,2.059 0.545,0 0,7.4774 0.545,0 0,2.7562 0.546,0 0,-1.4683 0.545,0 0,-3.4653 0.545,0 0,1.5032 0.545,0 0,0.5042 0.545,0 0,4.902 0.545,0 0,5.041 0.545,0 0,5.404 0.545,0 0,2.075 0.545,0 0,-2.132 0.546,0 0,-2.9337 0.545,0 0,0.0969 0.545,0 0,4.1378 0.545,0 0,1.855 0.545,0 0,-1.009 0.545,0 0,-1.14 0.545,0 0,2.289 0.545,0 0,1.606 0.545,0 0,4.804 0.545,0 0,3.406 0.546,0 0,-4.517 0.545,0 0,-3.013 0.545,0 0,-1.366 0.545,0 0,1.479 0.545,0 0,-0.448 0.545,0 0,2.403 0.545,0 0,1.037 0.545,0 0,2.885 0.545,0 0,1.201 0.545,0 0,0.851 0.546,0 0,-2.275 0.545,0 0,-0.772 0.545,0 0,-1.477 0.545,0 0,-1.12 0.545,0 0,-0.809 0.545,0 0,0.197 0.545,0 0,-0.122 0.545,0 0,-4.956 0.545,0 0,-4.5878 0.546,0 0,-3.682 0.545,0 0,-2.7059 0.545,0 0,-4.5257 0.545,0 0,-2.6102 0.545,0 0,-0.9496 0.545,0 0,-1.025 0.545,0 0,-3.2988 0.545,0 0,-1.0039 0.545,0 0,-1.284 0.545,0 0,-3.1071 0.546,0 0,-2.5023 0.545,0 0,0.0719 0.545,0 0,-2.5223 0.545,0 0,-3.1652 0.545,0 0,-4.7785 0.545,0 0,-1.2188 0.545,0 0,-1.6601 0.545,0 0,2.5472 0.545,0 0,-1.4558 0.545,0 0,-3.7496 0.546,0 0,-4.7891 0.545,0 0,-3.5238 0.545,0 0,-1.5875 0.545,0 0,-0.8918 0.545,0 0,-2.034 0.545,0 0,-2.0629 0.545,0 0,-1.7551 0.545,0 0,-0.8578 0.545,0 0,-1.3426 0.546,0 0,-2.1683 0.545,0 0,-2.1332 0.545,0 0,-1.1157 0.545,0 0,-0.6523 0.545,0 0,-0.9586 0.545,0 0,-1.0602 0.545,0 0,-0.4023 0.545,0 0,-0.4844 0.545,0 0,-0.1629 0.545,0 0,-0.5254 0.546,0 0,-0.7503 0.545,0 0,-0.718 0.545,0 0,-0.5688 0.545,0 0,-0.5746 0.545,0 0,-0.4363 0.545,0 0,-0.3988"
       style="fill:none;stroke:#0000b4;stroke-width:0.80000001;stroke-linecap:butt;stroke-linejoin:miter;stroke-miterlimit:10;stroke-dasharray:none;stroke-opacity:1"
       id="path84"
       inkscape:connector-curvature="0" /><path
       inkscape:connector-curvature="0"
       id="path86"
       d="m 498.019,24.9441 c 19.40514,0.07983 39.13318,-0.163244 58.326,0.1289 3.75629,0.09307 7.25809,0.440615 10.14606,1.402 1.2864,0.386147 2.23824,1.106851 3.48094,1.5367 0.67265,0.88004 1.73742,1.367952 2.51506,2.143 0.8462,0.894298 1.61404,1.86696 2.39094,2.830562 0.7861,0.95271 1.16153,2.316097 2.181,3.035438 0.21936,1.611882 1.22001,2.442474 1.635,3.858724 0.65271,1.163919 1.0489,2.584369 1.635,3.8149 0.60487,1.206688 0.67928,2.943833 1.636,3.798676 -0.0851,2.007751 1.02733,2.818037 1.09,4.678049 0.7831,1.091737 0.75474,2.994938 1.42406,4.200451 0.51873,1.364403 0.44639,3.319875 1.30094,4.348462 0.0525,1.836062 0.60721,3.169969 1.091,4.574762 0.12004,1.83121 0.7742,3.128308 1.09,4.763763 0.22241,1.776477 0.90025,3.097526 1.09,4.906662 0.3551,1.673619 0.98903,3.068409 1.09,4.996162 0.50984,1.305309 0.75837,2.871921 1.09,4.355438 0.34683,1.677922 0.99196,3.057543 1.091,4.983262 0.52169,1.4651 1.05095,2.922625 1.09,4.870362 0.72142,1.116494 1.01535,2.660464 1.09,4.423727 1.14199,0.821995 0.60837,3.31961 1.635,4.25696 -0.0559,1.93559 1.04325,2.71621 1.091,4.54819 0.81549,0.9948 0.94707,2.67351 1.635,3.79587 0.58583,1.19815 1.10171,2.46625 1.96906,3.38288 0.49489,0.80825 1.65215,1.99777 2.93694,1.395 1.47088,-0.20645 1.60966,-1.74501 2.725,-2.307 0.27053,-1.60351 1.22759,-2.52049 1.636,-3.98612 0.62352,-1.20378 0.6989,-2.95569 1.635,-3.84688 -0.10264,-1.99137 0.87439,-2.90307 1.09,-4.57619 0.31163,-1.589645 1.01523,-2.787314 1.09,-4.613821 0.59246,-1.29703 1.04127,-2.737708 1.091,-4.577462 0.74076,-1.206518 1.05581,-2.838743 1.09,-4.751827 1.07513,-0.950989 0.66173,-3.390512 1.42406,-4.6543 0.054,-1.761185 0.94869,-2.681608 0.75594,-4.6895 1.07688,-0.950403 0.65542,-3.399152 1.42406,-4.6578 0.50761,-1.447841 0.32613,-3.584764 1.30194,-4.5644 0.0193,-1.928229 0.40286,-3.492119 1.09,-4.752462 0.0409,-1.842524 0.59427,-3.172568 1.09,-4.560262 0.0254,-1.893132 1.04215,-2.794995 1.09,-4.665725 0.71828,-1.147321 0.72334,-3.007869 1.42406,-4.172751 0.22915,-1.646192 1.03146,-2.719224 1.30194,-4.324087 0.71323,-1.087958 0.76854,-2.833846 1.635,-3.768575 0.28353,-1.634688 1.16315,-2.673293 1.635,-4.119662 0.65094,-1.14554 1.19599,-2.396971 1.97006,-3.419376 0.42502,-1.225294 1.47129,-1.829336 1.84594,-3.105 1.1348,-0.644617 1.76886,-1.789983 2.726,-2.612262 0.71413,-0.514728 1.59555,-1.000553 2.18,-1.601038"
       style="fill:none;stroke:#0000b4;stroke-width:0.80000001;stroke-linecap:butt;stroke-linejoin:miter;stroke-miterlimit:10;stroke-dasharray:2.4, 2.4;stroke-dashoffset:0;stroke-opacity:1" /><path
       d="m 302.469,24.9441 139.002,0"
       style="fill:none;stroke:#000000;stroke-width:0.5;stroke-linecap:butt;stroke-linejoin:miter;stroke-miterlimit:10;stroke-dasharray:16, 0;stroke-dashoffset:0;stroke-opacity:1"
       id="path88"
       inkscape:connector-curvature="0" /><path
       d="m 302.469,24.9441 0,162.4319"
       style="fill:none;stroke:#000000;stroke-width:0.5;stroke-linecap:butt;stroke-linejoin:miter;stroke-miterlimit:10;stroke-dasharray:16, 0;stroke-dashoffset:0;stroke-opacity:1"
       id="path90"
       inkscape:connector-curvature="0" /><path
       d="m 302.469,24.9441 0,1.6286"
       style="fill:none;stroke:#000000;stroke-width:0.5;stroke-linecap:butt;stroke-linejoin:miter;stroke-miterlimit:10;stroke-dasharray:16, 0;stroke-dashoffset:0;stroke-opacity:1"
       id="path92"
       inkscape:connector-curvature="0" /><path
       d="m 371.97,24.9441 0,1.6286"
       style="fill:none;stroke:#000000;stroke-width:0.5;stroke-linecap:butt;stroke-linejoin:miter;stroke-miterlimit:10;stroke-dasharray:16, 0;stroke-dashoffset:0;stroke-opacity:1"
       id="path94"
       inkscape:connector-curvature="0" /><path
       d="m 441.471,24.9441 0,1.6286"
       style="fill:none;stroke:#000000;stroke-width:0.5;stroke-linecap:butt;stroke-linejoin:miter;stroke-miterlimit:10;stroke-dasharray:16, 0;stroke-dashoffset:0;stroke-opacity:1"
       id="path96"
       inkscape:connector-curvature="0" /><g
       id="g98"><text
         transform="matrix(1,0,0,-1,299.689,9.93086)"
         style="font-variant:normal;font-weight:normal;font-size:10px;font-family:Helvetica;-inkscape-font-specification:Helvetica;writing-mode:lr-tb;fill:#000000;fill-opacity:1;fill-rule:nonzero;stroke:none"
         id="text100"><tspan
           x="0 65.3312 70.891197 73.671204 139.00191"
           y="0"
           sodipodi:role="line"
           id="tspan102">00.51</tspan></text>
</g><path
       d="m 302.469,24.9441 1.625,0"
       style="fill:none;stroke:#000000;stroke-width:0.5;stroke-linecap:butt;stroke-linejoin:miter;stroke-miterlimit:10;stroke-dasharray:16, 0;stroke-dashoffset:0;stroke-opacity:1"
       id="path104"
       inkscape:connector-curvature="0" /><path
       d="m 302.469,52.016 1.625,0"
       style="fill:none;stroke:#000000;stroke-width:0.5;stroke-linecap:butt;stroke-linejoin:miter;stroke-miterlimit:10;stroke-dasharray:16, 0;stroke-dashoffset:0;stroke-opacity:1"
       id="path106"
       inkscape:connector-curvature="0" /><path
       d="m 302.469,79.0879 1.625,0"
       style="fill:none;stroke:#000000;stroke-width:0.5;stroke-linecap:butt;stroke-linejoin:miter;stroke-miterlimit:10;stroke-dasharray:16, 0;stroke-dashoffset:0;stroke-opacity:1"
       id="path108"
       inkscape:connector-curvature="0" /><path
       d="m 302.469,106.16 1.625,0"
       style="fill:none;stroke:#000000;stroke-width:0.5;stroke-linecap:butt;stroke-linejoin:miter;stroke-miterlimit:10;stroke-dasharray:16, 0;stroke-dashoffset:0;stroke-opacity:1"
       id="path110"
       inkscape:connector-curvature="0" /><path
       d="m 302.469,133.232 1.625,0"
       style="fill:none;stroke:#000000;stroke-width:0.5;stroke-linecap:butt;stroke-linejoin:miter;stroke-miterlimit:10;stroke-dasharray:16, 0;stroke-dashoffset:0;stroke-opacity:1"
       id="path112"
       inkscape:connector-curvature="0" /><path
       d="m 302.469,160.304 1.625,0"
       style="fill:none;stroke:#000000;stroke-width:0.5;stroke-linecap:butt;stroke-linejoin:miter;stroke-miterlimit:10;stroke-dasharray:16, 0;stroke-dashoffset:0;stroke-opacity:1"
       id="path114"
       inkscape:connector-curvature="0" /><path
       d="m 302.469,187.376 1.625,0"
       style="fill:none;stroke:#000000;stroke-width:0.5;stroke-linecap:butt;stroke-linejoin:miter;stroke-miterlimit:10;stroke-dasharray:16, 0;stroke-dashoffset:0;stroke-opacity:1"
       id="path116"
       inkscape:connector-curvature="0" /><g
       id="g118"><text
         transform="matrix(1,0,0,-1,291.909,19.9441)"
         style="font-variant:normal;font-weight:normal;font-size:10px;font-family:Helvetica;-inkscape-font-specification:Helvetica;writing-mode:lr-tb;fill:#000000;fill-opacity:1;fill-rule:nonzero;stroke:none"
         id="text120"><tspan
           x="0"
           y="0"
           id="tspan122">0</tspan><tspan
           x="-19.459 -13.899 -11.119 -5.559 0.001"
           y="-27.071899"
           sodipodi:role="line"
           id="tspan124">0.005</tspan><tspan
           x="-13.89923 -8.3392296 -5.5592299 0.00076999998"
           y="-54.143799"
           sodipodi:role="line"
           id="tspan126">0.01</tspan><tspan
           x="-19.459 -13.899 -11.119 -5.559 0.001"
           y="-81.216103"
           sodipodi:role="line"
           id="tspan128">0.015</tspan><tspan
           x="-13.89923 -8.3392296 -5.5592299 0.00076999998"
           y="-108.288"
           sodipodi:role="line"
           id="tspan130">0.02</tspan><tspan
           x="-19.459 -13.899 -11.119 -5.559 0.001"
           y="-135.35989"
           sodipodi:role="line"
           id="tspan132">0.025</tspan><tspan
           x="-13.89923 -8.3392296 -5.5592299 0.00076999998"
           y="-162.43221"
           sodipodi:role="line"
           id="tspan134">0.03</tspan><tspan
           y="0"
           x="0"
           sodipodi:role="line"
           id="tspan136" /></text>
<text
         transform="matrix(0,1,1,0,266.469,82.8211)"
         style="font-variant:normal;font-weight:normal;font-size:10px;font-family:Helvetica;-inkscape-font-specification:Helvetica;writing-mode:lr-tb;fill:#000000;fill-opacity:1;fill-rule:nonzero;stroke:none"
         id="text138"><tspan
           x="0 6.6700001 10 15.56 21.120001 26.68 32.240002 34.459999 36.68 38.900002 41.68"
           y="0"
           sodipodi:role="line"
           id="tspan140">Probability</tspan></text>
</g><path
       d="m 317.732,24.9441 0,88.8059"
       style="fill:none;stroke:#000000;stroke-width:0.40000001;stroke-linecap:butt;stroke-linejoin:miter;stroke-miterlimit:10;stroke-dasharray:1.2, 1.2;stroke-dashoffset:0;stroke-opacity:1"
       id="path142"
       inkscape:connector-curvature="0" /><path
       d="m 320.048,24.9441 0,83.4119"
       style="fill:none;stroke:#000000;stroke-width:0.40000001;stroke-linecap:butt;stroke-linejoin:miter;stroke-miterlimit:10;stroke-dasharray:none;stroke-opacity:1"
       id="path144"
       inkscape:connector-curvature="0" /><path
       d="m 302.469,113.433 0.545,0 0,0.211 0.546,0 0,0.661 0.545,0 0,0.339 0.545,0 0,1.745 0.545,0 0,1.189 0.545,0 0,-1.022 0.545,0 0,0.805 0.545,0 0,1.15 0.545,0 0,0.913 0.545,0 0,-0.449 0.546,0 0,0.729 0.545,0 0,-0.067 0.545,0 0,0.001 0.545,0 0,0.347 0.545,0 0,0.632 0.545,0 0,-0.98 0.545,0 0,-0.018 0.545,0 0,-0.384 0.545,0 0,0.088 0.545,0 0,-0.471 0.546,0 0,0.298 0.545,0 0,-1.186 0.545,0 0,-0.658 0.545,0 0,0.005 0.545,0 0,-1.772 0.545,0 0,-0.503 0.545,0 0,-0.665 0.545,0 0,-0.621 0.545,0 0,-1.775 0.545,0 0,-0.329 0.546,0 0,-1.165 0.545,0 0,-2.125 0.545,0 0,-0.626 0.545,0 0,-0.838 0.545,0 0,-1.448 0.545,0 0,-1.854 0.545,0 0,-1.127 0.545,0 0,-1.553 0.545,0 0,-1.4487 0.545,0 0,-1.6047 0.546,0 0,-1.5406 0.545,0 0,-1.8742 0.545,0 0,-1.7676 0.545,0 0,-1.1172 0.545,0 0,-2.3472 0.545,0 0,-1.5766 0.545,0 0,-1.7883 0.545,0 0,-1.3418 0.545,0 0,-1.548 0.546,0 0,-2.1738 0.545,0 0,-0.5852 0.545,0 0,-3.0965 0.545,0 0,-1.5453 0.545,0 0,-0.916 0.545,0 0,-1.782 0.545,0 0,-1.5321 0.545,0 0,-1.7574 0.545,0 0,-1.5391 0.545,0 0,-2.2394 0.546,0 0,-1.3574 0.545,0 0,-1.3586 0.545,0 0,-2.0399 0.545,0 0,-1.4867 0.545,0 0,-1.7871 0.545,0 0,-1.2777 0.545,0 0,-1.1442 0.545,0 0,-1.5551 0.545,0 0,-1.5312 0.545,0 0,-1.1977 0.546,0 0,-1.2547 0.545,0 0,-1.7199 0.545,0 0,-1.0218 0.545,0 0,-0.675 0.545,0 0,-1.7508 0.545,0 0,-1.1325 0.545,0 0,-0.7335 0.545,0 0,-0.9993 0.545,0 0,-1.0175 0.546,0 0,-1.2825 0.545,0 0,-1.1754 0.545,0 0,-0.5687 0.545,0 0,-0.9352 0.545,0 0,-0.8468 0.545,0 0,-0.9996 0.545,0 0,-0.6524 0.545,0 0,-0.7394 0.545,0 0,-0.5903 0.545,0 0,-0.7308 0.546,0 0,-0.5848 0.545,0 0,-0.6109 0.545,0 0,-0.4793 0.545,0 0,-0.3352 0.545,0 0,-0.4762 0.545,0 0,-0.1867 0.545,0 0,-0.5043 0.545,0 0,-0.3449 0.545,0 0,-0.3375 0.545,0 0,-0.2695 0.546,0 0,-0.1684 0.545,0 0,-0.2559 0.545,0 0,-0.3199 0.545,0 0,-0.3008 0.545,0 0,-0.1019 0.545,0 0,-0.1106 0.545,0 0,-0.1433 0.545,0 0,-0.1742 0.545,0 0,-0.1914 0.545,0 0,-0.1219 0.546,0 0,-0.0887 0.545,0 0,-0.1027 0.545,0 0,-0.0074 0.545,0 0,-0.1391 0.545,0 0,-0.0391 0.545,0 0,-0.1007 0.545,0 0,-0.0188 0.545,0 0,-0.0641 0.545,0 0,-0.125 0.546,0 0,-0.0355 0.545,0 0,-0.0199 0.545,0 0,-0.0336 0.545,0 0,0.0101 0.545,0 0,-0.091 0.545,0 0,-0.0273 0.545,0 0,0.0011 0.545,0 0,-0.0433 0.545,0 0,-0.0164 0.545,0 0,-0.0262 0.546,0 0,-0.0168 0.545,0 0,0.0301 0.545,0 0,-0.0473 0.545,0 0,-0.0113 0.545,0 0,-0.0106 0.545,0 0,-0.0238 0.545,0 0,-0.0328 0.545,0 0,-0.0168 0.545,0 0,-0.0191 0.545,0 0,0.0199 0.546,0 0,-0.0289 0.545,0 0,-0.0188 0.545,0 0,-0.0136 0.545,0 0,-0.0051 0.545,0 0,-0.0067 0.545,0 0,-0.0027 0.545,0 0,-0.0058 0.545,0 0,0.0152 0.545,0 0,-0.0242 0.545,0 0,-0.0055 0.546,0 0,-0.002 0.545,0 0,-0.0019 0.545,0 0,-0.0043 0.545,0 0,-0.0023 0.545,0 0,-0.0051 0.545,0 0,-0.0024 0.545,0 0,-0.005 0.545,0 0,-0.0149 0.545,0 0,-0.0109 0.546,0 0,-0.0125 0.545,0 0,-0.0114 0.545,0 0.545,0 0.545,0 0.545,0 0.545,0 0.545,0 0.545,0 0.545,0 0.546,0 0.545,0 0.545,0 0.545,0 0.545,0 0.545,0 0.545,0 0.545,0 0.545,0 0.545,0 0.546,0 0.545,0 0.545,0 0.545,0 0.545,0 0.545,0 0.545,0 0.545,0 0.545,0 0.546,0 0.545,0 0.545,0 0.545,0 0.545,0 0.545,0 0.545,0 0.545,0 0.545,0 0.545,0 0.546,0 0.545,0 0.545,0 0.545,0 0.545,0 0.545,0 0.545,0 0.545,0 0.545,0 0.545,0 0.546,0 0.545,0 0.545,0 0.545,0 0.545,0 0.545,0 0.545,0 0.545,0 0.545,0 0.546,0 0.545,0 0.545,0 0.545,0 0.545,0 0.545,0 0.545,0 0.545,0 0.545,0 0.545,0 0.546,0 0.545,0 0.545,0 0.545,0 0.545,0 0.545,0 0.545,0 0.545,0 0.545,0 0.545,0 0.546,0 0.545,0 0.545,0 0.545,0 0.545,0 0.545,0 0.545,0 0.545,0 0.545,0 0.545,0 0.546,0 0.545,0 0.545,0 0.545,0 0.545,0 0.545,0 0.545,0 0.545,0 0.545,0 0.545,0 0.546,0 0,0"
       style="fill:none;stroke:#be3200;stroke-width:0.80000001;stroke-linecap:butt;stroke-linejoin:miter;stroke-miterlimit:10;stroke-dasharray:none;stroke-opacity:1"
       id="path146"
       inkscape:connector-curvature="0" /><path
       inkscape:connector-curvature="0"
       id="path148"
       d="m 302.469,59.2023 c 1.06864,0.906236 0.65025,3.299509 1.42894,4.4957 0.3966,1.547226 0.52085,3.366812 1.09,4.7415 0.0591,1.837453 0.96358,2.829461 0.75206,4.9375 0.81425,1.178867 0.99089,2.995341 1.09,4.889345 0.76505,1.191235 0.90254,3.010039 1.09,4.778865 0.6202,1.346051 0.83878,3.093732 1.091,4.807765 0.47721,1.470876 0.75963,3.136549 1.09,4.754265 0.35639,1.544661 0.65344,3.148666 1.09,4.613165 0.15833,1.7778 0.78596,3.086305 1.09,4.718405 0.20187,1.73911 0.91024,2.97171 1.09,4.73293 0.36973,1.47269 1.1374,2.54744 1.091,4.43626 0.94774,1.00286 1.10748,2.79372 1.635,4.21681 0.59616,1.11657 1.24872,2.17674 1.635,3.50319 1.01386,0.53144 1.36907,1.93762 3.06394,1.634 1.14063,-0.56434 1.94702,-1.46293 2.38706,-2.72787 0.70929,-1.193 1.51471,-2.28987 1.636,-4.07087 1.10771,-0.69936 0.64694,-2.96719 1.635,-3.7862 -0.005,-1.99408 1.03062,-2.94791 1.09,-4.8778 0.40803,-1.50095 0.99699,-2.82097 1.09,-4.63694 0.54956,-1.475842 1.03982,-3.011002 1.091,-4.98523 0.66613,-1.218555 0.82844,-2.940934 1.09,-4.564065 0.49138,-1.447837 0.75787,-3.120573 1.09,-4.727665 0.3608,-1.603291 0.65258,-3.275601 1.09,-4.802265 0.26678,-1.694343 0.51941,-3.402831 1.09,-4.793365 0.20014,-1.732786 0.36569,-3.500154 1.091,-4.707765 0.14253,-1.739258 0.21565,-3.547926 1.09,-4.555365 0.007,-1.917863 0.27592,-3.573149 1.09,-4.6836 0.0188,-1.93314 0.39493,-3.508895 1.09,-4.765735 0.0369,-1.817832 0.59016,-3.11933 1.09,-4.474235 0.0849,-1.890176 1.15374,-2.796329 1.091,-4.834105 0.99856,-0.798861 0.67476,-2.92008 1.635,-3.75726 0.22189,-1.593372 0.83116,-2.799369 1.42794,-4.017865 0.60272,-1.221394 0.76162,-2.886622 1.84306,-3.6293 0.007,-1.806594 1.47927,-2.147726 1.635,-3.8055 1.08792,-0.680689 1.4702,-2.067026 2.51794,-2.7879 0.60731,-0.973338 1.72475,-1.43656 2.38806,-2.3539 1.1591,-0.479469 2.20622,-1.070913 3.27,-1.6457 1.78354,-0.393762 3.38115,-0.973446 5.451,-1.0809 7.69643,-0.741715 16.55214,-0.324146 24.86794,-0.4465 18.60268,0 37.20537,0 55.80806,0"
       style="fill:none;stroke:#be3200;stroke-width:0.5;stroke-linecap:butt;stroke-linejoin:miter;stroke-miterlimit:10;stroke-dasharray:1.5, 1.5;stroke-dashoffset:0;stroke-opacity:1" /><path
       d="m 106.92,24.9441 139.001,0"
       style="fill:none;stroke:#000000;stroke-width:0.5;stroke-linecap:butt;stroke-linejoin:miter;stroke-miterlimit:10;stroke-dasharray:16, 0;stroke-dashoffset:0;stroke-opacity:1"
       id="path150"
       inkscape:connector-curvature="0" /><path
       d="m 106.92,24.9441 0,162.4319"
       style="fill:none;stroke:#000000;stroke-width:0.5;stroke-linecap:butt;stroke-linejoin:miter;stroke-miterlimit:10;stroke-dasharray:16, 0;stroke-dashoffset:0;stroke-opacity:1"
       id="path152"
       inkscape:connector-curvature="0" /><path
       d="m 106.92,24.9441 0,1.6286"
       style="fill:none;stroke:#000000;stroke-width:0.5;stroke-linecap:butt;stroke-linejoin:miter;stroke-miterlimit:10;stroke-dasharray:16, 0;stroke-dashoffset:0;stroke-opacity:1"
       id="path154"
       inkscape:connector-curvature="0" /><path
       d="m 176.421,24.9441 0,1.6286"
       style="fill:none;stroke:#000000;stroke-width:0.5;stroke-linecap:butt;stroke-linejoin:miter;stroke-miterlimit:10;stroke-dasharray:16, 0;stroke-dashoffset:0;stroke-opacity:1"
       id="path156"
       inkscape:connector-curvature="0" /><path
       d="m 245.921,24.9441 0,1.6286"
       style="fill:none;stroke:#000000;stroke-width:0.5;stroke-linecap:butt;stroke-linejoin:miter;stroke-miterlimit:10;stroke-dasharray:16, 0;stroke-dashoffset:0;stroke-opacity:1"
       id="path158"
       inkscape:connector-curvature="0" /><g
       id="g160"><text
         transform="matrix(1,0,0,-1,104.14,9.93086)"
         style="font-variant:normal;font-weight:normal;font-size:10px;font-family:Helvetica;-inkscape-font-specification:Helvetica;writing-mode:lr-tb;fill:#000000;fill-opacity:1;fill-rule:nonzero;stroke:none"
         id="text162"><tspan
           x="0 65.331299 70.891296 73.671303 139.00079"
           y="0"
           sodipodi:role="line"
           id="tspan164">00.51</tspan></text>
</g><path
       d="m 106.92,24.9441 1.624,0"
       style="fill:none;stroke:#000000;stroke-width:0.5;stroke-linecap:butt;stroke-linejoin:miter;stroke-miterlimit:10;stroke-dasharray:16, 0;stroke-dashoffset:0;stroke-opacity:1"
       id="path166"
       inkscape:connector-curvature="0" /><path
       d="m 106.92,52.016 1.624,0"
       style="fill:none;stroke:#000000;stroke-width:0.5;stroke-linecap:butt;stroke-linejoin:miter;stroke-miterlimit:10;stroke-dasharray:16, 0;stroke-dashoffset:0;stroke-opacity:1"
       id="path168"
       inkscape:connector-curvature="0" /><path
       d="m 106.92,79.0879 1.624,0"
       style="fill:none;stroke:#000000;stroke-width:0.5;stroke-linecap:butt;stroke-linejoin:miter;stroke-miterlimit:10;stroke-dasharray:16, 0;stroke-dashoffset:0;stroke-opacity:1"
       id="path170"
       inkscape:connector-curvature="0" /><path
       d="m 106.92,106.16 1.624,0"
       style="fill:none;stroke:#000000;stroke-width:0.5;stroke-linecap:butt;stroke-linejoin:miter;stroke-miterlimit:10;stroke-dasharray:16, 0;stroke-dashoffset:0;stroke-opacity:1"
       id="path172"
       inkscape:connector-curvature="0" /><path
       d="m 106.92,133.232 1.624,0"
       style="fill:none;stroke:#000000;stroke-width:0.5;stroke-linecap:butt;stroke-linejoin:miter;stroke-miterlimit:10;stroke-dasharray:16, 0;stroke-dashoffset:0;stroke-opacity:1"
       id="path174"
       inkscape:connector-curvature="0" /><path
       d="m 106.92,160.304 1.624,0"
       style="fill:none;stroke:#000000;stroke-width:0.5;stroke-linecap:butt;stroke-linejoin:miter;stroke-miterlimit:10;stroke-dasharray:16, 0;stroke-dashoffset:0;stroke-opacity:1"
       id="path176"
       inkscape:connector-curvature="0" /><path
       d="m 106.92,187.376 1.624,0"
       style="fill:none;stroke:#000000;stroke-width:0.5;stroke-linecap:butt;stroke-linejoin:miter;stroke-miterlimit:10;stroke-dasharray:16, 0;stroke-dashoffset:0;stroke-opacity:1"
       id="path178"
       inkscape:connector-curvature="0" /><g
       id="g180"><text
         transform="matrix(1,0,0,-1,96.3602,19.9441)"
         style="font-variant:normal;font-weight:normal;font-size:10px;font-family:Helvetica;-inkscape-font-specification:Helvetica;writing-mode:lr-tb;fill:#000000;fill-opacity:1;fill-rule:nonzero;stroke:none"
         id="text182"><tspan
           x="0"
           y="0"
           id="tspan184">0</tspan><tspan
           x="-19.459 -13.899 -11.119 -5.559 0.001"
           y="-27.071899"
           sodipodi:role="line"
           id="tspan186">0.005</tspan><tspan
           x="-13.89923 -8.3392296 -5.5592299 0.00076999998"
           y="-54.143799"
           sodipodi:role="line"
           id="tspan188">0.01</tspan><tspan
           x="-19.459 -13.899 -11.119 -5.559 0.001"
           y="-81.216103"
           sodipodi:role="line"
           id="tspan190">0.015</tspan><tspan
           x="-13.89923 -8.3392296 -5.5592299 0.00076999998"
           y="-108.288"
           sodipodi:role="line"
           id="tspan192">0.02</tspan><tspan
           x="-19.459 -13.899 -11.119 -5.559 0.001"
           y="-135.35989"
           sodipodi:role="line"
           id="tspan194">0.025</tspan><tspan
           x="-13.89923 -8.3392296 -5.5592299 0.00076999998"
           y="-162.43221"
           sodipodi:role="line"
           id="tspan196">0.03</tspan><tspan
           y="0"
           x="0"
           sodipodi:role="line"
           id="tspan198" /></text>
<text
         transform="matrix(0,1,1,0,70.9199,82.8211)"
         style="font-variant:normal;font-weight:normal;font-size:10px;font-family:Helvetica;-inkscape-font-specification:Helvetica;writing-mode:lr-tb;fill:#000000;fill-opacity:1;fill-rule:nonzero;stroke:none"
         id="text200"><tspan
           x="0 6.6700001 10 15.56 21.120001 26.68 32.240002 34.459999 36.68 38.900002 41.68"
           y="0"
           sodipodi:role="line"
           id="tspan202">Probability</tspan></text>
</g><path
       d="m 122.183,24.9441 0,125.8759"
       style="fill:none;stroke:#000000;stroke-width:0.40000001;stroke-linecap:butt;stroke-linejoin:miter;stroke-miterlimit:10;stroke-dasharray:1.2, 1.2;stroke-dashoffset:0;stroke-opacity:1"
       id="path204"
       inkscape:connector-curvature="0" /><path
       d="m 123.448,24.9441 0,125.6139"
       style="fill:none;stroke:#000000;stroke-width:0.40000001;stroke-linecap:butt;stroke-linejoin:miter;stroke-miterlimit:10;stroke-dasharray:none;stroke-dashoffset:0;stroke-opacity:1"
       id="path206"
       inkscape:connector-curvature="0" /><path
       d="m 106.92,63.2859 0.545,0 0,3.9309 0.545,0 0,3.7203 0.545,0 0,4.1824 0.545,0 0,3.0063 0.546,0 0,4.3242 0.545,0 0,1.1566 0.545,0 0,3.827 0.545,0 0,5.9789 0.545,0 0,3.1234 0.545,0 0,4.9351 0.545,0 0,3.122 0.545,0 0,4.612 0.545,0 0,5.235 0.546,0 0,2.227 0.544,0 0,3.377 0.546,0 0,5.259 0.545,0 0,3.574 0.545,0 0,2.874 0.545,0 0,4.434 0.545,0 0,3.54 0.545,0 0,1.795 0.545,0 0,1.361 0.545,0 0,3.67 0.545,0 0,0.965 0.546,0 0,2.305 0.545,0 0,0.443 0.545,0 0,2.002 0.545,0 0,-1.446 0.545,0 0,-0.181 0.545,0 0,-0.081 0.545,0 0,0.213 0.545,0 0,-2.808 0.545,0 0,0.331 0.546,0 0,-2.853 0.545,0 0,-1.559 0.545,0 0,-2.253 0.545,0 0,-6.364 0.545,0 0,-1.123 0.545,0 0,-3.142 0.545,0 0,-3.691 0.545,0 0,-3.018 0.545,0 0,-5.282 0.545,0 0,-3.652 0.546,0 0,-2.424 0.545,0 0,-5.862 0.545,0 0,-3.687 0.545,0 0,-4.5141 0.545,0 0,-4.5445 0.545,0 0,-2.8262 0.545,0 0,-6.2086 0.545,0 0,-3.1429 0.545,0 0,-3.7414 0.545,0 0,-3.9954 0.546,0 0,-3.948 0.545,0 0,-3.4484 0.545,0 0,-3.3442 0.545,0 0,-4.134 0.545,0 0,-2.1082 0.545,0 0,-2.4765 0.545,0 0,-2.6559 0.545,0 0,-3.0672 0.545,0 0,-2.0722 0.545,0 0,-2.4473 0.546,0 0,-2.277 0.545,0 0,-1.1351 0.545,0 0,-2.4774 0.545,0 0,-1.4304 0.545,0 0,-1.3657 0.545,0 0,-1.1793 0.545,0 0,-1.2363 0.545,0 0,-1.3812 0.545,0 0,-0.634 0.545,0 0,-0.9606 0.546,0 0,-0.6875 0.545,0 0,-0.8027 0.545,0 0,-0.3477 0.545,0 0,-0.6128 0.545,0 0,-0.5504 0.545,0 0,-0.3735 0.545,0 0,-0.3265 0.545,0 0,-0.3844 0.545,0 0,-0.2285 0.546,0 0,-0.1731 0.545,0 0,-0.207 0.545,0 0,-0.1395 0.545,0 0,-0.157 0.545,0 0,-0.1766 0.545,0 0,-0.0363 0.545,0 0,-0.0887 0.545,0 0,-0.0929 0.545,0 0,-0.0071 0.545,0 0,-0.0902 0.546,0 0,-0.0363 0.545,0 0,-0.0317 0.545,0 0,-0.0277 0.545,0 0,-0.0117 0.545,0 0,-0.0313 0.545,0 0,-0.0191 0.545,0 0,0.002 0.545,0 0,-0.0137 0.545,0 0,-0.002 0.545,0 0,-0.0101 0.546,0 0,-0.0133 0.545,0 0,-0.0024 0.545,0 0,-7e-4 0.545,0 0,-0.0028 0.545,0 0,8e-4 0.545,0 0,-4e-4 0.545,0 0,-0.0043 0.545,0 0,0.002 0.545,0 0,-4e-4 0.545,0 0,-0.0016 0.546,0 0,-4e-4 0.545,0 0.545,0 0,-4e-4 0.545,0 0.545,0 0.545,0 0.545,0 0.545,0 0.545,0 0.546,0 0.545,0 0.545,0 0.545,0 0.545,0 0.545,0 0.545,0 0.545,0 0.545,0 0.545,0 0.546,0 0.545,0 0.545,0 0.545,0 0.545,0 0.545,0 0.545,0 0.545,0 0.545,0 0.545,0 0.546,0 0.545,0 0.545,0 0.545,0 0.545,0 0.545,0 0.545,0 0.545,0 0.545,0 0.546,0 0.545,0 0.545,0 0.545,0 0.545,0 0.545,0 0.545,0 0.545,0 0.545,0 0.545,0 0.546,0 0.545,0 0.545,0 0.545,0 0.545,0 0.545,0 0.545,0 0.545,0 0.545,0 0.545,0 0.546,0 0.545,0 0.545,0 0.545,0 0.545,0 0.545,0 0.545,0 0.545,0 0.545,0 0.545,0 0.546,0 0.545,0 0.545,0 0.545,0 0.545,0 0.545,0 0.545,0 0.545,0 0.545,0 0.546,0 0.545,0 0.545,0 0.545,0 0.545,0 0.545,0 0.545,0 0.545,0 0.545,0 0.545,0 0.546,0 0.545,0 0.545,0 0.545,0 0.545,0 0.545,0 0.545,0 0.545,0 0.545,0 0.545,0 0.546,0 0.545,0 0.545,0 0.545,0 0.545,0 0.545,0 0.545,0 0.545,0 0.545,0 0.546,0 0.545,0 0.545,0 0.545,0 0.545,0 0.545,0 0.545,0 0.545,0 0.545,0 0.545,0 0.546,0 0.545,0 0.545,0 0.545,0 0.545,0 0.545,0 0.545,0 0.545,0 0.545,0 0.545,0 0.546,0 0.545,0 0.545,0 0.545,0 0.545,0 0.545,0 0.545,0 0.545,0 0.545,0 0.545,0 0.546,0 0.545,0 0.545,0 0.545,0 0.545,0 0.545,0 0.545,0 0,0"
       style="fill:none;stroke:#46e664;stroke-width:0.80000001;stroke-linecap:butt;stroke-linejoin:miter;stroke-miterlimit:10;stroke-dasharray:none;stroke-opacity:1"
       id="path208"
       inkscape:connector-curvature="0" /><path
       inkscape:connector-curvature="0"
       id="path210"
       d="m 106.92,47.6598 c 0.83267,1.353969 0.99644,3.37684 1.09,5.46992 0.82358,1.354676 0.70565,3.650858 1.09,5.444766 0.65349,1.571885 0.16793,4.282821 1.091,5.585131 -0.44586,2.699463 0.79551,3.711696 0.545,6.215803 0.71576,1.498273 0.1729,4.255168 0.93122,5.71088 0.14003,2.105219 0.25114,4.239358 0.70378,6.031969 -0.41097,2.656962 0.92466,3.56732 0.545,6.192968 0.2721,2.019557 0.8153,3.768017 0.545,6.329969 1.3982,0.838932 -0.2797,4.753974 1.091,5.620414 -0.3202,2.68935 0.39152,4.34679 0.544,6.56347 -0.4118,2.65568 0.92672,3.56104 0.546,6.18565 0.2333,2.12832 0.82983,3.89341 0.545,6.53987 1.38789,0.80231 -0.27874,4.65914 1.09,5.48061 -0.32951,2.57513 0.38837,4.10288 0.545,6.19187 -0.16082,2.46751 0.9743,3.63908 0.545,6.37508 1.0495,1.11366 0.23058,4.09574 1.09,5.39948 0.0888,2.09743 0.426,3.94638 0.93122,5.62735 0.24891,1.84076 0.39949,3.77984 1.091,5.178 0.38816,1.63343 0.55758,3.48561 1.79378,4.271 1.02722,1.19831 2.18961,-1.29624 2.181,-2.54765 0.61524,-1.43387 1.17794,-2.9203 1.09,-5.05735 0.84659,-1.40258 0.98649,-3.51186 1.09,-5.65752 0.87012,-1.32693 0.35852,-4.03556 1.09,-5.50113 -0.31178,-2.60455 0.97686,-3.60867 0.545,-6.3333 1.08492,-1.05744 -0.16074,-4.44544 1.09,-5.33705 -0.20727,-2.47389 0.14784,-4.38541 0.546,-6.25387 -0.4071,-2.72172 0.90915,-3.72009 0.545,-6.39887 0.24085,-2.10677 0.8272,-3.86804 0.545,-6.49787 1.48713,-0.678 -0.45593,-4.78619 1.09,-5.40539 -0.20712,-2.57251 0.15872,-4.572058 0.545,-6.551169 -0.40393,-2.750287 0.90075,-3.791967 0.545,-6.494068 0.25822,-2.057941 0.82079,-3.811523 0.545,-6.403469 1.28513,-0.901346 -0.0603,-4.433247 1.09,-5.469428 -0.44004,-2.74047 0.78807,-3.812784 0.546,-6.355286 0.76082,-1.458239 0.006,-4.432018 1.09,-5.56718 -0.42924,-2.785279 0.77424,-3.937837 0.545,-6.52312 0.65834,-1.512534 0.50673,-3.835026 1.09,-5.422632 0.22596,-1.897232 0.371,-3.875376 1.09,-5.279565 0.0335,-2.175732 0.5823,-3.836244 1.09,-5.537817 0.0707,-2.086263 1.14622,-3.167688 1.091,-5.379866 0.84734,-1.196894 1.34209,-2.74638 1.635,-4.4977 1.01867,-0.888298 1.25494,-2.559005 2.18,-3.540917 0.72219,-1.041106 1.45312,-2.073477 2.56722,-2.722683 0.80671,-0.822619 2.00772,-1.250939 3.27,-1.618 5.08972,-1.218536 12.00426,-0.612257 18.14778,-0.777 25.25633,0 50.51267,0 75.769,0"
       style="fill:none;stroke:#46e664;stroke-width:0.80000001;stroke-linecap:butt;stroke-linejoin:miter;stroke-miterlimit:10;stroke-dasharray:2.4, 2.4;stroke-dashoffset:0;stroke-opacity:1" /><text
       transform="scale(1,-1)"
       sodipodi:linespacing="125%"
       id="text4450"
       y="9.9715815"
       x="166.30931"
       style="color:#000000;font-size:16px;line-height:125%;text-align:start;letter-spacing:0px;word-spacing:0px;text-anchor:start;clip-rule:nonzero;display:inline;overflow:visible;visibility:visible;opacity:1;isolation:auto;mix-blend-mode:normal;color-interpolation:sRGB;color-interpolation-filters:linearRGB;solid-color:#000000;solid-opacity:1;fill:#000000;fill-opacity:1;fill-rule:nonzero;stroke:none;stroke-width:1px;stroke-linecap:butt;stroke-linejoin:miter;stroke-miterlimit:4;stroke-dasharray:none;stroke-dashoffset:0;stroke-opacity:1;color-rendering:auto;image-rendering:auto;shape-rendering:auto;text-rendering:auto;enable-background:accumulate"
       xml:space="preserve"><tspan
         y="9.9715815"
         x="166.30931"
         id="tspan4452"
         sodipodi:role="line">f<tspan
   id="tspan4454"
   style="font-size:51.99999809%;text-align:center;baseline-shift:sub;text-anchor:middle">bio</tspan></tspan></text>
<text
       xml:space="preserve"
       style="color:#000000;font-size:16px;line-height:125%;text-align:start;letter-spacing:0px;word-spacing:0px;text-anchor:start;clip-rule:nonzero;display:inline;overflow:visible;visibility:visible;opacity:1;isolation:auto;mix-blend-mode:normal;color-interpolation:sRGB;color-interpolation-filters:linearRGB;solid-color:#000000;solid-opacity:1;fill:#000000;fill-opacity:1;fill-rule:nonzero;stroke:none;stroke-width:1px;stroke-linecap:butt;stroke-linejoin:miter;stroke-miterlimit:4;stroke-dasharray:none;stroke-dashoffset:0;stroke-opacity:1;color-rendering:auto;image-rendering:auto;shape-rendering:auto;text-rendering:auto;enable-background:accumulate"
       x="361.50928"
       y="9.9715815"
       id="text4456"
       sodipodi:linespacing="125%"
       transform="scale(1,-1)"><tspan
         sodipodi:role="line"
         id="tspan4458"
         x="361.50928"
         y="9.9715815">f<tspan
   style="font-size:51.99999809%;text-align:center;baseline-shift:sub;text-anchor:middle"
   id="tspan4460">agr</tspan></tspan></text>
<text
       transform="scale(1,-1)"
       sodipodi:linespacing="125%"
       id="text4462"
       y="9.9715815"
       x="556.70923"
       style="color:#000000;font-size:16px;line-height:125%;text-align:start;letter-spacing:0px;word-spacing:0px;text-anchor:start;clip-rule:nonzero;display:inline;overflow:visible;visibility:visible;opacity:1;isolation:auto;mix-blend-mode:normal;color-interpolation:sRGB;color-interpolation-filters:linearRGB;solid-color:#000000;solid-opacity:1;fill:#000000;fill-opacity:1;fill-rule:nonzero;stroke:none;stroke-width:1px;stroke-linecap:butt;stroke-linejoin:miter;stroke-miterlimit:4;stroke-dasharray:none;stroke-dashoffset:0;stroke-opacity:1;color-rendering:auto;image-rendering:auto;shape-rendering:auto;text-rendering:auto;enable-background:accumulate"
       xml:space="preserve"><tspan
         y="9.9715815"
         x="556.70923"
         id="tspan4464"
         sodipodi:role="line">f<tspan
   id="tspan4468"
   style="font-size:51.99999809%;baseline-shift:sub">veh</tspan></tspan></text>
<text
       transform="scale(1,-1)"
       sodipodi:linespacing="125%"
       id="text4470"
       y="-225.95248"
       x="254.10931"
       style="color:#000000;font-size:16px;line-height:125%;text-align:start;letter-spacing:0px;word-spacing:0px;text-anchor:start;clip-rule:nonzero;display:inline;overflow:visible;visibility:visible;opacity:1;isolation:auto;mix-blend-mode:normal;color-interpolation:sRGB;color-interpolation-filters:linearRGB;solid-color:#000000;solid-opacity:1;fill:#000000;fill-opacity:1;fill-rule:nonzero;stroke:none;stroke-width:1px;stroke-linecap:butt;stroke-linejoin:miter;stroke-miterlimit:4;stroke-dasharray:none;stroke-dashoffset:0;stroke-opacity:1;color-rendering:auto;image-rendering:auto;shape-rendering:auto;text-rendering:auto;enable-background:accumulate"
       xml:space="preserve"><tspan
         y="-225.95248"
         x="254.10931"
         id="tspan4472"
         sodipodi:role="line">Grenoble FR, 10-Feb-2013</tspan></text>
<g
       style="font-style:normal;font-variant:normal;font-weight:normal;font-stretch:normal;letter-spacing:normal;word-spacing:normal;text-anchor:start;fill:none;fill-opacity:1;fill-rule:evenodd;stroke:#000000;stroke-width:0.79527789;stroke-linecap:butt;stroke-linejoin:miter;stroke-miterlimit:10.43299961;stroke-dasharray:none;stroke-dashoffset:0;stroke-opacity:1"
       ns0:preamble="/home/samuel/headTexText.ini"
       ns0:text="$\\delta^{15}$N-NH$_3= -17.755$ \\permil"
       word-spacing="normal"
       letter-spacing="normal"
       font-size-adjust="none"
       font-stretch="normal"
       font-weight="normal"
       font-variant="normal"
       font-style="normal"
       stroke-miterlimit="10.433"
       xml:space="preserve"
       transform="matrix(1.257422,0,0,1.2574223,15.09938,-391.52079)"
       id="content"><path
         id="path5155"
         d="m 226.07,481.58 -0.12,-0.03 -0.12,-0.04 -0.11,-0.04 -0.11,-0.05 -0.11,-0.05 -0.1,-0.06 -0.11,-0.06 -0.1,-0.07 -0.1,-0.07 -0.09,-0.07 -0.09,-0.08 -0.09,-0.08 -0.09,-0.09 -0.08,-0.08 -0.08,-0.1 -0.08,-0.09 -0.07,-0.1 -0.07,-0.1 -0.07,-0.1 -0.06,-0.1 -0.05,-0.11 -0.06,-0.11 -0.04,-0.1 -0.05,-0.11 -0.04,-0.11 -0.03,-0.12 -0.03,-0.11 -0.03,-0.11 -0.01,-0.12 -0.02,-0.11 -0.01,-0.11 0,-0.11 c 0,-0.96 0.64,-1.67 1.58,-1.67 l 0,0.21 c -0.55,0 -0.96,0.42 -0.96,1.18 0,0.62 0.37,2.49 1.71,2.85 l 0,0 c 0.25,-0.46 0.55,-1 0.55,-1.71 0,-0.66 -0.38,-2.32 -1.3,-2.32 l 0,-0.21 c 1.16,0 1.99,1.55 1.99,2.93 0,0.9 -0.4,1.4 -0.74,1.84 -0.36,0.45 -0.94,1.2 -0.94,1.63 0,0.22 0.19,0.46 0.54,0.46 0.3,0 0.5,-0.13 0.71,-0.27 0.2,-0.12 0.4,-0.25 0.55,-0.25 0.25,0 0.4,0.24 0.4,0.4 0,0.22 -0.16,0.25 -0.52,0.33 -0.52,0.11 -0.66,0.11 -0.82,0.11 -0.78,0 -1.13,-0.43 -1.13,-1.03 0,-0.53 0.29,-1.09 0.6,-1.69 z"
         inkscape:connector-curvature="0"
         style="fill:#000000;stroke-width:0" /><path
         id="path5157"
         d="m 230.58,485.27 0,0.01 0,0.01 0,0.01 0,0.01 0,0 0,0.01 0,0.01 0,0.01 0,0 0,0.01 0,0.01 0,0 0,0.01 0,0 -0.01,0.01 0,0 0,0.01 0,0 0,0.01 0,0.01 -0.01,0.01 0,0 0,0.01 -0.01,0.01 0,0 -0.01,0.01 0,0 -0.01,0 -0.01,0.01 -0.01,0 -0.01,0 0,0 -0.01,0 -0.01,0 0,0 -0.01,0.01 0,0 -0.01,0 0,0 -0.01,0 -0.01,0 -0.01,0 0,0 -0.01,0 -0.01,0 -0.01,0 0,0 -0.01,0 -0.01,0 -0.01,0 c -0.45,-0.44 -1.08,-0.45 -1.37,-0.45 l 0,-0.25 c 0.17,0 0.63,0 1.01,0.2 l 0,-3.55 c 0,-0.23 0,-0.32 -0.7,-0.32 l -0.26,0 0,-0.25 c 0.12,0.01 0.98,0.03 1.24,0.03 0.22,0 1.1,-0.02 1.25,-0.03 l 0,0.25 -0.26,0 c -0.7,0 -0.7,0.09 -0.7,0.32 z"
         inkscape:connector-curvature="0"
         style="fill:#000000;stroke-width:0" /><path
         id="path5159"
         d="m 233.29,484.73 0.04,-0.01 0.03,0 0.03,-0.01 0.03,-0.01 0.03,0 0.03,-0.01 0.03,-0.01 0.02,0 0.03,-0.01 0.03,0 0.02,0 0.02,-0.01 0.03,0 0.02,0 0.02,-0.01 0.02,0 0.02,0 0.02,0 0.02,0 0.02,0 0.02,-0.01 0.02,0 0.01,0 0.02,0 0.01,0 0.02,0 0.01,0 0.01,0 0.02,0 0.01,0 0.01,0 0.01,0 c 0.92,0 1.47,0.63 1.47,0.73 0,0.08 -0.05,0.1 -0.09,0.1 -0.01,0 -0.02,0 -0.05,-0.02 -0.17,-0.06 -0.54,-0.2 -1.06,-0.2 -0.19,0 -0.56,0.01 -1.02,0.18 -0.07,0.04 -0.08,0.04 -0.09,0.04 -0.09,0 -0.09,-0.08 -0.09,-0.19 l 0,-2.05 c 0,-0.12 0,-0.2 0.11,-0.2 0.06,0 0.07,0.01 0.14,0.09 0.3,0.39 0.73,0.44 0.97,0.44 0.42,0 0.61,-0.33 0.65,-0.39 0.12,-0.23 0.16,-0.49 0.16,-0.89 0,-0.21 0,-0.62 -0.2,-0.93 -0.18,-0.25 -0.48,-0.42 -0.82,-0.42 -0.46,0 -0.93,0.25 -1.1,0.71 0.26,-0.02 0.4,0.16 0.4,0.34 0,0.3 -0.26,0.36 -0.35,0.36 -0.01,0 -0.35,0 -0.35,-0.38 0,-0.62 0.57,-1.25 1.41,-1.25 0.9,0 1.68,0.66 1.68,1.54 0,0.78 -0.6,1.51 -1.47,1.51 -0.31,0 -0.67,-0.08 -0.98,-0.34 z"
         inkscape:connector-curvature="0"
         style="fill:#000000;stroke-width:0" /><path
         id="path5161"
         d="m 238.99,483.89 -0.01,0.01 0,0.01 -0.01,0.01 -0.01,0.01 -0.01,0.01 0,0.01 -0.01,0 0,0.01 -0.01,0.01 -0.01,0 0,0.01 -0.01,0 -0.01,0.01 0,0 -0.01,0.01 -0.01,0 0,0 -0.01,0.01 -0.01,0 -0.01,0 -0.01,0 0,0 -0.01,0.01 -0.02,0 -0.01,0 -0.01,0 -0.01,0 -0.01,0 -0.02,0 -0.01,0 0,0 -0.01,0 -0.01,0 -0.01,0 -0.01,0 -1.69,0 0,-0.31 0.29,0 c 0.15,0 0.35,-0.01 0.49,-0.02 0.23,-0.03 0.24,-0.04 0.24,-0.23 l 0,-5.18 c 0,-0.27 0,-0.74 -1.02,-0.74 l 0,-0.31 c 0.35,0.01 0.84,0.04 1.16,0.04 0.33,0 0.82,-0.03 1.17,-0.04 l 0,0.31 c -1.03,0 -1.03,0.47 -1.03,0.74 l 0,5.16 c 0.05,-0.05 0.06,-0.06 0.1,-0.12 l 4.07,-5.96 c 0.09,-0.12 0.1,-0.13 0.17,-0.13 0.14,0 0.14,0.07 0.14,0.26 l 0,5.49 c 0,0.26 0,0.73 1.03,0.73 l 0,0.31 c -0.35,-0.01 -0.84,-0.03 -1.17,-0.03 -0.33,0 -0.82,0.02 -1.16,0.03 l 0,-0.31 c 1.02,0 1.02,-0.47 1.02,-0.73 l 0,-4.25 z"
         inkscape:connector-curvature="0"
         style="fill:#000000;stroke-width:0" /><polygon
         id="polygon5163"
         points="244.26,479.09 246.9,479.09 246.9,479.67 244.26,479.67 "
         style="fill:#000000;stroke-width:0" /><path
         id="path5165"
         d="m 249.78,483.89 0,0.01 -0.01,0.01 -0.01,0.01 -0.01,0.01 0,0.01 -0.01,0.01 -0.01,0 0,0.01 -0.01,0.01 0,0 -0.01,0.01 -0.01,0 0,0.01 -0.01,0 -0.01,0.01 0,0 -0.01,0 -0.01,0.01 -0.01,0 0,0 -0.01,0 -0.01,0 -0.01,0.01 -0.01,0 -0.01,0 -0.02,0 -0.01,0 -0.01,0 -0.02,0 0,0 -0.01,0 -0.01,0 -0.01,0 -0.01,0 -0.01,0 -1.69,0 0,-0.31 0.29,0 c 0.15,0 0.35,-0.01 0.5,-0.02 0.23,-0.03 0.24,-0.04 0.24,-0.23 l 0,-5.18 c 0,-0.27 0,-0.74 -1.03,-0.74 l 0,-0.31 c 0.35,0.01 0.84,0.04 1.17,0.04 0.32,0 0.81,-0.03 1.16,-0.04 l 0,0.31 c -1.02,0 -1.02,0.47 -1.02,0.74 l 0,5.16 c 0.05,-0.05 0.06,-0.06 0.1,-0.12 l 4.06,-5.96 c 0.09,-0.12 0.1,-0.13 0.17,-0.13 0.14,0 0.14,0.07 0.14,0.26 l 0,5.49 c 0,0.26 0,0.73 1.03,0.73 l 0,0.31 c -0.35,-0.01 -0.84,-0.03 -1.17,-0.03 -0.32,0 -0.81,0.02 -1.16,0.03 l 0,-0.31 c 1.02,0 1.02,-0.47 1.02,-0.73 l 0,-4.25 z"
         inkscape:connector-curvature="0"
         style="fill:#000000;stroke-width:0" /><path
         id="path5167"
         d="m 261.05,483.24 0.01,0.04 0,0.03 0,0.03 0,0.03 0,0.03 0,0.02 0.01,0.03 0,0.02 0.01,0.02 0,0.02 0.01,0.02 0.01,0.02 0.01,0.02 0.02,0.01 0.01,0.02 0.02,0.01 0.02,0.02 0.02,0.01 0.02,0 0.01,0.01 0.01,0 0.02,0.01 0.01,0 0.02,0.01 0.01,0 0.02,0.01 0.02,0 0.02,0 0.02,0.01 0.02,0 0.02,0 0.02,0 0.02,0.01 0.03,0 0.02,0 0.03,0 0.02,0.01 0.03,0 0.03,0 0.03,0 0.03,0 0.03,0 0.03,0 0.03,0 0.04,0 0.03,0 0.24,0 0,0.31 c -0.35,-0.03 -1.09,-0.03 -1.46,-0.03 -0.38,0 -1.13,0 -1.48,0.03 l 0,-0.31 0.24,0 c 0.77,0 0.79,-0.11 0.79,-0.47 l 0,-2.32 -2.98,0 0,2.32 c 0,0.36 0.02,0.47 0.78,0.47 l 0.24,0 0,0.31 c -0.35,-0.03 -1.08,-0.03 -1.46,-0.03 -0.38,0 -1.13,0 -1.48,0.03 l 0,-0.31 0.24,0 c 0.77,0 0.79,-0.11 0.79,-0.47 l 0,-5.23 c 0,-0.36 -0.02,-0.47 -0.79,-0.47 l -0.24,0 0,-0.31 c 0.35,0.04 1.09,0.04 1.47,0.04 0.38,0 1.12,0 1.47,-0.04 l 0,0.31 -0.24,0 c -0.76,0 -0.78,0.11 -0.78,0.47 l 0,2.6 2.98,0 0,-2.6 c 0,-0.36 -0.02,-0.47 -0.79,-0.47 l -0.24,0 0,-0.31 c 0.35,0.04 1.09,0.04 1.47,0.04 0.38,0 1.12,0 1.47,-0.04 l 0,0.31 -0.24,0 c -0.76,0 -0.79,0.11 -0.79,0.47 z"
         inkscape:connector-curvature="0"
         style="fill:#000000;stroke-width:0" /><path
         id="path5169"
         d="m 264.32,478.06 0.05,0 0.05,0 0.05,-0.01 0.05,0 0.05,-0.01 0.04,-0.02 0.05,-0.01 0.04,-0.02 0.04,-0.02 0.04,-0.02 0.04,-0.02 0.04,-0.02 0.04,-0.03 0.03,-0.03 0.03,-0.03 0.04,-0.04 0.03,-0.03 0.02,-0.04 0.03,-0.04 0.03,-0.04 0.02,-0.05 0.02,-0.05 0.02,-0.05 0.02,-0.05 0.02,-0.05 0.01,-0.06 0.01,-0.05 0.01,-0.06 0.01,-0.07 0.01,-0.06 0,-0.07 0,-0.07 c 0,-0.86 -0.5,-1.12 -0.91,-1.12 -0.28,0 -0.89,0.08 -1.19,0.49 0.33,0.02 0.41,0.24 0.41,0.39 0,0.22 -0.17,0.38 -0.39,0.38 -0.19,0 -0.39,-0.12 -0.39,-0.4 0,-0.65 0.73,-1.08 1.57,-1.08 0.98,0 1.65,0.65 1.65,1.34 0,0.55 -0.45,1.09 -1.22,1.25 0.73,0.26 1,0.78 1,1.21 0,0.55 -0.64,0.96 -1.41,0.96 -0.78,0 -1.37,-0.38 -1.37,-0.93 0,-0.24 0.15,-0.37 0.36,-0.37 0.22,0 0.36,0.16 0.36,0.35 0,0.2 -0.14,0.35 -0.36,0.36 0.25,0.31 0.73,0.39 0.99,0.39 0.31,0 0.75,-0.16 0.75,-0.76 0,-0.29 -0.09,-0.61 -0.28,-0.83 -0.23,-0.26 -0.42,-0.28 -0.77,-0.3 -0.18,-0.01 -0.19,-0.01 -0.23,-0.02 -0.01,0 -0.07,-0.01 -0.07,-0.09 0,-0.1 0.07,-0.1 0.19,-0.1 z"
         inkscape:connector-curvature="0"
         style="fill:#000000;stroke-width:0" /><path
         id="path5171"
         d="m 276.5,480.48 0.03,0 0.03,0 0.03,0 0.01,0.01 0.02,0 0.01,0 0.02,0 0.01,0 0.01,0 0.02,0.01 0.01,0 0.01,0 0.02,0.01 0.01,0 0.01,0.01 0.01,0 0.01,0.01 0.01,0.01 0.01,0.01 0.01,0.01 0.01,0.01 0,0 0.01,0.01 0,0 0,0.01 0.01,0.01 0,0 0,0.01 0,0.01 0,0 0.01,0.01 0,0.01 0,0.01 0,0.01 0,0 0,0.01 0,0.01 c 0,0.2 -0.19,0.2 -0.33,0.2 l -5.97,0 c -0.14,0 -0.33,0 -0.33,-0.2 0,-0.2 0.19,-0.2 0.34,-0.2 z"
         inkscape:connector-curvature="0"
         style="fill:#000000;stroke-width:0" /><path
         id="path5173"
         d="m 276.51,478.56 0.02,0 0.01,0 0.03,0 0.02,0 0.02,0 0.01,0 0.02,0 0.01,0 0.01,0 0.02,0.01 0.01,0 0.01,0 0.02,0.01 0.01,0 0.01,0.01 0.01,0 0.01,0.01 0.01,0 0.01,0.01 0.01,0.01 0.01,0.01 0.01,0 0,0.01 0,0.01 0.01,0 0,0.01 0,0 0.01,0.01 0,0.01 0,0 0,0.01 0,0.01 0.01,0 0,0.01 0,0.01 0,0.01 0,0.01 0,0.01 0,0.01 c 0,0.19 -0.19,0.19 -0.34,0.19 l -5.95,0 c -0.15,0 -0.34,0 -0.34,-0.19 0,-0.2 0.19,-0.2 0.33,-0.2 z"
         inkscape:connector-curvature="0"
         style="fill:#000000;stroke-width:0" /><path
         id="path5175"
         d="m 286.74,479.52 0.03,0 0.03,0 0.03,0 0.02,0 0.01,0 0.02,0 0.01,0.01 0.02,0 0.01,0 0.02,0 0.01,0.01 0.01,0 0.02,0 0.01,0.01 0.01,0.01 0.01,0 0.01,0.01 0.01,0.01 0.01,0 0.01,0.01 0.01,0.01 0,0.01 0,0 0.01,0.01 0,0.01 0,0 0.01,0.01 0,0.01 0,0 0,0.01 0,0.01 0,0.01 0.01,0 0,0.01 0,0.01 0,0.01 0,0.01 c 0,0.2 -0.18,0.2 -0.35,0.2 l -5.4,0 c -0.17,0 -0.35,0 -0.35,-0.2 0,-0.2 0.18,-0.2 0.35,-0.2 z"
         inkscape:connector-curvature="0"
         style="fill:#000000;stroke-width:0" /><path
         id="path5177"
         d="m 290.85,483.59 0,0.01 0,0.01 0,0.02 0,0.01 0,0 0,0.01 0,0.01 0,0.01 0,0.01 0,0.01 0,0.01 0,0.01 0,0 0,0.01 0,0.01 -0.01,0 0,0.01 0,0.01 0,0.01 0,0.01 0,0.01 -0.01,0.01 0,0.01 -0.01,0 0,0.01 -0.01,0.01 0,0 -0.01,0.01 -0.01,0 -0.01,0.01 0,0 -0.01,0 0,0 -0.01,0 0,0 -0.01,0 -0.01,0.01 0,0 -0.01,0 -0.01,0 0,0 -0.01,0 -0.01,0 -0.01,0 0,0 -0.01,0 -0.01,0 -0.01,0 -0.01,0 -0.01,0 -0.01,0 -0.01,0 c -0.62,-0.64 -1.5,-0.64 -1.82,-0.64 l 0,-0.3 c 0.2,0 0.79,0 1.31,0.26 l 0,-5.15 c 0,-0.36 -0.03,-0.48 -0.93,-0.48 l -0.32,0 0,-0.31 c 0.35,0.04 1.22,0.04 1.62,0.04 0.4,0 1.26,0 1.61,-0.04 l 0,0.31 -0.32,0 c -0.89,0 -0.92,0.11 -0.92,0.48 z"
         inkscape:connector-curvature="0"
         style="fill:#000000;stroke-width:0" /><path
         id="path5179"
         d="m 297.64,483.29 0.01,0.01 0.01,0.01 0.01,0.01 0,0.01 0.01,0 0.01,0.01 0,0.01 0.01,0.01 0,0.01 0,0.01 0.01,0 0,0.01 0.01,0.01 0,0.01 0,0.01 0,0.01 0,0 0.01,0.01 0,0.01 0,0.01 0,0.01 0,0.01 0,0.01 0,0.02 0,0.01 0,0.01 0,0.02 0,0.01 0,0.02 0,0.02 0,0.01 0,0.01 0,0.01 -2.42,0 c -1.22,0 -1.24,0.13 -1.28,0.32 l -0.24,0 -0.33,-2.05 0.24,0 c 0.03,0.16 0.13,0.79 0.25,0.91 0.07,0.06 0.85,0.06 0.98,0.06 l 2.07,0 c -0.11,-0.16 -0.9,-1.24 -1.12,-1.57 -0.9,-1.34 -1.23,-2.72 -1.23,-3.74 0,-0.1 0,-0.54 0.46,-0.54 0.46,0 0.46,0.44 0.46,0.54 l 0,0.51 c 0,0.55 0.03,1.09 0.11,1.63 0.04,0.23 0.18,1.08 0.62,1.7 z"
         inkscape:connector-curvature="0"
         style="fill:#000000;stroke-width:0" /><path
         id="path5181"
         d="m 299.79,477.76 0,0.03 0,0.03 0,0.02 -0.01,0.03 0,0.02 -0.01,0.03 -0.01,0.02 -0.01,0.03 -0.01,0.02 -0.01,0.02 -0.01,0.02 -0.02,0.02 -0.01,0.03 -0.02,0.02 -0.01,0.01 -0.02,0.02 -0.02,0.02 -0.02,0.02 -0.02,0.01 -0.02,0.02 -0.02,0.01 -0.02,0.01 -0.03,0.02 -0.02,0.01 -0.02,0.01 -0.03,0 -0.02,0.01 -0.03,0.01 -0.03,0 -0.02,0.01 -0.03,0 -0.02,0 c -0.29,0 -0.53,-0.24 -0.53,-0.53 0,-0.29 0.24,-0.53 0.53,-0.53 0.28,0 0.52,0.24 0.52,0.53 z"
         inkscape:connector-curvature="0"
         style="fill:#000000;stroke-width:0" /><path
         id="path5183"
         d="m 305.39,483.29 0.01,0.01 0.01,0.01 0.01,0.01 0,0.01 0.01,0 0,0.01 0.01,0.01 0,0.01 0.01,0.01 0,0.01 0.01,0 0,0.01 0,0.01 0.01,0.01 0,0.01 0,0.01 0,0 0,0.01 0.01,0.01 0,0.01 0,0.01 0,0.01 0,0.01 0,0.02 0,0.01 0,0.01 0,0.02 0,0.01 0,0.02 0,0.02 0,0.01 0,0.01 0,0.01 -2.42,0 c -1.22,0 -1.24,0.13 -1.28,0.32 l -0.25,0 -0.33,-2.05 0.25,0 c 0.03,0.16 0.12,0.79 0.25,0.91 0.07,0.06 0.85,0.06 0.98,0.06 l 2.06,0 c -0.1,-0.16 -0.89,-1.24 -1.11,-1.57 -0.9,-1.34 -1.23,-2.72 -1.23,-3.74 0,-0.1 0,-0.54 0.46,-0.54 0.46,0 0.46,0.44 0.46,0.54 l 0,0.51 c 0,0.55 0.03,1.09 0.11,1.63 0.04,0.23 0.18,1.08 0.62,1.7 z"
         inkscape:connector-curvature="0"
         style="fill:#000000;stroke-width:0" /><path
         id="path5185"
         d="m 310.11,479.23 -0.01,0.11 0,0.11 -0.02,0.11 -0.01,0.1 -0.02,0.11 -0.03,0.1 -0.03,0.1 -0.03,0.1 -0.04,0.1 -0.04,0.09 -0.04,0.09 -0.05,0.09 -0.05,0.09 -0.06,0.08 -0.06,0.08 -0.06,0.07 -0.06,0.08 -0.07,0.06 -0.07,0.07 -0.08,0.06 -0.07,0.06 -0.08,0.05 -0.09,0.05 -0.08,0.04 -0.09,0.04 -0.09,0.04 -0.09,0.03 -0.09,0.02 -0.09,0.02 -0.1,0.02 -0.1,0 -0.1,0.01 c -0.48,0 -0.91,-0.16 -1.27,-0.51 l 0,1.94 c 0.2,-0.06 0.53,-0.13 0.85,-0.13 1.23,0 1.93,0.9 1.93,1.03 0,0.06 -0.03,0.11 -0.1,0.11 -0.01,0 -0.03,0 -0.08,-0.03 -0.2,-0.09 -0.69,-0.29 -1.36,-0.29 -0.4,0 -0.86,0.07 -1.33,0.28 -0.08,0.03 -0.1,0.03 -0.12,0.03 -0.09,0 -0.09,-0.08 -0.09,-0.24 l 0,-2.94 c 0,-0.18 0,-0.26 0.13,-0.26 0.07,0 0.09,0.03 0.13,0.09 0.11,0.16 0.48,0.7 1.29,0.7 0.52,0 0.77,-0.46 0.85,-0.64 0.16,-0.37 0.18,-0.75 0.18,-1.25 0,-0.35 0,-0.94 -0.24,-1.36 -0.24,-0.39 -0.61,-0.64 -1.07,-0.64 -0.73,0 -1.3,0.52 -1.46,1.11 0.03,-0.01 0.06,-0.02 0.16,-0.02 0.33,0 0.5,0.25 0.5,0.48 0,0.24 -0.17,0.49 -0.5,0.49 -0.13,0 -0.48,-0.07 -0.48,-0.53 0,-0.85 0.68,-1.81 1.8,-1.81 1.16,0 2.18,0.95 2.18,2.21 z"
         inkscape:connector-curvature="0"
         style="fill:#000000;stroke-width:0" /><path
         id="path5187"
         d="m 315.09,479.23 -0.01,0.11 0,0.11 -0.02,0.11 -0.01,0.1 -0.02,0.11 -0.03,0.1 -0.03,0.1 -0.03,0.1 -0.04,0.1 -0.04,0.09 -0.04,0.09 -0.05,0.09 -0.05,0.09 -0.06,0.08 -0.06,0.08 -0.06,0.07 -0.06,0.08 -0.07,0.06 -0.07,0.07 -0.08,0.06 -0.07,0.06 -0.08,0.05 -0.08,0.05 -0.09,0.04 -0.09,0.04 -0.08,0.04 -0.1,0.03 -0.09,0.02 -0.09,0.02 -0.1,0.02 -0.1,0 -0.1,0.01 c -0.48,0 -0.91,-0.16 -1.27,-0.51 l 0,1.94 c 0.2,-0.06 0.53,-0.13 0.85,-0.13 1.23,0 1.93,0.9 1.93,1.03 0,0.06 -0.03,0.11 -0.1,0.11 -0.01,0 -0.03,0 -0.08,-0.03 -0.2,-0.09 -0.69,-0.29 -1.36,-0.29 -0.4,0 -0.86,0.07 -1.33,0.28 -0.07,0.03 -0.1,0.03 -0.11,0.03 -0.1,0 -0.1,-0.08 -0.1,-0.24 l 0,-2.94 c 0,-0.18 0,-0.26 0.14,-0.26 0.07,0 0.09,0.03 0.13,0.09 0.1,0.16 0.47,0.7 1.28,0.7 0.52,0 0.77,-0.46 0.85,-0.64 0.16,-0.37 0.18,-0.75 0.18,-1.25 0,-0.35 0,-0.94 -0.24,-1.36 -0.24,-0.39 -0.61,-0.64 -1.07,-0.64 -0.73,0 -1.29,0.52 -1.46,1.11 0.03,-0.01 0.06,-0.02 0.17,-0.02 0.32,0 0.49,0.25 0.49,0.48 0,0.24 -0.17,0.49 -0.49,0.49 -0.14,0 -0.49,-0.07 -0.49,-0.53 0,-0.85 0.69,-1.81 1.8,-1.81 1.16,0 2.18,0.95 2.18,2.21 z"
         inkscape:connector-curvature="0"
         style="fill:#000000;stroke-width:0" /><path
         id="path5189"
         d="m 324.23,480.68 0,-0.22 c 0.25,0 0.44,-0.22 0.57,-0.49 0.2,-0.39 0.27,-0.84 0.27,-1.29 0,-0.44 -0.07,-0.89 -0.27,-1.28 -0.13,-0.27 -0.32,-0.49 -0.57,-0.49 -0.22,0 -0.38,0.21 -0.5,0.48 -0.16,0.4 -0.16,0.84 -0.16,1.29 0,0.46 0,0.9 0.16,1.3 0.12,0.28 0.28,0.48 0.5,0.48 l 0,0 0,0.22 c -0.4,0 -0.72,-0.28 -0.92,-0.6 -0.26,-0.42 -0.36,-0.91 -0.36,-1.4 0,-0.48 0.1,-0.97 0.36,-1.39 0.2,-0.32 0.52,-0.61 0.92,-0.61 0.38,0 0.63,0.32 0.79,0.62 0.22,0.42 0.3,0.91 0.3,1.38 0,0.48 -0.08,0.96 -0.3,1.4 -0.16,0.29 -0.41,0.6 -0.79,0.6 z"
         inkscape:connector-curvature="0"
         style="fill:#000000;stroke-width:0" /><path
         id="path5191"
         d="m 327.22,480.68 0,-0.22 c 0.25,0 0.44,-0.22 0.58,-0.49 0.2,-0.39 0.27,-0.84 0.27,-1.29 0,-0.44 -0.07,-0.89 -0.27,-1.28 -0.14,-0.27 -0.33,-0.49 -0.58,-0.49 -0.23,0 -0.39,0.21 -0.5,0.48 -0.16,0.4 -0.17,0.84 -0.17,1.29 0,0.46 0.01,0.9 0.17,1.3 0.11,0.28 0.27,0.48 0.5,0.48 l 0,0 0,0.22 c -0.41,0 -0.73,-0.28 -0.93,-0.6 -0.26,-0.42 -0.36,-0.91 -0.36,-1.4 0,-0.48 0.1,-0.97 0.36,-1.39 0.2,-0.32 0.52,-0.61 0.93,-0.61 0.38,0 0.63,0.32 0.79,0.62 0.22,0.42 0.31,0.91 0.31,1.38 0,0.48 -0.09,0.96 -0.31,1.4 -0.16,0.29 -0.41,0.6 -0.79,0.6 z"
         inkscape:connector-curvature="0"
         style="fill:#000000;stroke-width:0" /><path
         id="path5193"
         d="m 321.65,483.82 0.06,-0.03 0.05,-0.03 0.05,-0.02 0.06,-0.03 0.06,-0.02 0.05,-0.02 0.06,-0.02 0.06,-0.02 0.05,-0.01 0.06,-0.01 0.06,-0.01 0.06,-0.01 0.06,-0.01 0.05,0 0.06,-0.01 0.06,0 c 0.33,0 0.65,0.09 0.92,0.27 l -3.17,-6.87 c -0.01,-0.03 -0.02,-0.05 -0.02,-0.08 0,-0.1 0.09,-0.21 0.2,-0.21 0.08,0 0.15,0.05 0.19,0.12 l 3.5,7.61 c 0.01,0.03 0.02,0.05 0.02,0.08 0,0.11 -0.09,0.19 -0.2,0.19 -0.08,0 -0.15,-0.04 -0.18,-0.11 -0.24,-0.51 -0.75,-0.78 -1.27,-0.78 -0.44,0 -0.88,0.18 -1.21,0.58 -0.14,0.18 -0.35,0.31 -0.59,0.31 l 0,-0.21 c 0.24,0 0.43,-0.22 0.57,-0.5 0.2,-0.4 0.27,-0.84 0.27,-1.29 0,-0.46 -0.07,-0.91 -0.27,-1.29 -0.14,-0.28 -0.33,-0.5 -0.57,-0.5 -0.22,0 -0.39,0.21 -0.5,0.49 -0.16,0.39 -0.17,0.83 -0.17,1.3 0,0.46 0.01,0.89 0.17,1.3 0.11,0.27 0.28,0.49 0.5,0.49 l 0,0 0,0.21 c -0.41,0 -0.72,-0.28 -0.92,-0.6 -0.27,-0.43 -0.37,-0.91 -0.37,-1.4 0,-0.49 0.1,-0.98 0.37,-1.41 0.2,-0.32 0.51,-0.61 0.92,-0.61 0.37,0 0.63,0.32 0.78,0.62 0.23,0.43 0.31,0.92 0.31,1.4 0,0.39 -0.05,0.77 -0.19,1.14 z"
         inkscape:connector-curvature="0"
         style="fill:#000000;stroke-width:0" /></g></g></svg>